/* XPM */
static char *backgr1[] = {
/* columns rows colors chars-per-pixel */
"64 64 7 1 ",
"  c #97CE66",
". c #AEDC6C",
"X c #B6DD6C",
"o c #BFDF6D",
"O c #C6E57B",
"+ c #E9B184",
"@ c #FFFAA2",
/* pixels */
"oo..OO..ooooOOooooooOOXXOOXX..OOoo....oo..OO..OOOOXXXXXX..OOXXOO",
"oo..OO..ooooOOooooooOOXXOOXX..OOoo....oo..OO..OOOOXXXXXX..OOXXOO",
"OOOO..oooo....ooooooXXXXXXOOOO..oo..OO..OO..OOXXXXXXXXOOooXXXXXX",
"OOOO..oooo....ooooooXXXXXXOOOO..oo..OO..OO..OOXXXXXXXXOOooXXXXXX",
"XXXXOO....OO..ooooooOOXXXXXXXXOO..oo..OOOO....ooooooXXXX..OOXXXX",
"XXXXOO....OO..ooooooOOXXXXXXXXOO..oo..OOOO....ooooooXXXX..OOXXXX",
"OOOO....OO..ooooooXXXXXXOOOOoo....ooooOOOOoooooooooooo..OOXXXXOO",
"OOOO....OO..ooooooXXXXXXOOOOoo....ooooOOOOoooooooooooo..OOXXXXOO",
"OO..OOOOOOoo......OOoooooooooo..OO..ooooOO@@@@@@@@OO..OO..oooo..",
"OO..OOOOOOoo......OOoooooooooo..OO..ooooOO@@@@@@@@OO..OO..oooo..",
"....OOXXXXXXOOOO..OOooOO......oo..OO..oo@@@@++++@@@@..OO..oo..OO",
"....OOXXXXXXOOOO..OOooOO......oo..OO..oo@@@@++++@@@@..OO..oo..OO",
"ooooXXXXOOOO....oooooo..OOOO..ooXXOOOOoo@@@@++++@@@@oo......OO..",
"ooooXXXXOOOO....oooooo..OOOO..ooXXOOOOoo@@@@++++@@@@oo......OO..",
"oo..OOXXOO..oooooooo..OO....OOooooXXOOXX  @@@@@@@@  oooo..OO..oo",
"oo..OOXXOO..oooooooo..OO....OOooooXXOOXX  @@@@@@@@  oooo..OO..oo",
"..OO..oo..OO........OO..ooooOOoo..XXOOXXOO        oooo......oooo",
"..OO..oo..OO........OO..ooooOOoo..XXOOXXOO        oooo......oooo",
"....oooooo....OOOO..OO..oooooo..OOOOXXXXXXoooo..OO....OO..ooOOoo",
"....oooooo....OOOO..OO..oooooo..OOOOXXXXXXoooo..OO....OO..ooOOoo",
"oo........OO......OOOOOOOOoo..OOXXXXXXXXOOooooooOO..OO..ooooooOO",
"oo........OO......OOOOOOOOoo..OOXXXXXXXXOOooooooOO..OO..ooooooOO",
"OO..OO..oo..oooooo..OOooooOO....ooOOOOXXXXXXXXooOOOOOOooOOOO....",
"OO..OO..oo..oooooo..OOooooOO....ooOOOOXXXXXXXXooOOOOOOooOOOO....",
"..oo..OO..oooo....ooooooooooOOooooOOooXXXXXX....ooOOoooo@@@@..OO",
"..oo..OO..oooo....ooooooooooOOooooOOooXXXXXX....ooOOoooo@@@@..OO",
"OO..XXOOOOoo..OO....ooooOOXXOOOOoooooooooooo..OO..oooooo@@@@OO..",
"OO..XXOOOOoo..OO....ooooOOXXOOOOoooooooooooo..OO..oooooo@@@@OO..",
"..OOooXXOOXXOO..ooOO@@@@ooXXooOOooooooXXXXoooo..OO..oooo    ..XX",
"..OOooXXOOXXOO..ooOO@@@@ooXXooOOooooooXXXXoooo..OO..oooo    ..XX",
"OO....XXOOXXOOoooo..@@@@XXXXoooooo....XXOOXXooXXOOOOoo..OO..OO..",
"OO....XXOOXXOOoooo..@@@@XXXXoooooo....XXOOXXooXXOOOOoo..OO..OO..",
"OO..OOOOXXXXXXoooo..    XXXXXXoo..OO..ooXXOOXXooXXOOXXOO......OO",
"OO..OOOOXXXXXXoooo..    XXXXXXoo..OO..ooXXOOXXooXXOOXXOO......OO",
"..OOXXXXXXXXOOoo..oo......oooo..OO..ooooooOOOO..XXOOXXOO..OO..OO",
"..OOXXXXXXXXOOoo..oo......oooo..OO..ooooooOOOO..XXOOXXOO..OO..OO",
"....ooOOOOXXXXXXOO..oo..OO..@@@@OO....OOoooo..OOOOXXXXXX..OOXXOO",
"....ooOOOOXXXXXXOO..oo..OO..@@@@OO....OOoooo..OOOOXXXXXX..OOXXOO",
"OOOO..oooooooo..OOOO......OO@@@@XX..OO..oo..OOXXXXXXXXOOooXXXXXX",
"OOOO..oooooooo..OOOO......OO@@@@XX..OO..oo..OOXXXXXXXXOOooXXXXXX",
"XXXXOO..oooooooo..OO..OO..OO    XXoo..OO..oooo....ooXXXX..OOXXXX",
"XXXXOO..oooooooo..OO..OO..OO    XXoo..OO..oooo....ooXXXX..OOXXXX",
"OO......oooooo..ooOOXXOO..XXXXXXOOOOXXOOOOoo..OO..oooo..OOXXXXOO",
"OO......oooooo..ooOOXXOO..XXXXXXOOOOXXOOOOoo..OO..oooo..OOXXXXOO",
"OO..ooOOoooo..OOOOXXXXXXooOOXXXXXXXXooXXOOXXOO..oooo..OO..oooo..",
"OO..ooOOoooo..OOOOXXXXXXooOOXXXXXXXXooXXOOXXOO..oooo..OO..oooo..",
"....OOoooo..OOXXXXXXXXOO..XXXXoooooo..XXOOXXOOooooOO..OO..oooooo",
"....OOoooo..OOXXXXXXXXOO..XXXXoooooo..XXOOXXOOooooOO..OO..oooooo",
"ooXXOOXXoo....ooOOOOXXXXOO..oooooo..OOOOXXXXXXooOOoooo....OOoooo",
"ooXXOOXXoo....ooOOOOXXXXOO..oooooo..OOOOXXXXXXooOOoooo....OOoooo",
"XXXXXXXXXXOOoo..OO..oooo..OO..oo..OOXXXXXXXXOOooXXXXoooooooooooo",
"XXXXXXXXXXOOoo..OO..oooo..OO..oo..OOXXXXXXXXOOooXXXXoooooooooooo",
"XXOOXXXXOOoooo....oooooo..OO..oo....ooOOOOXXXXXXXXOOXXoooooooooo",
"XXOOXXXXOOoooo....oooooo..OO..oo....ooOOOOXXXXXXXXOOXXoooooooooo",
"oo....OOoooooooooooooooo........OOOOooOOOOXX..OO..XXOOXXoooooooo",
"oo....OOoooooooooooooooo........OOOOooOOOOXX..OO..XXOOXXoooooooo",
"..OO..OO....oooo....ooOOoo..OO..ooOOooXXOOoooo..OO..XXOO......oo",
"..OO..OO....oooo....ooOOoo..OO..ooOOooXXOOoooo..OO..XXOO......oo",
"OO..ooOO..OO........oooo..OO..ooXXooOOOOXXooooXXOOOOXX..OO..OO..",
"OO..ooOO..OO........oooo..OO..ooXXooOOOOXXooooXXOOOOXX..OO..OO..",
"OO..ooooooOO..OO..OO..ooOOOOXXOOXXooXXOOXXooooooXXOOXXOO......OO",
"OO..ooooooOO..OO..OO..ooOOOOXXOOXXooXXOOXXooooooXXOOXXOO......OO",
"..OOooooooOOOOOOoo..OOXXOOXXooXXooooXXXXXXoooo..XXOOXXOO..OO..OO",
"..OOooooooOOOOOOoo..OOXXOOXXooXXooooXXXXXXoooo..XXOOXXOO..OO..OO"
};
