/* XPM */
static char *_dc65bd84b854740e42ca7bf7b8bec133gLa8EiTA2Xpop36[] = {
/* columns rows colors chars-per-pixel */
"64 64 224 2 ",
"   c #382B24",
".  c #441D1D",
"X  c #5C1516",
"o  c #5E1919",
"O  c #641B1C",
"+  c #6A1A1B",
"@  c #781D1E",
"#  c #4C1F20",
"$  c #701F21",
"%  c #4A2623",
"&  c #512A27",
"*  c #56322D",
"=  c #4C3532",
"-  c #5A3832",
";  c #672725",
":  c #6B2A2A",
">  c #792828",
",  c #663935",
"<  c #723232",
"1  c #7D3A3B",
"2  c #39551D",
"3  c #41671C",
"4  c #454B2B",
"5  c #6D4D37",
"6  c #4D7129",
"7  c #597B39",
"8  c #6D3F40",
"9  c #57544C",
"0  c #5A5355",
"q  c #694741",
"w  c #6D4942",
"e  c #6A4C4C",
"r  c #764947",
"t  c #6B554B",
"y  c #7C534C",
"u  c #765151",
"i  c #5E7547",
"p  c #586C50",
"a  c #627E46",
"s  c #727450",
"d  c #6A6869",
"f  c #756C6C",
"g  c #6D7178",
"h  c #7E7D7D",
"j  c #851E1E",
"k  c #8B1E1E",
"l  c #911F1F",
"z  c #8A201F",
"x  c #892424",
"c  c #942323",
"v  c #992727",
"b  c #932B2B",
"n  c #9B2B2B",
"m  c #883435",
"M  c #993536",
"N  c #A12D2D",
"B  c #A7302F",
"V  c #A53334",
"C  c #AC3534",
"Z  c #AD3939",
"A  c #B03736",
"S  c #B23837",
"D  c #8D5F39",
"F  c #8E6436",
"G  c #AD6C2E",
"H  c #CD7829",
"J  c #AB3F40",
"K  c #865C57",
"L  c #AF4445",
"P  c #B44646",
"I  c #BC4342",
"U  c #8C6A56",
"Y  c #816464",
"T  c #85736B",
"R  c #86797A",
"E  c #967970",
"W  c #B07675",
"Q  c #C34747",
"!  c #CC4D4D",
"~  c #D14F4F",
"^  c #CE5051",
"/  c #D55353",
"(  c #5D8E2D",
")  c #5E8933",
"_  c #669B33",
"`  c #69A62E",
"'  c #6CA238",
"]  c #71A93A",
"[  c #78B83A",
"{  c #68884A",
"}  c #718C57",
"|  c #768963",
" . c #7C9563",
".. c #7D8774",
"X. c #D2882F",
"o. c #EA9934",
"O. c #DFA73B",
"+. c #EAA83A",
"@. c #E4B13F",
"#. c #F4B23E",
"$. c #818C75",
"%. c #958778",
"&. c #87957A",
"*. c #A0AB6A",
"=. c #F8BC42",
"-. c #97CE66",
";. c #98CE66",
":. c #9ED267",
">. c #A4D569",
",. c #AEDC6C",
"<. c #B4DD6C",
"1. c #BDDF6D",
"2. c #AAC674",
"3. c #ADD771",
"4. c #B5DE71",
"5. c #B9DF72",
"6. c #BEDE7D",
"7. c #BFE06F",
"8. c #BCE174",
"9. c #BDE17D",
"0. c #FECA48",
"q. c #C0DF6F",
"w. c #C0DF71",
"e. c #C0E06F",
"r. c #C1E275",
"t. c #C5E47A",
"y. c #D4E87F",
"u. c #787D87",
"i. c #7E8288",
"p. c #7D879B",
"a. c #888787",
"s. c #958A89",
"d. c #8C9484",
"f. c #939986",
"g. c #848A95",
"h. c #888D98",
"j. c #8E9197",
"k. c #979797",
"l. c #A09D9D",
"z. c #93A082",
"x. c #B3A993",
"c. c #8A94A9",
"v. c #999CA1",
"b. c #919CB1",
"n. c #9DA1A8",
"m. c #9CA6B8",
"M. c gray64",
"N. c #A7A8A8",
"B. c #ACB2B3",
"V. c #B3B3B4",
"C. c #B6B7B7",
"Z. c #BBBBBA",
"A. c #E9B184",
"S. c #EBBA87",
"D. c #BBDF9B",
"F. c #BEE189",
"G. c #BBC2AF",
"H. c #EEC38B",
"J. c #F0CA8E",
"K. c #C3E282",
"L. c #C9E58A",
"P. c #D8EA84",
"I. c #CBE692",
"U. c #CAE796",
"Y. c #D1E898",
"T. c #F9E89A",
"R. c #E5F093",
"E. c #EAF294",
"W. c #F6F69B",
"Q. c #FAF89F",
"!. c #CECAB4",
"~. c #CDE8A9",
"^. c #D6EBA9",
"/. c #DBEEB3",
"(. c #D8EBB5",
"). c #DFF0B8",
"_. c #FDF5A0",
"`. c #FFFAA2",
"'. c #E2F1BC",
"]. c #FFFBB3",
"[. c #9BA8C0",
"{. c #A8B3C4",
"}. c #B9BEC6",
"|. c #ACBAD1",
" X c #BFC1C4",
".X c #BAC3D4",
"XX c #C4C4C3",
"oX c #C8C7C3",
"OX c #CACAC7",
"+X c #CDCCCC",
"@X c #CFD1CA",
"#X c #D6D7C9",
"$X c #CBCED4",
"%X c #D4D4D4",
"&X c #DADAD6",
"*X c #DCDCDC",
"=X c #E7DFC4",
"-X c #DEF0C1",
";X c #F3EBC9",
":X c #E5F3C8",
">X c #E6F3CC",
",X c #E5E5DB",
"<X c #ECF6D5",
"1X c #EDF7DC",
"2X c #FDF7D8",
"3X c #C9D5E9",
"4X c #DADEE6",
"5X c #DDE2EB",
"6X c #DDE5F3",
"7X c #E4E4E4",
"8X c #E7E8E6",
"9X c #E9E9E6",
"0X c #ECECEB",
"qX c #F1EFE7",
"wX c #EFF5E5",
"eX c #F4F7E7",
"rX c #F6FBEC",
"tX c #FBF9ED",
"yX c #E4EAF3",
"uX c #EDF1F5",
"iX c #F4F4F3",
"pX c #F5F8F6",
"aX c #FAFCF4",
"sX c #FDFEFD",
/* pixels */
"1.q.<.,.t.t.<.,.1.1.1.e.r.t.r.e.1.e.1.1.e.y.1.<.e.t.1.<.,.,.8.t.r.1.<.,.,.,.<.e.1.,.4.t.8.,.4.t.t.t.t.<.<.<.<.<.<.,.<.t.t.<.<.t.",
"q.1.,.,.t.t.<.,.1.1.e.1.r.t.e.e.1.1.1.1.r.r.1.1.r.t.1.<.<.,.8.t.r.1.<.,.,.,.<.1.<.,.8.t.8.,.8.t.t.t.r.<.<.<.<.1.<.,.<.r.t.<.1.t.",
"t.t.t.t.,.,.1.1.1.e.<.,.,.,.1.e.1.1.e.1.1.<.<.<.<.<.t.t.t.t.8.,.<.e.<.,.8.t.1.,.4.t.8.,.8.t.t.<.1.<.<.<.<.<.e.r.e.e.q.<.<.<.<.<.",
"t.t.t.t.,.,.1.1.1.1.,.,.,.,.1.1.q.1.q.q.1.<.<.<.<.<.r.t.t.t.8.,.<.e.<.<.5.t.8.,.8.t.8.,.,.t.8.<.<.<.<.<.<.1.1.e.t.e.q.<.<.<.1.<.",
"1.<.1.<.t.t.,.,.,.,.r.t.<.,.<.1.q.1.e.q.r.t.1.<.<.<.<.<.1.<.8.t.7.,.<.1.<.<.5.t.t.t.r.,.,.,.<.1.e.e.1.1.1.<.1.<.<.<.<.r.r.<.<.<.",
"<.<.<.1.t.t.<.,.,.<.r.r.<.,.1.e.1.q.q.1.r.r.1.<.1.<.<.<.<.<.1.t.1.,.<.e.<.,.5.t.t.t.r.<.,.,.<.q.1.e.q.e.1.<.<.<.<.,.<.t.t.1.<.1.",
"t.t.t.t.,.,.,.,.t.t.<.,.1.1.1.1.1.q.1.<.1.<.<.<.r.t.t.t.e.e.<.<.,.,.<.e.1.7.8.t.t.t.r.1.1.1.1.q.q.e.q.1.1.1.1.,.<.t.r.1.<.<.<.r.",
"t.t.t.t.,.,.,.,.t.t.,.,.1.1.e.1.e.1.<.<.1.<.<.1.r.t.t.t.e.e.<.<.,.,.<.e.1.7.r.t.t.r.r.q.q.1.1.q.q.1.1.q.1.1.1.,.,.t.e.<.1.<.1.t.",
"t.t.<.,.t.t.r.t.t.t.e.1.<.,.,.,.,.,.8.t.8.1.1.1.q.e.1.5.1.q.<.,.5.t.5.,.<.1.1.1.r.t.P.Q.W.W.W.W.W.W.E.t.t.,.,.t.9.<.<.<.1.1.1.<.",
"t.t.,.,.t.t.t.t.t.t.e.e.<.,.,.,.,.,.8.t.e.1.q.e.1.1.1.8.q.1.<.,.5.t.5.,.<.1.e.e.e.t.P.`.`.`.`.`.`.`.W.t.8.,.<.t.t.,.<.e.e.e.<.,.",
"<.<.,.,.t.t.8.<.<.1.<.<.r.t.r.t.8.,.r.t.r.q.r.t.8.<.8.4.4.<.6.r.8.,.8.t.1.,.<.e.P.W.`.`.T.A.S.S.J.`.`.W.E.,.<.t.t.,.,.1.<.<.<.r.",
",.,.,.,.t.t.<.<.<.<.<.<.r.t.t.t.<.,.8.t.e.q.r.t.8.~.wXrX#Xz.f.+X-X/./.t.8.<.<.e.y.`.`.`.T.A.A.A.H.`.`.`.E.,.<.r.r.,.,.1.1.,.<.t.",
"1.1.1.<.1.<.<.1.r.t.8.t.4.<.4.,.1.<.1.e.1.1.<.F.-XaXsX*Xh.c.c.h.*XpXqX#X~.Y.K.e.y.`.`.`.T.A.A.A.H.`.`.`.W.1.<.<.,.,.,.<.<.r.8.<.",
"1.1.1.1.<.<.<.<.t.t.t.t.<.,.,.,.1.q.1.e.e.8.Y.wXpXiX8Xh.[.6XyX.XM. Xv.u.j.*XwX^.P.`.`.`.T.A.A.A.H.`.`.`.W.1.1.,.,.,.,.,.<.t.t.,.",
"1.1.<.<.t.r.<.<.t.t.8.,.1.1.1.1.1.e.1.1.<.U.rXsXB.d 0 g.4XsXsXpX%Xj. X6X|.j.5XrX(.3.K.`.T.T.T._.W.`.E.3.,.1.7.1.5.,.,.8.9.<.<.1.",
"e.1.,.,.t.t.1.<.t.t.<.,.<.1.1.1.e.1.1.1.4.).sXXXc..Xm.n.7XqX=X;XN.M.wXaX6Xm.j.rXrXD.t.`.`.`.`.`.`.`.R.-.:.7.7.1.1.,.<.t.t.,.,.1.",
"<.<.8.8.8.<.<.1.<.<.8.t.<.<.<.,.<.,.<.,.K.rXiXg.}.iX0XoXl.%.s s t %.;XrXiXm.j.pXsX1XF.3.3.4.3.4.3.3.4.4.<.e.1.<.<.,.,.<.8.<.1.e.",
",.,.t.9.,.,.1.1.<.,.8.t.,.,.,.,.,.,.,.,.^.aXOXg.yXtXeX=X%.G @.@.X.D l.M.k.g %XsXsXsX(.;.;.-.;.-.;.;.:.w.1.1.<.<.,.,.,.,.,.<.e.e.",
",.,.<.8.1.<.1.1.5.1.<.<.,.,.8.t.8.t.<.,.).sX%Xp.4XsXsX!.F O.0.=.+.G E Z.C.v.N.8XsXsX1Xr.<.<.,.>.3.5.5.<.<.,.<.9.8.,.,.1.1.r.r.e.",
",.,.,.,.e.1.7.e.e.1.,.,.,.,.9.t.t.t.<.,.).sXpXC.u.i.R d 5 @.0.#.o.H U eXpXyXc.oXsXsXsX^.1.q.1.,.4.t.r.3.,.,.<.t.r.,.,.1.e.t.r.e.",
"<.<.,.,.<.,.<.<.<.<.1.8.<.,.<.<.<.5.8.8.).sXsXoXu.{.XXx.F X.#.#.H F x.;XtXyXc.Z.sXsXsX1Xr.e.1.1.5.t.8.,.<.8.8.<.1.<.1.e.e.e.e.r.",
"e.1.,.,.,.,.,.,.,.,.t.t.<.,.,.,.,.,.9.t.).sXsXj.{.iXaX;X*.G X.H G E ;XeXiX$Xh.*XsXsXsXtXY.1.e.1.r.t.r.<.4.t.t.,.,.e.1.e.e.e.e.t.",
"r.r.,.,.8.8.,.,.<.1.5.<.5.<.<.1.5.1.<.<.^.sXsXa.{.iXaXtX&XY 5 5 t k.7XiX8Xm.k.iXsXsXsXsX^.<.1.1.e.t.t.r.9.t.t.1.1.r.r.r.r.<.<.<.",
"t.t.<.,.t.t.<.,.<.7.,.,.1.7.1.1.7.7.,.,.I.sXsXZ.c.6XaXsX@Xl.@X=X&XC.s.M.k.g.V.OX4XsXsXsX:X<.<.1.e.t.t.t.t.t.r.e.1.t.t.t.r.,.,.<.",
"1.8.<.<.<.8.8.8.<.<.<.1.7.7.<.<.<.<.<.<.t.tXsX0Xh.p.3X4Xv.}.sXaXsX%X$.%XN.a i { &.*XsXsX1X,.<.<.<.e.r.t.r.e.e.q.r.E.E.E.R.,.,.8.",
"<.,.1.e.,.,.r.t.<.,.1.1.1.1.<.,.,.,.<.1.e.>XsXsX&XV.g.u.g .XuXpXuXV.i..X .] [ _ ) &.uXsXrX,.,.,.<.e.r.r.r.q.q.1.t.`.`.`.Q.,.,.t.",
"8.8.<.<.<.<.t.t.8.8.5.7.<.<.8.8.,.,.<.<.1./.sXsXsXpX*X%XN.b.3X3X{.d p { ] [ ' | s d.iXsXaX,.<.8.8.<.1.1.e.e.q.q.r.`.`.`.Q.8.8.5.",
"t.t.,.,.<.<.t.t.t.t.e.1.<.,.8.t.<.,.,.<.<.Y.tXsXsXpX%XOXZ.h.u.u.0 3 3 2 ) a $.%X&X*XsXsXaX,.8.9.r.,.<.q.e.e.1.q.e.Q.`.`.Q.t.t.,.",
"8.5.8.8.5.1.7.1.t.t.1.<.1.8.8.8.<.<.5.8.P.E.rXsXuXV. .{ } ..d. Xa.) 6 9 d.G.8XsXsXsXsXsXtX<.<.8.8.8.8.<.<.1.q.q.1.K.K.t.t.8.8.,.",
",.,.8.t.7.7.<.<.t.t.7.<.t.t.<.,.1.e.r.t.E.`.2XsXZ.{ ` ( ( 6 7 k.| ] 7 B.pXsXsXsXsXsXsXsX>X1.<.,.<.t.8.,.<.q.q.1.1.-.-.-.-.,.,.<.",
"8.8.8.8.<.<.<.<.t.t.5.<.t.t.5.<.1.e.1.<.E.`.].sXN.7 a ....{ 6 p { ` | 8XsXsXsXsXsXsXaX<XI.e.1.<.8.t.t.8.5.w.1.<.<.4.,.>.>.8.8.,.",
"t.t.,.,.,.,.<.<.t.t.1.<.t.t.1.7.1.e.<.,.R.`.].sX*X&.Z.qXiX@Xh 7 [ ( d.sXsXsXsXsXsXaX:XF.1.1.1.<.<.t.t.t.r.1.1.,.,.t.9.,.,.t.t.,.",
"t.t.,.,.8.8.1.r.e.e.1.<.1.1.q.1.q.1.<.,.K.Y.'.sXsX8XiXpX8X@X..' ` 6 B.0XsXaXsXsXsXtXI.5.5.1.1.<.1.5.r.t.r.1.1.8.8.8.5.,.,.8.8.8.",
"t.t.,.,.t.t.t.t.<.<.<.<.<.<.1.1.q.1.<.,.:.~.tXiXiX+XV.M.f 9 4 6 3   e j.V.V.+XuXiXeXY.t.8.1.1.q.1.<.1.t.t.<.<.t.8.,.,.,.,.,.,.t.",
"8.8.8.8.8.8.r.8.1.<.<.<.1.1.q.q.<.1.<.<.>.>X%Xs.R u - = u y q - - 5 , *     u R s.OX>XL.t.8.5.4.<.<.5.t.r.4.1.t.t.,.,.8.8.,.,.t.",
",.,.t.t.<.<.<.<.<.<.<.<.t.t.e.q.<.,.1.5.4.,XT 1 & % , r K U U K y U r , * % % % < E wX^.t.t.r.,.<.<.8.t.r.<.1.t.t.,.,.t.9.,.,.t.",
",.,.8.8.<.1.1.r.r.e.1.<.<.e.1.1.4.5.<.1.L.8Xe : # & q e , r w - - q - * * & % . : K 8X1Xt.8.8.8.1.8.8.8.8.1.<.r.8.,.<.t.t.<.,.t.",
",.,.,.,.1.e.r.t.t.t.1.<.1.<.<.<.r.t.4.,./.9Xe P J m < < < < < : : < : : : : > M b u 8XpXU.,.<.t.t.t.r.<.<.<.<.<.<.,.<.t.t.<.<.t.",
"8.8.8.<.<.<.e.r.r.r.1.<.<.1.<.<.r.t.8.4.>X9X9 J ! Q ! ! ~ ! ~ J Z Z Z Z C V B v > e 8XsX/.8.8.8.8.r.8.1.<.1.<.1.8.<.<.r.8.1.1.8.",
"9.t.t.t.<.,.1.1.e.e.1.1.1.1.<.<.r.t.t.t.qXiXa.r > x Z J I Q J C N N N N v j + O , s.uXsX>Xt.r.<.<.<.<.<.<.<.1.t.r.1.1.<.<.<.<.<.",
"8.t.r.r.5.5.<.1.1.1.1.1.1.1.<.<.8.8.r.t.1XsXpXf O @ O O O O O O o O o o X X + o d iXsXsXeXr.8.<.,.,.<.1.1.<.<.r.r.<.1.8.1.<.<.<.",
"<.<.<.<.t.t.,.,.1.q.1.q.1.1.1.1.4.,.9.t.1XsXsXR M J n v c c c c z j j j j j k $ f sXsXsXrX8.<.<.,.,.<.1.1.<.1.<.<.,.<.t.t.<.<.<.",
"5.1.<.<.8.8.,.,.1.1.e.1.1.1.1.1.<.<.8.t.<XsXsXR M / ^ ^ I V C A N v j c l l l @ f sXsXsXrX<.<.8.<.,.<.1.1.<.<.<.<.8.4.8.8.<.<.8.",
"t.t.,.,.,.,.,.,.1.q.1.q.1.1.<.<.1.1.t.t.>XsXsXR M ^ / / ^ m L J B b + N c l l @ h sXsXsXrX,.8.t.r.,.<.e.1.1.1.,.<.t.t.<.1.<.1.t.",
"t.t.,.,.<.<.<.8.1.1.q.q.<.1.8.4.1.r.r.r.).sXsXoXm P / / ! m P ! A v O C c l j 8 $XsXsXsXtX8.8.8.5.<.<.q.1.<.<.<.1.e.e.<.<.1.<.8.",
"t.t.<.,.1.1.t.t.e.e.q.1.<.,.8.t.t.t.8.<.~.sXsX7Xr Q / / ! m P ~ A b O N c l j e pXsXsXsXrXt.8.,.<.1.1.q.1.,.<.t.r.,.,.q.1.q.1.,.",
"8.9.,.,.1.1.8.t.e.1.<.<.4.4.8.8.r.r.1.<.K.sXsX7Xr Q / / J m I ~ A n + c l l j e pXsXsXsXwXt.t.<.<.q.q.q.8.,.<.t.t.,.,.q.q.1.1.<.",
",.<.,.,.t.t.7.7.1.e.<.,.t.t.1.1.<.<.<.<.8.eXsX7Xr J / / / ~ / ~ A C N v l l j e pXsXsXsX>Xt.r.1.q.q.e.t.t.,.,.t.t.,.,.1.q.q.1.q.",
"<.,.,.<.t.t.e.7.1.1.,.,.8.8.5.<.1.8.<.8.<.>XsX9Xf M ! / / / / ~ S V n l l l x Y pXsXsXaXY.r.r.e.q.e.r.r.e.,.<.r.8.,.<.1.r.e.1.e.",
"7.7.<.<.t.t.1.<.1.e.<.,.,.,.1.e.r.t.t.t.1./.aXsXl.x Q / / / / ~ A x $ @ l l : C.sXsXsX1Xt.<.<.1.e.r.r.e.q.q.1.,.,.,.<.t.t.1.1.q.",
"1.1.<.<.r.r.1.<.<.e.<.1.,.<.<.1.t.t.r.8.<.I.aXsXM.: A Q ~ ~ ~ ! A n n v l l > Z.sXaX>XI.8.8.1.7.1.r.r.e.1.q.1.<.<.<.<.r.e.1.e.q.",
"<.<.1.<.<.<.<.<.<.<.r.t.7.1.<.<.8.t.8.<.1.t.<XsX7Xf x n A A A A C V N c x x W 9XaX/.8.<.<.t.r.e.1.<.<.1.<.1.1.q.1.1.1.1.e.q.q.1.",
"<.<.1.<.<.1.<.<.<.e.e.e.1.e.,.,.8.r.<.<.1.1.L.2XaX7Xs.w ; ; : : ; ; ; ; w s.,X1XU.8.<.<.1.r.r.1.1.<.<.1.1.1.1.q.1.e.1.1.e.1.q.q.",
"<.<.t.t.<.<.<.<.t.t.e.1.e.1.<.,.,.,.<.e.1.e.r.^.-XaXiX@X!.OXOXOXOXV.;.*.2.).<X).t.t.r.<.<.<.<.<.<.<.8.t.r.<.<.1.e.1.1.e.e.e.e.1.",
"<.<.e.r.<.<.1.<.t.t.q.1.e.e.<.,.,.<.1.q.1.e.e.e.K.F.F.t.6.F.~.^.^.L.<.,.1.r.t.t.t.t.r.<.<.<.<.1.1.<.1.r.8.1.<.1.1.1.1.1.1.1.q.1.",
"e.e.<.,.,.,.t.t.e.e.1.e.1.e.e.e.1.1.1.e.1.e.e.e.<.,.,.,.,.,.4.3.8.t.t.r.r.r.r.t.t.t.r.<.<.<.<.t.8.,.,.<.8.t.t.<.1.e.1.1.1.1.1.q.",
"1.1.<.<.,.,.t.t.1.1.1.<.e.e.1.e.1.<.1.1.<.e.e.e.<.<.,.,.,.<.,.,.5.r.t.t.r.q.e.r.t.t.r.<.<.<.<.e.8.<.<.<.<.t.8.8.1.1.<.1.1.<.1.e.",
",.,.t.t.<.<.t.t.,.,.,.,.1.e.1.q.<.,.,.,.1.e.r.t.r.1.<.,.8.t.8.,.<.1.r.t.r.q.1.<.1.t.r.e.e.e.1.,.8.t.9.,.,.<.1.t.e.<.,.,.,.,.<.e.",
",.,.r.r.,.<.r.t.,.,.,.<.<.1.1.1.,.,.,.,.1.1.r.r.8.1.4.,.8.t.<.,.1.1.8.t.r.1.1.1.e.t.e.e.e.e.<.,.,.t.8.<.<.<.<.t.e.<.<.,.,.<.<.<.",
"t.t.,.<.<.1.t.t.<.,.r.t.<.,.,.,.,.,.,.,.<.1.e.e.<.,.8.t.4.,.1.e.1.<.1.1.r.t.t.t.e.<.<.1.1.e.1.<.8.t.t.t.t.<.<.,.<.r.r.<.,.t.t.,.",
"t.t.8.,.1.q.e.e.<.<.t.t.,.,.,.,.,.,.,.,.1.<.1.1.<.<.8.t.8.,.<.1.1.<.1.1.r.r.t.t.e.<.<.e.1.e.1.<.5.t.t.t.r.<.<.<.<.t.8.,.,.r.t.,.",
"t.t.,.,.1.1.e.e.1.e.t.t.<.,.e.t.8.,.8.t.<.,.1.1.r.t.t.t.8.<.8.t.1.<.1.1.1.<.8.t.e.<.1.e.e.e.e.1.<.<.7.t.t.<.1.t.t.,.,.,.,.,.,.t.",
"t.t.,.,.1.e.e.e.1.1.r.t.<.<.r.t.<.<.8.t.8.,.1.1.r.t.t.t.1.<.8.t.8.<.1.1.1.1.8.r.e.1.1.e.e.1.1.1.7.<.1.t.r.<.5.t.t.,.,.,.,.,.<.t.",
",.,.t.t.e.e.1.1.e.e.t.t.t.t.t.t.8.1.<.,.8.t.1.<.r.t.8.1.1.1.1.<.1.1.1.1.1.<.<.1.<.<.<.1.1.e.<.,.<.<.5.t.t.<.1.t.8.,.<.t.t.,.,.t."
};
