/* XPM */
static char *result[] = {
/* columns rows colors chars-per-pixel */
"64 64 227 2 ",
"   c #030302",
".  c #0C0403",
"X  c #070A04",
"o  c #0B0C0B",
"O  c #130A09",
"+  c #0D1308",
"@  c #151906",
"#  c #0D0F12",
"$  c #111112",
"%  c #181618",
"&  c #220A0A",
"*  c #270E0A",
"=  c #380C0D",
"-  c #261809",
";  c #3A1E0B",
":  c #351416",
">  c #19290C",
",  c #2F3417",
"<  c #1B1E23",
"1  c #232324",
"2  c #29292B",
"3  c #372929",
"4  c #353435",
"5  c #3B3A3A",
"6  c #490F10",
"7  c #491415",
"8  c #461718",
"9  c #541212",
"0  c #581617",
"q  c #671818",
"w  c #6B1818",
"e  c #741A19",
"r  c #46230D",
"t  c #693D16",
"y  c #472823",
"u  c #4A2A25",
"i  c #562224",
"p  c #592325",
"a  c #5B2A2C",
"s  c #5A362F",
"d  c #67292A",
"f  c #78292A",
"g  c #63372E",
"h  c #633530",
"j  c #653932",
"k  c #693C34",
"l  c #783031",
"z  c #2D4711",
"x  c #304A17",
"c  c #375818",
"v  c #3E621C",
"b  c #3E512A",
"n  c #7C4119",
"m  c #456D1B",
"M  c #425C26",
"N  c #5F413B",
"B  c #65413B",
"V  c #476727",
"C  c #506E32",
"Z  c #373B46",
"A  c #3B4741",
"S  c #494A4E",
"D  c #585858",
"F  c #764A42",
"G  c #754E49",
"H  c #617151",
"J  c #5F5F61",
"K  c #5D626C",
"L  c #5D6578",
"P  c #626262",
"I  c #6D6D6D",
"U  c #676C78",
"Y  c #737474",
"T  c #787D74",
"R  c #7C7D7E",
"E  c #841E1F",
"W  c #8F1F1F",
"Q  c #911F1F",
"!  c #8F201F",
"~  c #91201F",
"^  c #911F20",
"/  c #882628",
"(  c #922020",
")  c #9B2323",
"_  c #902929",
"`  c #9D2B2C",
"'  c #953738",
"]  c #A02625",
"[  c #A32E2E",
"{  c #A52F31",
"}  c #A43131",
"|  c #AC3231",
" . c #AD3B3B",
".. c #B13535",
"X. c #B93C3C",
"o. c #87471A",
"O. c #BE413F",
"+. c #E47929",
"@. c #9D3F41",
"#. c #81544D",
"$. c #855851",
"%. c #855952",
"&. c #BE4141",
"*. c #A65655",
"=. c #8B6D4F",
"-. c #966C66",
";. c #A67D76",
":. c #C34342",
">. c #C84646",
",. c #CD4C4B",
"<. c #D1504F",
"1. c #D65454",
"2. c #D95555",
"3. c #DA585A",
"4. c #E3595C",
"5. c #568823",
"6. c #5D9B22",
"7. c #66A628",
"8. c #72AA3B",
"9. c #76B936",
"0. c #7EC33B",
"q. c #7E807F",
"w. c #E5822B",
"e. c #EB9A35",
"r. c #EEA337",
"t. c #F2AC3C",
"y. c #F4B63F",
"u. c #9C827C",
"i. c #F7B540",
"p. c #D2B976",
"a. c #89CE46",
"s. c #96E14D",
"d. c #A1F554",
"f. c #97CE66",
"g. c #99CF66",
"h. c #9CD068",
"j. c #A9C96C",
"k. c #A7D569",
"l. c #AEDC6C",
"z. c #B4DD6C",
"x. c #BEDF6D",
"c. c #B5DE71",
"v. c #BADF71",
"b. c #BCE174",
"n. c #BCE17A",
"m. c #FDCB47",
"M. c #FECB48",
"N. c #C0DF6F",
"B. c #C0E06F",
"V. c #C1E275",
"C. c #CBE476",
"Z. c #C5E47A",
"A. c #737887",
"S. c #7F8EAB",
"D. c #888888",
"F. c #938F8C",
"G. c #969797",
"H. c #9D9D9C",
"J. c #AB9792",
"K. c #A7A19E",
"L. c #818FAB",
"P. c #8594B1",
"I. c #A7A8A7",
"U. c #B0AFAF",
"Y. c #B8B8B8",
"T. c #CEBA8B",
"R. c #EAB489",
"E. c #BAD684",
"W. c #C9DE9D",
"Q. c #EFC78D",
"!. c #F3D890",
"~. c #C4E48C",
"^. c #C9E588",
"/. c #D7EA87",
"(. c #DFEC87",
"). c #C8E694",
"_. c #EFEA95",
"`. c #ECF295",
"'. c #F4F69B",
"]. c #D3C9AA",
"[. c #EFDEAA",
"{. c #CEE7A4",
"}. c #D5EBA8",
"|. c #DDEFB2",
" X c #D9EEB6",
".X c #DFF0B8",
"XX c #FFFAA2",
"oX c #FFFAA8",
"OX c #F0E7B0",
"+X c #E3F1B7",
"@X c #8FA0C1",
"#X c #96A6C6",
"$X c #A4B7DB",
"%X c #B0BDD8",
"&X c #AABCE4",
"*X c #BCC8DA",
"=X c #B5C7E8",
"-X c #B6CBF5",
";X c #B8CEF6",
":X c #B8CCF8",
">X c #C6C5C5",
",X c #D1D3CC",
"<X c #D4D4D4",
"1X c #DDDDDC",
"2X c #E0DFDE",
"3X c #F8EBCA",
"4X c #E4F3CA",
"5X c #F2EDD4",
"6X c #E9F5D3",
"7X c #F8F3DA",
"8X c #C7D7EA",
"9X c #C7D9F6",
"0X c #CBE1FB",
"qX c #D6E3F7",
"wX c #E5E6E5",
"eX c #E9E9E7",
"rX c #ECEDEC",
"tX c #EFF8E3",
"yX c #FAF7E7",
"uX c #F2F9E4",
"iX c #F5FBEB",
"pX c #EBF1F8",
"aX c #F3F4F3",
"sX c #F6F7F7",
"dX c #F7FAF4",
"fX c #FAFBF5",
"gX c #FEFEFD",
/* pixels */
"x.x.l.z.Z.Z.l.l.x.x.x.B.V.Z.x.x.x.N.N.x.B.C.v.z.V.^.b.z.z.l.v.).N.N.z.l.l.l.z.x.z.l.c.Z.b.l.b.Z.Z.Z.V.z.x.z.z.z.z.z.z.Z.Z.z.z.Z.",
"V.V.b.b.b.c.z.z.x.x.z.z.v.b.x.B.B.x.x.N.x.x.4XfXiXgXfX|.|.dXgXtXV.N.iXn.c.b.c.z.c.b.b.c.b.b.x.V.b.b.v.z.z.z.z.V.x.z.z.B.x.c.z.V.",
"Z.Z.Z.Z.l.l.x.x.N.B.l.l.l.l.x.x.N.N.N.N.z.^.4XgXgXsX1X4 4 4 G.gXfXuXgX~.v.Z.b.l.c.Z.b.l.c.Z.b.z.z.z.z.z.z.z.x.V.V.B.x.z.z.z.z.z.",
"b.b.b.v.b.b.z.z.z.z.x.b.l.l.x.B.x.N.x.^.6XgXgXgXgXeXZ %X&X&XU G.fXgXgXsXsX4X}.).^.Z.b.l.z.b.c.z.x.x.x.x.z.z.v.x.b.z.z.V.x.x.x.z.",
"z.z.z.z.Z.Z.l.l.l.l.V.V.z.l.z.B.x.B.}.fXgXgXgXgXgX% -X9XfXqX:XL H.fXrX1 $ % aXgXfX+Xb.z.l.z.z.x.x.x.B.x.x.z.z.z.z.l.c.Z.V.z.z.z.",
"b.x.b.b.b.b.l.l.b.b.b.x.z.z.x.N.x.|.gXgXgXeXwXwXwX% 9XgXgXgXfXfXI I.4 -X:X:X1 rXgXgX6Xz.z.z.z.N.B.x.B.B.x.x.x.l.z.b.b.B.b.z.z.V.",
"Z.Z.Z.Z.z.l.l.l.V.Z.z.l.x.N.N.N.^.gXgXgXrX# # #   0XgXgXgXgXgXgXaXD <XgXgX-X=X4 aXgXgX+XN.N.V.x.x.B.x.B.x.B.x.l.l.Z.V.z.z.z.z.Z.",
"Z.Z.b.b.b.b.c.b.Z.Z.z.z.z.z.z.z.6XgXgXdX< -X9X8Xo pXsXgXyX7XgXfXJ U.gXfXgXgX:X#XS gXgXfX+X(.(.(.(.(.C.C.x.z.z.v.b.b.v.x.x.z.x.V.",
"Z.Z.l.l.Z.Z.Z.C.Z.Z.x.B.z.l.l.z.fXgXgX4 &X:XfXgXgXX sXsX3X[.yXsXJ U.fX3XgXgXdX#XD fXgXgXgXoXXXoXXXXX'.Z.V.l.c.Z.b.l.z.x.x.x.x.l.",
"b.b.l.l.Z.Z.V.V.V.V.x.x.c.v.c.4XgXgXeXS %XdXfXfXdXpXs K.@ - - @ & H.3X3XfXfXrXP.I sXgXgXgXyX!.!._.XX'.(./.l.c.Z.V.l.z.B.x.z.z.v.",
"l.l.z.l.Z.Z.z.z.z.z.z.z.Z.Z.Z.uXgXgXI @XpXgX7X7X3X7XJ.t r.m.m.r.+.r T.].%XY.U.5 gXgXgXgXgXgXR.R.Q.XXXXXX`.l.c.Z.n.l.l.B.z.l.z.V.",
"z.z.z.z.V.V.z.z.b.b.x.b.b.b.b.fXgXgXY P.sXgXgXgX7XQ.- r.m.m.M.m.e.n D.K P P D K Y.gXgXgXgXgX7XR.Q.XX'.'.`.z.c.x.b.l.l.z.z.b.b.b.",
"x.x.x.x.z.z.z.x.Z.Z.Z.Z.l.l.l.fXgXgXY.A.8XsXgXfXgXOX- t.M.M.i.i.r.+.- rXfXgXdX*XA.U.gXgXgXgXgXR.Q.XXXXXX`.B.x.l.l.l.l.l.z.Z.V.l.",
"x.x.z.z.b.x.z.z.Z.Z.b.b.c.z.c.fXgXgXsXI.U Y Y Y Y I - t.M.M.i.e.e.w.* [.sXgXgXpXL.I gXgXgXgXgX3X!.XXXX/.C.x.x.z.l.l.l.b.b.b.b.c.",
"B.x.z.z.Z.Z.z.z.Z.Z.l.l.x.B.x.fXgXgXgXgX1 L D.D.D.q.- t.M.M.y.r.w.o.=.[.yXyXgXpXS.I gXgXgXgXgXgXXXXX/.f.k.B.B.B.z.l.c.Z.V.l.l.x.",
"x.z.c.c.b.V.z.v.b.V.v.v.z.z.v.fXgXgXgXD.A.qXgXgXfXOX=.o.e.t.e.+.w.r ].7X3X3XgXpXL.I gXgXgXgXgXgX+X/.^.k.k.B.B.z.z.l.l.b.b.z.z.x.",
"l.l.Z.Z.l.l.x.x.l.l.V.Z.z.l.l.iXgXgXgX5 $XsXgXgXgXOXp.r +.+.w.+.o.u.rXgXiXiXsX%XU >XgXgXgXgXgXgXdXf.k.v.x.B.z.z.l.l.l.l.l.x.B.B.",
"l.l.b.x.z.z.x.B.z.z.x.n.z.l.b.uXgXgXgX5 $XsXgXfX7XyX5XF.; r ; r O U.fXgXgXgXaX#XD gXgXgXgXgXgXgXgXk.l.z.z.z.z.v.c.l.l.z.z.B.B.x.",
"l.l.l.l.B.B.B.x.x.B.z.l.l.l.Z.tXgXgXgX5 $X;XgXgXfXgXsXY.D ].p.].<XD 1XsXgXsX%XS 1XsXgXgXgXgXgXgXgX).v.c.l.l.b.Z.b.l.z.x.B.Z.V.B.",
"l.z.l.l.x.z.x.z.v.z.c.c.l.l.b.6XgXgXgXaX4 =XsXgXgXgX<XS aXsX7XyXgXaX4 $ $ $ 2 rXrXrXaXsXgXgXgXgXgX.Xv.l.l.z.b.n.b.z.z.x.B.V.V.B.",
"B.z.l.l.l.l.l.l.l.l.V.Z.l.l.l.{.gXgXgXgX1 =X-XsXsXsX<XS gXgXyXyXgXgX4 sXgXgXeXX X X X Y sXgXgXgXgXuXb.l.z.Z.b.l.z.x.x.x.B.B.B.V.",
"B.x.l.l.z.z.l.l.l.z.b.V.c.z.z.c.gXgXgXgXgXX # :X-X=X< 0XgXgXgXgXgXsX2 rXfXfX+ s.9.d.d.C D.gXgXgXgXgXZ.z.b.Z.V.z.z.V.B.x.B.x.x.V.",
"Z.Z.l.l.Z.Z.l.l.x.x.l.l.v.x.x.x.uXgXgXgXgXsXrXo $ % 4 ;XsXfXgXgXdX=X2 rXaXo 7.9.s.9.5.0.V H.gXgXgXgX^.Z.Z.Z.V.B.x.Z.C.Z.b.l.l.l.",
"V.V.z.c.V.b.z.c.x.z.z.z.x.x.v.x.4XgXgXgXgXgXgXgXgXgX<XZ :X9XpX0X$XA @ >X+ 7.s.a.9.M 4 M b U.gXgXgXgXZ.Z.Z.Z.V.x.B./././.^.l.l.b.",
"l.l.x.z.l.l.C.Z.l.l.z.B.B.B.z.l.~.gXgXgXgXgXgXgXgXsX1XK S.P.S.P.Z m 6.X 6.a.0.m C G.gXI.I.gXgXgXgXgXC.Z.B.x.x.B.C.XXXXXX'.l.l.Z.",
"c.c.x.x.l.z.Z.Z.c.c.x.B.x.x.z.l.l.iXgXgXgXgXsXF.G.G.H.,XI I I I 2 5.6.X v c M I G.gXgXgXgXgXgXgXgXgXV.V.B.B.B.x.C.XXXXXX'.c.c.V.",
"Z.Z.l.l.z.z.Z.Z.Z.Z.x.B.l.l.C.Z.z.6XgXgXgXfXD.V V V C D.D.>XgXgXP 8.7.X Y I R fXgXgXgXgXgXgXgXgXgXgXz.B.B.B.B.B.C.XXXXXX'.Z.Z.l.",
"V.b.z.z.z.z.Z.C.Z.C.x.x.l.l.n.n.c.).gXgXgXD.V a.0.0.8.c V H >XY.H a.7.  gXgXgXgXgXgXgXgXgXgXgXgXgXiXz.x.x.B.B.B.V.`.`.`.`.Z.b.l.",
"l.l.Z.Z.z.B.x.z.Z.Z.x.z.C.Z.l.l.z.x.iXgXfX$ 9.6.z z z m 9.v A.T 6.0.c D.gXgXgXgXgXgXgXgXgXgXgXgXgX/.n.l.z.x.x.B.z.f.g.g.f.l.l.z.",
"l.c.Z.Z.x.x.z.z.C.Z.z.z.Z.Z.z.z.x.x.4XgXfXo 6.x H.G.G.T , c C H a.9.@ rXgXgXgXgXgXgXgXgXgXgXgXfX{.Z.b.c.c.x.x.z.z.h.h.h.h.l.z.z.",
"Z.Z.l.l.l.l.z.z.Z.Z.c.z.Z.Z.x.B.x.x.}.gXsXI.x U.gXgXsXwXI.H x 8.0.7.@ rXgXgXgXgXgXgXgXgXgXgX7Xc.b.Z.Z.Z.C.x.z.l.z.Z.n.l.l.Z.V.l.",
"Z.Z.l.l.z.l.z.z.b.Z.z.z.V.Z.x.x.N.N. XgXgXsX>XgXgXgXgXgXdXD.V s.9.z I.sXgXgXgXgXgXgXgXgXgXfXz.z.v.Z.Z.Z.V.x.x.l.c.V.b.l.c.Z.b.c.",
"Z.Z.l.l.Z.Z.Z.Z.z.x.z.z.x.z.x.N.^.|.uXgXgXgXgXgXgXfXfXfXK.C s.9.6.> ,XsXgXgXgXgXgXgXgXgXgX4Xz.B.x.z.x.Z.Z.z.v.Z.V.z.l.l.l.l.c.Z.",
"Z.V.l.c.Z.Z.Z.V.z.z.z.z.z.z.x.N.4XgXgXgXgXgXsXsXgXaX  . X x 6.7.,     X fXgXsXgXgXgXgXgXgXiXv.x.x.z.x.Z.V.z.v.Z.V.l.l.l.l.l.c.Z.",
"l.l.Z.Z.v.z.z.x.z.z.z.x.V.V.N.x.uXgXgXgXgXsXo o o o k #.s :   X 3 j g j o o o o D gXgXgXgXgX}.l.z.z.v.Z.Z.z.x.Z.Z.l.c.Z.Z.l.l.Z.",
"l.l.Z.C.z.z.z.z.z.x.z.z.V.Z.N.x.fXgXY $ $ % 4.3.  k J.-.u.G %.%.B F %.k h h   : @.$ $ # F.gXdXl.z.z.b.Z.V.z.x.Z.b.l.l.Z.b.l.z.Z.",
"l.l.l.l.x.B.B.Z.C.Z.z.z.z.z.z.~.gXT l 1.1.. . O j $.$.%.$.-.-.F $.u.-.k h j h u . 7 | &.d H.fX|.Z.Z.V.z.z.z.z.z.z.l.c.C.Z.z.v.Z.",
"l.l.l.z.N.x.C.Z.Z.Z.x.z.z.z.z.+XgXY l : . s j %.J.#.#.#.;.$.F F $.$.#.j %.h h j h 3 . f a I.fXfXZ.Z.V.z.z.z.z.z.z.l.l.V.Z.z.z.Z.",
"Z.Z.Z.Z.l.l.x.B.N.x.B.B.x.x.z.uXgXY l d 8 y y N N y i B N s y y u h u u y y y y y 8 y / i H.gXgX~.z.z.x.x.z.x.Z.V.x.x.x.z.x.z.z.",
"Z.Z.Z.Z.l.l.N.x.N.N.x.N.x.x.z.fXgXY f 2.2.2.p i i i i i i i i i i i i p i i i p l >.,.| 6 H.gXgXuXz.z.z.z.z.x.Z.Z.x.B.z.z.z.z.z.",
"c.z.z.z.Z.Z.z.l.x.N.x.N.x.x.^.gXgXY d <.2.2.2.2.2.2.2.2.2.2.<.>.>.>.>.>.>.>.>.>.X.` ] ) 6 G.gXgXgXl.z.N.B.z.z.z.z.l.z.Z.V.z.z.z.",
"z.z.z.z.Z.Z.l.l.x.x.N.x.x.N.|.gXgXY * ..>.:.>.2.2.2.2.2.2.2.:.| | | | | | | ` ) ` ^ ) w * H.gXgXgX^.z.B.x.z.z.z.z.l.c.Z.Z.z.z.z.",
"C.Z.l.l.l.l.l.l.x.x.N.N.x.x.}.gXgXY.S.g 0 0 q :.:.:.:.:.>.:.X.| | | | | | | W E 6 6 6 G A.,XgXgXgX4Xl.B.B.x.x.l.z.Z.b.z.z.z.z.Z.",
"Z.Z.l.l.l.l.l.l.x.B.x.x.x.x.|.fXgXgXyX4 7 0 0 7 7 7 7 7 7 7 7 7 7 7 7 7 7 7 = 7 0 0 * R gXgXgXgXgXfXz.B.x.B.z.l.z.Z.Z.c.z.z.x.Z.",
"Z.Z.l.l.x.x.V.Z.N.N.x.N.z.l.+XgXgXgXgX5 _ ` [ q w w w w w w w q q q q q w w w e ^ ^ 6 R gXgXgXgXgXgXB.B.x.l.c.Z.B.l.z.x.B.B.x.l.",
"Z.Z.l.l.x.B.Z.Z.x.N.B.x.l.l..XgXgXgXgX5 ` <.,.[ { [ [ [ [ [ ` ! ~ ~ ! ! Q ~ Q Q ^ ^ 9 R gXgXgXgXgXgXB.x.z.l.z.Z.B.l.z.x.B.B.x.l.",
"l.c.l.z.Z.V.B.B.B.x.l.z.n.Z.}.gXgXgXgX5 ` 1.1.1.<.1.,.{ | | | } | | ) ! ~ Q ~ Q ^ Q 9 R gXgXgXgXgXgXV.V.b.z.c.Z.V.z.l.x.N.N.x.x.",
"l.l.l.z.Z.Z.x.B.x.x.l.l.Z.Z.).gXgXgXgXZ _ 1.1.1.1.1.1. .p 2.:.} | | & [ Q Q Q Q ^ Q 6 R gXgXgXgXgXgXV.Z.b.l.c.Z.V.l.l.N.x.x.N.x.",
"z.x.z.z.Z.Z.v.z.B.B.l.l.z.l.Z.gXgXgXgX4 [ | 1.1.1.1.1.' p 2.:.| | | O [ | Q Q Q Q Q 7 Y gXgXgXgXgXgXZ.B.N.x.z.l.l.l.l.C.V.B.B.B.",
"B.x.l.x.Z.C.z.z.x.B.l.c.l.l.v.gXgXgXgXpX2 } 2.1.1.2.,.*.p 2.2.O.| | & } | Q Q ^ Q 0 I aXgXgXgXgXgXgXZ.x.x.N.x.l.l.l.z.V.V.B.B.B.",
"x.z.z.x.z.z.z.z.x.z.B.V.x.z.z.iXgXgXgXgX1 } 2.1.1.2.<.' p 2.1.&.| | & [ | ( Q Q Q 0 I gXgXgXgXgXgXgXz.z.z.x.x.x.x.x.x.B.N.x.x.B.",
"z.z.z.z.x.x.z.z.z.z.V.Z.B.x.z.uXgXgXgXgX1 } 2.2.1.2.1.@.p 2.2.&.| | & ` | ( Q Q Q 9 I gXgXgXgXgXgXgXx.z.x.N.x.B.N.x.x.x.N.N.B.x.",
"z.z.V.V.v.z.z.z.V.V.B.B.x.N.z.4XgXgXgXgX1 } 1.1.2.<.| _ d 3.2.&.| | = ( ( ( W Q Q 9 I gXgXgXgXgXgXfXb.V.b.v.x.B.x.B.x.x.x.x.x.x.",
"l.x.C.V.z.z.z.c.Z.V.x.B.B.x.l.{.gXgXgXgX1 } 1.1.2.1.1.2.2.2.2.&.| | | | ^ Q Q Q Q 9 I gXgXgXgXgXgX4Xx.V.V.z.z.B.B.B.x.B.N.N.x.B.",
"x.x.z.l.z.z.V.V.B.B.N.x.x.N.z.b.gXgXgXgX1 } ,.1.1.1.2.1.2.1.2.&.| | | | ( Q ^ Q ^ 9 I gXgXgXgXgXgX~.l.v.b.V.V.z.x.x.x.x.x.x.x.x.",
"x.x.l.l.l.l.Z.Z.B.B.N.x.N.N.B.B.uXgXgXgXJ f | 2.1.1.1.1.1.1.2.&.| | ..f ( Q ^ ^ E a G.gXgXgXgXgXfXz.l.z.v.Z.V.z.x.x.x.x.x.x.x.x.",
"z.c.V.b.l.z.Z.Z.z.z.z.z.z.x.B.N.4XfXgXgXsX$ ..2.1.1.1.1.1.2.2.O.| / f : Q Q Q Q q I gXgXgXgXgXgX}.n.b.z.z.v.x.V.B.z.z.l.z.z.l.x.",
"l.l.Z.Z.l.z.Z.Z.z.l.l.l.x.B.B.x.~.gXgXgXsX$ ..X.2.1.2.2.1.1.1.:.| / e } Q Q ( Q q I gXgXgXgXgXuXz.Z.b.l.l.z.b.Z.B.z.l.l.l.l.z.x.",
"b.b.c.z.z.z.V.Z.l.l.b.b.z.z.l.z.l.dXgXgXsX$ ) | ..X.2.2.1.2.2.O.| } | | Q Q Q W q I gXgXgXgX}.z.v.Z.Z.b.x.z.z.c.x.b.b.l.c.b.b.z.",
"Z.Z.l.z.B.B.C.V.l.l.Z.Z.z.l.l.l.l.6XgXgXgX1X. ] ^ ..............| | | ) ( Q ~ ) *.rXgXgXiXV.x.z.b.Z.Z.Z.Z.z.z.l.l.C.V.l.l.Z.V.l.",
"Z.Z.l.l.x.N.B.B.x.z.Z.Z.z.l.b.b.l.l.iXgXgXsX1X. . ) ^ ] ^ ] ^ ) ) ] ) ^ ) )   4 fXgXgX|.B.x.x.x.x.z.x.Z.V.v.v.V.b.c.b.l.l.c.b.b.",
"Z.Z.l.l.B.x.N.N.B.B.Z.Z.l.l.V.Z.z.z.^.fXgXgXgXeXeXO . . . . . O . . . . . . wXrXfXgX).N.x.x.x.x.x.z.x.Z.V.z.v.V.b.l.l.l.l.l.l.Z.",
"c.b.b.b.x.N.B.x.x.B.Z.Z.Z.b.Z.Z.x.z.~..X).gXgXgXfX2X2X2X2X2X2X2X2X,XE.j.j.j.V.iX6X4X+Xx.x.B.x.z.z.z.b.Z.n.z.x.Z.n.l.l.b.b.l.l.Z.",
"l.l.Z.Z.N.N.x.N.B.x.Z.Z.Z.Z.Z.Z.V.v.l.c.^.gXW.{.^.^.^.W.6XgXgXgXfX5XC.N.z.z.z.~.~.x.v.B.x.B.z.l.z.z.b.Z.Z.z.c.Z.Z.l.l.Z.Z.l.c.Z."
};
