/* XPM */
static char *_9d3c25be66a4e7bc4b7e0e1d069a608NOsCuzykF72pPLfF[] = {
/* columns rows colors chars-per-pixel */
"64 64 199 2 ",
"   c #6A0E17",
".  c #720B16",
"X  c #78101F",
"o  c #7A1526",
"O  c #6F494E",
"+  c #8A1729",
"@  c #99172D",
"#  c #8F1E30",
"$  c #A2172F",
"%  c #A31A31",
"&  c #AA1B33",
"*  c #BA1B36",
"=  c #B81C37",
"-  c #9D2B3D",
";  c #823139",
":  c #A92439",
">  c #AD243A",
",  c #B4233B",
"<  c #B9283F",
"1  c #C21F3A",
"2  c #C5213D",
"3  c #C6243C",
"4  c #C93D3E",
"5  c #D14D35",
"6  c #DE6B3B",
"7  c #902F42",
"8  c #8B3C47",
"9  c #9B3748",
"0  c #B72C44",
"q  c #A93649",
"w  c #A9364A",
"e  c #B8314A",
"r  c #B93850",
"t  c #C32741",
"y  c #CC2642",
"u  c #C52942",
"i  c #CB2944",
"p  c #CE2B48",
"a  c #D32844",
"s  c #D52A46",
"d  c #D62D49",
"f  c #DC2E4B",
"g  c #C2324A",
"h  c #CF344D",
"j  c #D53446",
"k  c #D6324E",
"l  c #DD314D",
"z  c #DD394A",
"x  c #C53C55",
"c  c #D43B55",
"v  c #E1314E",
"b  c #E13C49",
"n  c #E43552",
"m  c #E63856",
"M  c #E63A59",
"N  c #E93D5B",
"B  c #98434D",
"V  c #994855",
"C  c #8B515A",
"Z  c #AC4959",
"A  c #B65454",
"S  c #9B5964",
"D  c #BD4C62",
"F  c #A65D69",
"G  c #B35766",
"H  c #97747A",
"J  c #A96C76",
"K  c #B26574",
"L  c #B3737C",
"P  c #C5455D",
"I  c #E05A47",
"U  c #E9405E",
"Y  c #C86643",
"T  c #DB6E43",
"R  c #E57D41",
"E  c #C94D65",
"W  c #DA4461",
"Q  c #D24B64",
"!  c #C75972",
"~  c #DB5B75",
"^  c #E04360",
"/  c #ED4362",
"(  c #F24B6B",
")  c #E75674",
"_  c #ED5C7B",
"`  c #F65173",
"'  c #F95677",
"]  c #FA5778",
"[  c #F45A7A",
"{  c #FD5C7E",
"}  c #C66778",
"|  c #D4677E",
" . c #DA814A",
".. c #97CE66",
"X. c #98CF66",
"o. c #9DD167",
"O. c #A1D267",
"+. c #A3D36B",
"@. c #AAD66D",
"#. c #AEDC6C",
"$. c #B5DD6C",
"%. c #BDDF6D",
"&. c #B3CF74",
"*. c #B6DF71",
"=. c #B9DF71",
"-. c #BADE78",
";. c #BCE174",
":. c #B7E07D",
">. c #BDE17A",
",. c #C0DF6F",
"<. c #C0DF70",
"1. c #C0E06F",
"2. c #C1E275",
"3. c #C5E57A",
"4. c #CDE77F",
"5. c #AF7782",
"6. c #B97B87",
"7. c #FD5F80",
"8. c #C47382",
"9. c #FC6283",
"0. c #F76987",
"q. c #FB6D8A",
"w. c #FA738E",
"e. c #ED7D95",
"r. c #F97792",
"t. c #FA7692",
"y. c #F97F98",
"u. c #B7848C",
"i. c #B18D94",
"p. c #BD8A93",
"a. c #ACA1A3",
"s. c #B6A7A9",
"d. c #F7859C",
"f. c #E9B184",
"g. c #C49BA3",
"h. c #FA8CA2",
"j. c #F094A6",
"k. c #C7A6AB",
"l. c #C5ADB0",
"z. c #C9B9B7",
"x. c #D3BCBC",
"c. c #F8A2B3",
"v. c #BED184",
"b. c #BCE282",
"n. c #EFC78D",
"m. c #F6DE96",
"M. c #C9E684",
"N. c #C8E685",
"B. c #C4E28A",
"V. c #CCE68C",
"C. c #D1E983",
"Z. c #DBEA84",
"A. c #DDEC8E",
"S. c #C7E691",
"D. c #CEE694",
"F. c #CDE89D",
"G. c #D1E99B",
"H. c #E5EF91",
"J. c #F3F499",
"K. c #CFEAA8",
"L. c #D5ECA4",
"P. c #D3EBAC",
"I. c #DAEEAE",
"U. c #DAEEB2",
"Y. c #D9ECB4",
"T. c #FDF5A0",
"R. c #FFFAA2",
"E. c #E2F1BE",
"W. c #D6BEC3",
"Q. c #FABBC6",
"!. c #CEC7C6",
"~. c #D8C3C5",
"^. c #D3CCCC",
"/. c #DDCCCD",
"(. c #DCD7D6",
"). c #DBDBD7",
"_. c #DBDBD9",
"`. c #FBC3CD",
"'. c #E2D9D8",
"]. c #FAD4DA",
"[. c #E4F2C5",
"{. c #E3F2CC",
"}. c #E9F4CD",
"|. c #E2E1DE",
" X c #E6ECD8",
".X c #EBF5D4",
"XX c #EDF5DA",
"oX c #ECF7DB",
"OX c #F0F8DE",
"+X c #E9E5E3",
"@X c #E9ECE5",
"#X c #EDEAEA",
"$X c #F2F8E3",
"%X c #F1F2EF",
"&X c #F5FAEB",
"*X c #F4F4F3",
"=X c #F7F9F4",
"-X c #FAFDF4",
";X c #FDFEFC",
/* pixels */
"%.$.#.;.3.;.#.$.%.%.%.;.3.2.%.%.,.,.%.1.3.2.$.%.3.3.$.$.#.#.3.3.%.%.#.#.#.#.%.%.#.#.3.3.#.#.3.3.3.3.%.$.$.$.$.%.#.#.2.3.;.$.2.3.",
"2.;.;.;.;.$.$.%.%.%.$.;.;.%.1.1.%.,.1.%.;.%.$.$.;.;.;.;.;.;.;.;.%.%.#.#.;.;.$.$.;.;.;.;.;.;.;.;.2.;.$.$.$.$.;.;.$.$.%.;.%.$.;.;.",
"3.3.3.*.#.$.%.%.%.$.#.#.#.$.%.1.%.1.%.%.$.$.$.%.$.%.3.3.3.;.#.#.%.%.#.$.3.>.#.#.3.3.#.#.3.>.$.$.$.$.$.%.$.%.2.3.1.%.$.$.$.$.$.$.",
"2.;.;.;.;.;.$.$.$.%.;.$.#.$.%.1.,.1.%.%.2.%.$.$.$.%.%.2.;.;.;.;.$.$.$.$.;.;.;.%.3.3.#.#.;.;.%.$.%.%.$.%.$.$.%.%.$.%.%.;.$.%.$.$.",
"$.$.$.;.3.;.#.#.#.%.3.%.#.$.%.%.,.%.,.1.3.2.$.$.$.$.%.$.$.%.3.3.#.$.%.%.#.#.3.3.3.3.$.#.#.$.%.%.%.%.1.1.%.$.%.$.#.#.2.3.%.%.$.$.",
"%.;.;.;.;.$.#.#.;.;.%.$.$.%.1.1.%.%.%.%.2.;.$.%.;.;.;.1.$.%.;.$.#.#.,.%.$.$.3.3.3.3.$.$.$.$.%.1.1.%.1.1.%.%.$.#.;.;.;.;.$.$.;.%.",
"3.3.3.;.#.#.#.;.3.;.$.$.,.,.%.1.,.%.$.$.$.$.$.$.3.3.3.2.%.%.#.#.#.#.%.%.1.%.3.3.3.3.1.%.%.%.%.%.%.1.1.1.,.1.$.#.;.3.$.$.$.$.;.3.",
"3.2.;.;.;.*.*.>.3.;.$.$.$.$.$.$.%.$.;.$.%.%.%.%.2.2.2.2.%.%.#.#.$.%.$.%.1.1.2.3.3.3.Z.Z.Z.Z.Z.A.4.Z.2.1.$.$.%.$.;.;.%.$.%.%.;.;.",
">.;.#.;.3.3.3.3.3.;.%.$.#.#.#.#.#.$.3.2.%.%.1.%.,.%.%.,.,.$.#.$.3.2.#.$.%.,.%.,.3.3.R.R.R.R.R.R.R.R.M.3.#.#.3.3.$.#.%.%.%.%.$.#.",
";.;.#.;.3.2.2.2.2.;.%.%.;.;.;.#.#.;.3.2.1.1.1.2.$.%.$.$.%.$.$.$.;.;.$.;.$.%.,.,.Z.Z.R.R.m.m.m.m.R.R.A.Z.$.#.3.3.#.#.%.%.%.$.;.$.",
"#.#.#.;.3.;.$.$.$.$.$.;.3.3.>.;.#.%.3.2.%.2.3.;.$.#.#.#.#.$.%.%.#.$.3.>.#.#.1.1.R.R.R.R.f.f.f.f.J.R.R.R.;.#.2.3.;.#.$.%.#.#.;.3.",
"$.$.$.;.2.%.$.%.%.;.%.;.;.;.;.*.$.%.2.1.1.%.;.;.*.$.*.$.#.#.%.%.#.$.3.3.;.$.1.1.R.R.R.R.f.f.f.f.R.R.R.R.;.$.%.;.#.#.$.$.;.;.;.;.",
"=.%.%.%.$.$.$.2.3.3.3.;.#.#.#.$.%.1.,.,.,.$.#.*.3.3.3.2.$.$.%.%.$.$.3.3.3.3.%.2.R.R.R.R.f.f.f.f.T.R.R.R.2.1.#.#.#.#.#.#.;.3.;.#.",
"%.%.$.%.=.%.$.;.3.2.;.;.$.$.$.$.,.1.%.%.%.$.*.;.;.2.;.>.$.$.%.%.$.%.2.;.3.3.%.%.A.A.R.R.n.n.n.n.T.R.H.A.2.%.%.#.#.#.#.;.;.;.$.#.",
"%.$.#.;.3.;.$.;.3.;.#.$.%.%.%.%.%.%.1.$.#.$.3.>.#.#.#.*.3.3.,.,.%.%.$.%.3.3.$.$.X...R.R.R.R.R.R.R.R.+...%.%.1.%.#.#.;.3.$.#.$.%.",
"%.*.*.;.;.=.%.;.>.;.*.$.%.$.%.%.%.%.$.$.*.=.>.>.*.*.*.;.3.3.%.%.%.%.$.$.3.3.%.$.@.+.A.A.A.A.A.A.A.A.@.+.%.%.%.$.#.#.;.;.;.$.%.%.",
"#.;.3.*.#.$.%.$.#.;.2.;.#.#.#.#.#.#.#.;.3.I..Xs._.;X=X&X$X.X[.D.#.$.$.%.3.3.$.$.3.3.................$.<.%.2.$.#.#.#.#.#.%.%.1.,.",
"#.;.2.*.$.%.1.$.$.*.>.=.#.#.*.*.*.#.#.;.[.=Xu.h 0 K p.6.F K l.*XOXB.$.%.3.3.$.$.2.2.O.O.O.o.o.o.+.+.$.$.$.$.$.$.#.#.$.$.$.1.,.%.",
"#.#.#.$.1.%.%.1.%.$.#.#.#.;.3.3.3.;.#.b.-X/.q l f s v m ( { ~ W.;XoXM.3.$.$.$.$.%.$.,.,.%.,.#.#.3.3.$.$.#.#.2.3.$.#.$.1.3.3.1.,.",
"#.#.#.$.%.$.%.%.%.$.*.#.#.*.>.;.2.;.*.I.;Xg.3 n n n ] 7.t.].j.g.;X-XL.G..X$X$XOX}.I.,.,.%.,.$.$.3.3.$.#.$.*.>.;.$.$.$.1.1.3.1.1.",
"%.$.#.#.#.#.#.#.#.=.3.;.#.#.#.#.#.$.3.E.;Xu.p ` ' ( 7.q.h.h.0.F +X-X[.{.#XW.x././.x.z.D.,.,.%.,.2.3.$.#.2.3.$.$.%.%.%.%.1.%.2.3.",
"%.$.#.#.$.#.#.#.$.=.2.;.$.#.$.#.$.;.>.I.;Xp.c { 7.7.7.9.r.7._ e x ~.;X'.} d.q.U l l G *X[.%.%.,.2.M.*.*.3.3.$.$.%.1.2.%.%.%.2.2.",
"3.;.#.;.3.*.#.$.%.$.#.$.%.%.%.%.%.$.#.S.-Xk.W 7.7.] 9.7.{ ' [ g v } z.8.w.Q.h.9.] U j k.;XoX3.%.3.3.3.3.3.3.;.=.3.3.3.3.$.#.#.#.",
"2.*.$.;.2.=.$.$.%.$.#.%.%.%.%.%.%.$.$.>.&X(.D { 7.7.7.7.{ N f t f 7 Q ] q.d.d.{ ] m v } ;X;XU.$.3.2.3.3.3.2.2.%.4.4.C.M.;.#.$.$.",
"#.$.1.$.#.;.3.;.#.$.1.%.%.$.#.#.#.$.%.%..X;Xi.[ { 7.( ( ] / v i y < n ( 7.{ { 7.{ ( / c s.;X&X$.1.1.3.3.%.1.1.1.J.R.R.R.3.#.;.3.",
"#.=.%.$.#.;.3.;.#.$.1.%.%.$.$.#.#.$.%.%.<..X*X6._ ] / v m n v s = a v n n v N { { { ' n d } +X>.%.1.1.1.1.1.%.%.J.R.R.R.3.#.;.3.",
"3.*.#.$.$.2.3.3.3.2.1.$.#.;.3.=.#.#.*.P.OX*X*X%X6.^ v v v v v s > d z b v n ] 7.{ { / M m l ~.V.$.#.%.,.%.,.1.1.J.R.R.R.C.3.;.#.",
"3.*.#.$.$.;.3.3.3.%.%.%.#.;.2.=.#.#.P.;X(.5.G H (.u.d f f v v t 0 I R T b ( { 7.7.{ { [ P z.&X3.#.$.$.%.%.,.%.1.H.J.J.J.C.>.$.#.",
"#.;.3.2.%.%.$.%.3.;.$.2.3.;.#.$.%.3.&X^.| ] ( v r L q y a s y > j T  .6 l n N ' ) P e 8 ^.;X[.#.2.3.#.#.%.%.1.1.o.......#.#.$.$.",
"#.;.3.1.%.$.%.;.3.2.$.;.3.;.$.$.1.I.(.! 9.q.7./ n i + = * * & % P Y Y 5 j f u % @ * = l.;X&X:.#.3.3.$.#.%.1.%.%.o.......@.#.#.$.",
"3.*.#.#.#.#.$.2.3.%.%.;.3.2.1.1.1.oX6.7.`.`.9.{ M f 2 + & * + $ > A 5 = * @ o % * * 9 #X.X3.$.$.3.3.3.3.%.%.#.#.>.3.;.#.3.3.$.#.",
"3.=.#.#.$.$.$.;.3.;.$.;.3.2.%.1.3.z.Q { r.d.y.{ m v v p @ + . . B : $ @ r ~ 7.Q - O H ).P.%.$.%.3.3.3.3.%.%.$.$.;.3.$.#.;.3.$.#.",
">.;.$.;.3.3.3.%.$.$.$.%.$.%.,.,.Y.G m ` { 0.{ { n n v s , X . ; ; + @ 3 s ( q.h.].r.) E L [.%.%.$.$.3.3.%.$.2.3.$.#.#.#.#.#.;.3.",
"3.;.#.;.3.3.3.%.$.$.$.$.$.%.,.<.z.k v n ` 9.9.{ { / v v j # + :   + * 2 3 3 U w.h.q.` / c (.D.=.$.$.3.3.%.$.3.3.$.#.#.#.#.#.>.3.",
"#.;.3.;.%.$.$.$.%.$.$.=.3.,.%.-.B j f v ] { { 9.{ ] n v l f : o . X @ 3 v U ` 9.r.q.` n k J {.#.$.$.3.3.$.$.3.3.$.#.>.3.$.#.2.3.",
"#.;.3.%.$.$.$.%.$.$.%.;.3.<.,.&.& p s n ] { { { 7.' n n v d 0 p : 3 < - v / { { { { { N v g (.-.$.%.3.3.%.$.2.3.#.#.2.3.;.$.>.3.",
"#.#.#.%.%.,.3.3.3.=.$.$.$.$.$.M.C * s v ( { { { { { / u & & y v m m n W e v k r ) 9.7.` v f S D.2.3.$.$.%.$.%.$.#.#.;.3.$.$.;.3.",
"#.#.#.$.%.2.3.3.3.%.$.$.$.$.$.4.%Xu.q y l m / { 7.) 8.V = i n m / ' ( ] x f v f : e n N f a > v.3.3.%.$.$.$.$.$.#.#.2.3.$.$.3.3.",
"3.3.3.;.#.$.%.,.,.,.,.,.%.$.#.%.E.-X*XH , u q C u.!.=XG a n ] ` ( 7.q.h.x i v v d & # l v 1 V B.$.%.$.$.$.$.3.3.;.%.$.%.$.$.$.$.",
"3.3.3.$.$.$.,.,.%.,.,.,.%.$.#.$.3.M.L.oX'._.%X*X[.Y.@XP n ( { { { r.c.c.q 1 y y 3 : C u y * !.b.$.$.$.$.$.$.2.3.,.<.%.$.$.%.$.$.",
"$.$.=.;.3.$.#.$.,.,.%.%.,.%.%.%.$.;.3.;.*.b.V.;.#.F.|.D m [ { 9.9.9.h.e.5.Z & * & i.#Xq & 8 @X#.$.#.%.%.$.$.$.$.$.#.;.3.%.$.$.$.",
"$.$.$.2.3.;.#.%.%.,.1.,.,.%.%.$.#.$.3.;.#.$.3.;.#.U.^.0.7.7.' ( 7.7.7._ x.*Xs.O a.;X*XG : W.F.#.#.#.%.%.%.$.$.$.#.#.2.3.;.$.$.$.",
"3.$.#.#.$.#.#.$.%.1.1.%.%.%.#.$.$.2.3.2.$.;.3.>.#.P.z._ 7.{ ( M ' { { _ z.I.OX;X;X;X;X'.!..X3.3.#.#.%.%.%.%.$.#.;.3.%.$.$.$.2.3.",
"3.;.#.#.#.#.#.$.,.,.%.%.%.%.#.$.1.2.3.2.$.;.3.;.#.P.z.0.] { / f m M m 8. XM.M.{.-X;X$X{.K.#.3.3.#.#.%.,.,.,.#.#.2.3.;.$.%.$.2.3.",
"3.;.#.$.%.;.3.2.%.1.1.%.#.$.>.3.3.2.%.$.$.$.$.%.%.G.(.~ m / n 4 v v E _.[.%.$.=.M.M.$.%.3.2.$.#.%.%.%.%.#.#.;.3.$.#.%.%.%.%.$.$.",
"3.$.#.$.%.2.3.2.%.%.%.$.#.;.3.3.3.;.$.$.$.%.$.$.%.D.&X8.v v 3 2 f g x.&XM.%.$.$.3.3.$.$.3.3.$.#.%.%.,.%.$.#.3.3.$.#.%.%.%.%.$.#.",
"$.#.#.%.3.2.1.%.%.%.#.;.3.;.%.%.%.$.$.%.$.%.3.;.#.-..X+XL r Z F Z u.oXG.$.$.$.$.3.3.%.$.3.3.%.%.,.,.1.2.#.#.;.3.#.#.%.%.%.%.%.%.",
"#.#.$.;.3.1.1.1.%.$.#.;.3.;.$.$.$.$.$.$.$.%.3.;.#.$.$.V.L.U.E.E.U.D.<.%.$.#.$.$.3.3.$.$.3.3.<.2.,.1.3.3.#.#.3.3.$.#.%.%.,.%.%.%.",
"%.$.$.2.3.;.$.%.%.$.#.$.$.$.%.;.3.2.3.;.$.$.%.=.2.;.#.#.%.%.%.1.%.%.#.$.;.3.3.2.%.%.$.$.%.%.%.%.1.2.1.1.%.%.$.$.#.#.;.3.1.%.,.%.",
"%.$.$.2.3.%.$.%.1.$.#.#.#.$.%.2.3.3.3.2.%.$.$.%.3.>.#.*.%.%.%.%.%.%.#.$.3.3.3.2.$.$.$.$.$.$.1.1.3.3.1.1.,.,.#.#.#.#.2.3.1.,.,.,.",
"%.$.$.%.%.$.$.$.%.;.;.;.%.$.$.%.3.1.$.$.%.%.%.$.*.*.2.;.$.$.%.%.$.$.2.;.;.=.%.%.$.$.$.%.1.2.%.1.%.%.%.%.%.%.%.%.%.%.%.1.%.,.%.,.",
"$.$.$.$.%.$.$.$.$.%.3.2.%.$.#.;.3.%.#.$.%.%.%.%.#.*.3.2.#.$.%.%.#.$.3.3.$.$.$.$.$.$.$.$.3.3.1.1.$.$.$.$.%.%.%.1.%.%.%.%.,.1.%.,.",
"$.;.3.%.$.$.%.;.3.1.1.,.%.%.#.#.$.$.$.%.1.1.%.%.#.#.3.2.#.*.%.%.#.#.*.$.%.%.2.3.2.2.%.$.%.%.$.$.$.$.2.2.$.$.%.%.%.%.%.%.,.,.%.,.",
"$.2.3.;.$.$.$.;.3.1.%.,.%.$.#.#.$.$.1.1.%.%.%.$.#.*.3.;.#.#.%.*.#.#.#.#.%.1.3.3.3.3.$.$.$.$.$.$.$.$.3.3.%.$.%.1.,.,.%.,.%.1.%.%.",
"%.%.$.#.#.;.;.2.1.1.,.%.%.%.%.$.$.%.1.%.1.1.%.%.#.#.*.*.#.#.$.*.>.>.;.;.%.1.3.3.3.3.$.$.$.#.2.1.$.#.$.$.2.2.%.$.%.%.%.,.%.%.%.1.",
"%.$.#.#.#.;.3.2.1.1.1.%.,.1.%.%.1.%.1.1.1.%.%.%.#.#.#.#.#.#.#.$.3.3.3.3.1.1.3.3.3.3.%.$.#.#.3.2.#.#.$.%.3.3.%.$.%.,.,.,.%.%.%.%.",
"#.;.;.;.#.;.3.;.$.#.$.$.%.,.,.%.$.#.$.$.%.%.2.2.%.$.#.#.;.;.#.#.2.2.3.3.1.%.%.%.3.3.%.%.$.$.$.$.;.;.$.#.=.=.;.2.%.%.$.$.$.$.$.%.",
"#.;.3.$.#.;.3.$.#.#.#.$.,.%.%.$.#.#.#.$.1.2.3.2.%.=.#.;.3.2.#.$.%.1.3.3.1.%.$.$.3.2.1.1.1.1.#.#.3.3.#.$.$.$.3.3.$.#.#.#.#.#.%.%.",
";.;.;.$.$.2.3.;.#.$.;.;.$.$.$.#.#.#.#.$.%.%.1.%.$.$.;.;.;.$.%.$.%.%.1.1.2.2.2.;.%.%.%.%.1.%.$.$.3.3.;.;.$.$.*.*.%.1.$.#.;.;.$.$.",
">.;.#.%.%.2.2.%.#.%.3.;.#.#.#.#.#.#.#.$.1.1.1.%.#.$.3.;.#.#.1.%.$.$.%.1.4.3.3.3.%.%.%.%.1.1.%.$.3.3.3.3.$.%.$.#.1.2.$.#.;.3.*.#.",
"3.$.#.$.%.1.1.%.%.;.3.;.#.$.;.;.#.$.;.;.$.$.%.%.>.;.3.2.$.$.1.1.$.$.1.%.%.%.3.3.$.%.1.%.%.%.%.%.>.%.3.3.$.$.;.;.;.;.#.#.*.;.;.;.",
"3.;.#.$.1.1.1.,.%.;.3.;.#.$.3.;.#.=.3.;.#.$.%.2.3.3.3.2.$.$.3.3.$.%.%.%.$.$.3.3.$.$.1.%.1.%.%.%.$.$.3.3.%.$.2.3.#.#.#.#.#.#.;.3.",
";.;.;.=.1.%.1.%.%.2.3.3.;.2.3.;.$.$.;.;.;.;.%.%.3.3.;.;.%.%.%.%.$.%.1.%.$.$.;.;.$.$.1.1.1.%.$.$.$.$.3.3.*.$.3.3.#.#.;.;.$.#.>.3.",
"#.;.3.2.1.%.1.1.1.2.3.3.3.3.3.2.%.$.#.*.3.2.$.=.3.2.$.%.%.%.$.%.1.1.1.%.$.$.$.%.$.$.%.%.1.1.$.#.$.$.3.3.$.$.3.3.#.#.>.3.$.#.;.3."
};
