/* XPM */
static char *result[] = {
/* columns rows colors chars-per-pixel */
"64 64 218 2 ",
"   c #6B3D01",
".  c #683B05",
"X  c #713F01",
"o  c #6F4101",
"O  c #6D420D",
"+  c #744301",
"@  c #794601",
"#  c #754A01",
"$  c #7C4901",
"%  c #74470C",
"&  c #7A5202",
"*  c #6E4614",
"=  c #734A15",
"-  c #774C17",
";  c #754C1A",
":  c #78511E",
">  c #7B5423",
",  c #785526",
"<  c #7C592C",
"1  c #7B5D32",
"2  c #7E6239",
"3  c #834D01",
"4  c #865101",
"5  c #8C5301",
"6  c #855C03",
"7  c #915600",
"8  c #945A01",
"9  c #9B5D01",
"0  c #A05F00",
"q  c #8C6702",
"w  c #9C6101",
"e  c #906D02",
"r  c #947202",
"t  c #A46300",
"y  c #AA6600",
"u  c #A66901",
"i  c #AC6A01",
"p  c #B66E00",
"a  c #B86F00",
"s  c #AE7301",
"d  c #B57201",
"f  c #B97501",
"g  c #B67B01",
"h  c #BD7A01",
"j  c #825C2C",
"k  c #835E31",
"l  c #866135",
"z  c #89653A",
"x  c #8B683E",
"c  c #C27D01",
"v  c #856A42",
"b  c #8C6B42",
"n  c #916F48",
"m  c #86724E",
"M  c #927147",
"N  c #93724B",
"B  c #8A7A58",
"V  c #967752",
"C  c #9A7C56",
"Z  c #AD8901",
"A  c #B48702",
"S  c #BF8401",
"D  c #AC9302",
"F  c #B89A02",
"G  c #BCA203",
"H  c #C48200",
"J  c #CC8300",
"K  c #C28D01",
"L  c #D18701",
"P  c #D48A00",
"I  c #DB8E00",
"U  c #C49201",
"Y  c #C79B01",
"T  c #D79201",
"R  c #DE9100",
"E  c #DC9614",
"W  c #E49500",
"Q  c #E89700",
"!  c #E99800",
"~  c #E89B08",
"^  c #E89E15",
"/  c #CBA301",
"(  c #C9A903",
")  c #D7A702",
"_  c #CCBA02",
"`  c #D5B602",
"'  c #E7A400",
"]  c #E5B501",
"[  c #E9A11A",
"{  c #C48F2B",
"}  c #E8A424",
"|  c #EAA62A",
" . c #EAAB37",
".. c #ECB03D",
"X. c #CFC203",
"o. c #DBCA02",
"O. c #DDD202",
"+. c #E2CA01",
"@. c #9C805C",
"#. c #938668",
"$. c #948E72",
"%. c #A18564",
"&. c #A58A6A",
"*. c #A98F71",
"=. c #AC9475",
"-. c #AD9679",
";. c #B09A7D",
":. c #DEB85A",
">. c #E6AF44",
",. c #ECB145",
"<. c #ECB44C",
"1. c #ECB856",
"2. c #EDBD64",
"3. c #AEDC6C",
"4. c #B5DD6D",
"5. c #BDDF6D",
"6. c #B6DF71",
"7. c #B9DF72",
"8. c #BDE174",
"9. c #BEE179",
"0. c #DCC377",
"q. c #EFC16D",
"w. c #F0C16E",
"e. c #EEC575",
"r. c #F0C677",
"t. c #C0E06F",
"y. c #C1E275",
"u. c #C5E47B",
"i. c #9D9D85",
"p. c #B49E84",
"a. c #9FA28E",
"s. c #B8A48A",
"d. c #A3A996",
"f. c #BDA993",
"g. c #A7B29F",
"h. c #ABB8A9",
"j. c #B1BDAF",
"k. c #C1AE98",
"l. c #C3B29D",
"z. c #CABCA9",
"x. c #BFE285",
"c. c #B4C1AC",
"v. c #B4C5BA",
"b. c #D6CE96",
"n. c #F1CB84",
"m. c #F1CF8D",
"M. c #E6CE91",
"N. c #E7D39B",
"B. c #F2D294",
"V. c #F2D49A",
"C. c #C3E282",
"Z. c #C5E58B",
"A. c #CBE689",
"S. c #CCE795",
"D. c #CDE89D",
"F. c #D1E996",
"G. c #D2EA9B",
"H. c #CFC1AF",
"J. c #D3D5AA",
"K. c #D1C4B4",
"L. c #D6CABC",
"P. c #D5DAB8",
"I. c #EAD8A9",
"U. c #F4D9A6",
"Y. c #EFDFB7",
"T. c #CEE9A4",
"R. c #D5EBA4",
"E. c #DAEDAC",
"W. c #D6EDB3",
"Q. c #DCEEB2",
"!. c #DBEFBA",
"~. c #DFF0BC",
"^. c #F5E2BC",
"/. c #E1F1BC",
"(. c #BBCDC6",
"). c #BAD3CA",
"_. c #BCD8D4",
"`. c #BFDEDB",
"'. c #D2D2C5",
"]. c #E2D9CF",
"[. c #E4DDD4",
"{. c #D5E1C8",
"}. c #D9EBC9",
"|. c #CBE5DA",
" X c #E7E4C7",
".X c #F6E8C9",
"XX c #E3F2C2",
"oX c #E5F4CD",
"OX c #E9F5CC",
"+X c #E6E4D8",
"@X c #E9E4DC",
"#X c #F6EDD7",
"$X c #EAF5D3",
"%X c #EAF6D8",
"&X c #EDF7DA",
"*X c #F4F6DF",
"=X c #C6E8EA",
"-X c #D7EDEB",
";X c #C8EDF1",
":X c #D0EFF2",
">X c #CBF1F5",
",X c #CAF3FA",
"<X c #D4F4F9",
"1X c #D8F4F9",
"2X c #ECE7E0",
"3X c #EEEAE4",
"4X c #F0ECE7",
"5X c #F2EEEA",
"6X c #E4F2EC",
"7X c #F2F9E4",
"8X c #F6F6E8",
"9X c #F4F2EE",
"0X c #F5FBEB",
"qX c #E4F6F7",
"wX c #F6F4F1",
"eX c #F8F7F5",
"rX c #FAFCF5",
"tX c #FEFEFE",
/* pixels */
"5.4.3.8.u.8.3.4.t.t.5.t.u.y.t.t.5.t.t.t.u.y.4.5.A.G.R.E.}.&X0X0X0X0X0X7X7X7X&X&X$XoXOX/.T.D.G.A.u.u.4.6.4.4.4.4.4.3.y.u.7.4.u.u.",
"t.4.4.8.y.6.3.4.5.5.5.t.y.y.t.t.t.t.5.t.u.y.T.$XrXrXtXtXtXtXtXtXtXtXtXtXtXtXtXtXtXtXtXtXtXtXrXrX0XQ.4.4.4.4.5.7.3.4.7.u.5.4.7.u.",
"u.u.u.8.3.4.5.5.t.4.3.3.3.4.t.t.A.F.E.XX&XrXtXtXtXtXtXrXtXtXtXrXrXeXeXtXrXtXtXtXtXtXtXtXtXtXtXtXtXtX7XG.7.4.y.u.5.t.5.4.4.4.5.4.",
"u.u.u.6.4.4.5.5.5.4.3.3.3.u./.7X0XrXtXtXtXtXtXwX[.z.p.&.V b z k j j j l x V %.s.z.2XeXtXtXtXtXtXtXtXtXrX&XZ.y.u.5.5.4.4.4.4.4.4.",
"4.4.4.y.u.8.3.3.3.7.u.9.W.rXtXtXtXtXeX[.K.=.l % X + @ 3 3 5 5 7 7 7 7 5 5 3 3 @ @ X j %.K.4XtXtXtXtXtXtXtXtXoXS.6.3.y.u.5.4.4.4.",
"4.4.4.8.y.8.3.3.4.8.C.oXtXtXtXtXwXk.n : % 5 9 t y p p p p p p a p p p p 9 9 0 0 0 0 0 7 % x ].tXtXtXtXtXtXtXtXtX&XD.9.u.5.4.4.5.",
"u.u.u.4.3.3.3.8.u.9.W.tXtXtX9Xl.;   3 9 0 9 p p p p p p a a p d p p p p p p i t 7 3 3 8 i 3 j 5XtXtXtXtXtXtXtXtXtXtXE.7.4.4.y.u.",
"u.u.u.8.3.3.3.8.S.$XrXtXtX].N $ 3 5 9 0 p p p p p p p a a p a p p p p p p p p a p p p 0 3 5 @ V rXtXtXtXtXtXtXtXtXtXtX/.7.4.y.y.",
"u.6.3.8.u.u.u.u.&XtXtXtX[.: 3 3 @ p p p p p p a a p a p p a a a p a a a a p a p a a p p p $ $ . '.tXtXtXtXtXtXtXtXtXtXtXR.t.4.4.",
"u.8.3.9.u.u.u.Q.tXtXtXrXN 5 5 4 p p p p p p p p p a p p a p a d p p p p p p p p p p p p p 5 5 $ %.eXtXtXtXtXtXtXrXeXtXtXrXC.4.3.",
"3.3.3.8.u.y.C.rXtXtXtXK.X y 5 + 9 p a a p p p p p p p p p p p p p p p p a a a a p p p y 3   F F k 5XtXtXtXtXwX-.< > L.tXtXoX8.u.",
"3.3.3.8.u.A.&XtXtXtXtXV 3 p p 7 @ + + + @ 3 5 5 5 7 7 7 7 7 5 5 5 3 3 3 $ @ @ @ @ + + @ e ( o.H - [.tXtXwXl.: N s.@.C tXtX0XC.u.",
"4.t.t.u.~.0XtXtXtXtXwX> 8 a p p p y y 0 0 9 9 8 8 7 5 5 5 7 5 7 7 8 9 w t t t t t s F ` O./ h a % [.tX5XC z L.eX[.j K.tXtXrXZ.3.",
"t.C.7XtXtXtXtXtXtXtX2X; 0 a a p p p p p p p p p p p p p d d f f f h h H K Y ( ` o.O.X./ f p p p j ].@Xx b @XeXK.; &.eXtXtXtXS.3.",
"t.oXtXtXtXtXtXtXtXtX3X; 9 p a p a a a p a p p p p p a p p H K U Y Y Y / / Y U K S h p p p p p t k z.z =.4X].C < f.eXtXtXtXtXW.5.",
"G.tXtXtXtXtXtXtXtXtX5X; 8 p p a a d p a p a a p a p a a p p p p p p a a p p p p p p p p p p p 3 j ; -.3X=.% ; p.-.;.'.rXtXtX$X5.",
"0XtXtXtXtXtXtXtXtXtXeXk 7 p p a a a p p p p a p a p a a a p p p a p p p p p a p p a p p a p 9 . X b C ; . - z V %.%.= p.tXtXrX5.",
"tXtXtXtXtXtXtXtXtXtXtXp.$ p p p a p p p p a a a p a p d p a a p p a a p a a p a p p p p p 9   . . X x s.].wXeXeX@X&.. z.tXtXtXu.",
"tXtXtXtXtXtXtXtXtX5X[.'.. 5 y p p p p p p p p d a p p p a p a a a p p p p p p p p p y 9 @ + 7 5 X   O ; > < j > > V L.tXtXtXtXA.",
"tXtXtXtXtX5Xz.%.k > j ; O X X $ 9 p p p p p p a p p p p p p p p p p p p p a p 0 5 +   X 8 p p p y 5 X . o j -.'.3XeXtXtXtXtXtXF.",
"tXtX5Xz.V $ $ 5 8 t y i p p y 3 + X @ 3 7 8 0 0 t y y y y y y t t t 9 8 3 + X X @ 5 0 a p p p p p p a S D r & % N f.@XrXtXtXtXQ.",
"tXs.k 6 F / h p p p p p p p p p p t 9 7 4 3 @ + X   X + + X + + + @ 3 5 8 9 y i p p t a p p a a p p a d S U / _ G 6 , *.4XtXtX/.",
"C X $ X & _ O.Y a p p p p p p p i 5 d p p y p p p p p p p p p p p p p p p p p p a a 9 5 i p p p p p p p p p i 8 & . o # > [.tX!.",
". t p i 5 + A O./ p p a a p p p 7 Z ) / K t 5 p p p p p p y 8 p p p p p t 8 9 p p h Y F q 5 s p p p p p i 3 X 3 9 w s / r l 9X!.",
". p p p p 7 X h o.p p p d p p Z # G e q D X.& p p d a a p p 8 8 p p p p p p $ 3 ( O.D q & o & d p p p p $ . . t p p p S _ : +X!.",
". t p p p i 3 $ p p p a p p p 4   5 w u 5 & + i p p p p p a g 6 5 p p p p p p 5 q 6 7 i u w $ $ p p p i * (.#.@ p p d Y e b wX~.",
"b 3 p p p p p + 4 p p p p p t   w R ! ! W t . y p p p p h ` O.D . e ) f p p p p 3 3 W ! ! ! d o p p p i O c.;Xv 5 p ( q : @XtXT.",
"4X< 7 p p p p 0 . 5 p p p p 5 $ ! ! ! ! Q c   p p p p H o._ e $ 8 + D S p p p p 5 5 W ! ! L $ 5 p p p p @ { ;Xd.. t # N [.tXtXT.",
"tXL.% 5 p p a $ #.= 5 p p p + p ! ! ! ! ! d 3 d p d U O./ # 4 P Q 9 5 p p p p p 7 5 W ! I + 5 p p p p p + c b.|.O % p.4XtXtXtXT.",
"tXtXL.: 3 y 9 . ).E $ 5 p p + J ! ! ! ! ! u 5 p p U O.Y 4 3 R ! Q t + p p p a p 8 3 W ! t X p p p p p 7 $ I ^ >X1 C eXtXtXtXtXD.",
"tXtXtX[.&.- X B {.Q P 4 $ y + L ! ! ! ! ! u 8 p p / K 5 3 I ! ! ! c   i p p p p 7 4 W Q t + i p i 9 3 + c W ~ |.#.%.tXtXtXtXtXC.",
"tXtXtXtXtX2X> _.N.Q ! Q 4   3 W ! ! ! ! ! d 5 p p p 9   c ! ! ! Q Q 5 @ i p p p @ 9 ! ! P +     .   7 I Q Q ~ P.d.V rXtXtXtX7X3.",
"tXtXtXtXrXL.2 ,X2.! Q ! R d J ! ! ! ! ! ! L @ 9 y 7 $ h ! ! ! ! ! ! R w @ $ 3 @ 4 I W ! ! W L J J R ! ! ! ! ~ J.c.b wXtXtXtX!.8.",
"tXtXtXtXtXs.#.:X..! ! ! Q ! ! ! ! ! ! ! ! ! t . . @ J ! ! ! ! ! ! Q ! W R h p J W ! ! ! ! ! ! ! ! ! ! ! ! ! ~ J._.l 9XtXtXrXG.u.",
"tXtXtXtXtXC i.6X| ! ! ! ! ! R I I J J J W ! ! L J W ! ! ! ! ! ! ! ! Q Q ! ! ! W ! ! ! ! ! ! ! ! ! ! ! ! ! ! ! J.`.l 9XtXtX0XA.u.",
"tXtXtXtXtXv g.4X1.! ! ! W i $ @ @ +   + t ! ! Q Q ! ! ! ! ! ! ! Q Q P R ! ! ! ! ! ! ! ! ! ! ! ! ! ! ! ! ! ! ! J.`.j 9XtXtX7X9.u.",
"tXtXtXtXtX< h.^.<.[ ! ! c # i J c H ) G # g W ! ! ! ! ! ! ! ! ! R 7 + @ $ $ 3 t W ! ! ! ! ! ! ! ! ! ! ! ! ! ~ P.`.k 9XtXtXoX9.u.",
"tXtXtXtXrX, v.U.1.^ W W $ d ! ! ! ! Q +.F $ I ! ! ! ! ! ! ! ! ! d 4 L L J J F q i ! ! ! ! ! ! ! ! ! ! ! ! | } {.(.l wXtXtXXXy.u.",
"tXtXtXtXeX; '.U.2.^ W 4 5 W ! ! ! ! Q ! +.r 9 ! ! ! ! ! ! ! ! W $ h ! ! W ! Q / + h ! ! ! ! ! ! ! ! ! ! [ ^.r.qXc.v wXtXtXXX8.5.",
"tXtXtXtXwX* (.I.r.[ J @ L ! ! ! ! ! ! ! ! P @ L ! ! ! ! ! ! ! f $ R ! ! ! ! ! ' F # J ! ! ! ! ! ! ! ! ! [ B.m.1Xd.n eXtXtX!.4.4.",
"tXtXtXtXwX= (.^.m.<.J + J Q ! ! ! ! ! ! ! J   I W ! ! Q W ! R $ i ! ! ! ! ! ! ! ' u u Q Q ! ! ! ! ! ! Q [ e.r.<X$.C eXtXtXW.4.4.",
"&XtXtXtXtX; v.#XB.w.! u 3 I ! ! ! ! ! ! I 4 d i @ @ $ $ $ c J + L ! ! ! ! ! ! ! R 3 c L t 4 4 3 3 i Q ! ^ e.n.<Xm &.tXtXtXD.4.4.",
"/.tXtXtXtX< j.8X}  .! W 8 8 ! ! ! ! ! W 4 8 h @ J I I ' D $ W 4 4 R ! ! ! ! ! ! 9 3 P @ 8 c L P / # h ! ^ r.m.:X, p.rXtXtXC.7.y.",
"E.tXtXtXtXM d.9X} 1.Q Q L $ h W ! ! ! d $ J $ i Q Q Q ! ` & u R 4 i ! ! ! ! ! h @ H w 3 W Q Q ! ] D $ I } w.I.|.O z.tXtXtX4.u.u.",
"A.tXtXtXtX;.$.1X1.U.| W Q f $ L I L h $ H t 8 W ! ! ! ! ' _ # J J $ w s h c d $ d H $ P Q ! ! ! W o.e t ^ <.{.v.. [.tXtX0X5.4.7.",
"u.tXtXtXtXH.v <XN.| n.| Q Q 7 + + o @ i H $ I Q ! ! ! ! ! ' D $ W d 5 3 @ @ $ i W $ h Q ! ! ! ! ! ' / o E 2.P.d.: rXtXtX&Xt.4.4.",
"8.0XtXtXtX+X, ;X-X .2.e.^ ^ W J J L T Q f $ I ! ! ! ! ! ! ! T @ J ! ! ! W R W ! ! $ d W ! ! ! ! Q ! c $ ^ q.3XB -.tXtXtX/.5.4.4.",
"3.7XtXtXtX5Xx g.<XI.2...q.| ! ! ! ! Q Q Q 7 8 W ! ! ! ! ! ! h # W ! ! ! ! Q W ! ! c + I Q ! ! ! ! Q $ c } U.:X, @XtXtXtXE.t.t.5.",
"4.7XtXtXtXtX=.1 ;X6Xe.n.1.<.^ W Q ! ! ! ! I @ i ! ! ! ! ! L $ c ! ! ! ! ! ' ! ! ! W w 3 R ! ! ! W u 4 W  ..Xh.b eXtXtXtXG.5.t.t.",
"8.&XtXtXtXtX[.. j.1X+X<.V.,.1.1.Q Q ! ! Q Q c @ L ! ! W W $ w W ! ! ! ! ! ! ! ! ! ! W @ 9 h t 3 $   c ^ .X6X, s.tXtXtXrXA.t.t.5.",
"4.%XtXtXtXtXtX;.v >XqXV.2.m.2.2.1.! ! ! ! ! ! 8 5 i t u 5 4 P ! ! ! ! ! ! ! ! ! ! ! ! P 8 5 8 t p c | m.5Xj.. [.tXtXtX7Xt.t.5.t.",
"4.XXtXtXtXtXtXwXb B <XqXV.U.m.m.w.,.! ! ! Q ! I d u u i h R ! ! ! ! ! ! ! ! ! ! ! ! ! ! W W Q ! ! ,.r.Y.-XB V rXtXtXtXOXt.t.5.t.",
"5.Q.tXtXtXtXtXtXL.O d.qXwXY.U.^.^.V.w.| ! Q ! ! ! ! ! ! ! ! ! ! ! ! ! ! ! ! ! ! ! ! ! ! ! ! Q ! [ 2.B.-Xv.: 2XtXtXtXtXE.t.t.5.t.",
"4.G.tXtXtXtXtXtXtXK.; j.qX6XN.U.1.B.U.m.U.<.! ! ! ! ! ! ! ! ! ! ! ! ! ! ! ! ! ! ! ! ! ! Q Q ~ ,.,.m.-X=X1 s.tXtXtXtXtXA.t.t.5.t.",
"4.C.0XtXtXtXtXtXtXtXf.O v.<XqXM..Xm.V.#XU.U.[ ! ! ! ! ! ! ! ! ! ! ! ! ! W ! W W Q Q ! ! ! ~ >.| I.>X=Xm N wXtXtXtXtX8Xt.5.t.t.t.",
"t.4.T.tXtXtXtXtXtXtXrXf., j.1X1X XY..X^..X^.^.w.Q ! ! ! ! ! ! ! ! ! ! ! ~ [ } >.<.:.0.0.0.N.P.-X>X_.B V 3XtXtXtXtXtXG.5.5.5.t.5.",
"4.6.4.oXtXtXtXtXtXtXtXtXz.O d.<XqXqX+X XrX*X .| Q W Q W Q W } >.e.b.P.|.,X,X,X,X,X,X,X>X>X,X,X`.#.. N wXtXtXtXtXtX0X7.7.4.4.5.t.",
"3.8.u.Z.7XtXtXtXtXtXtXtXrXz.l B v.:X,X1X<X1X{.J.J.P.P.{.|.;X,X,X,X,X,X,X,X=X=X_.(.v.h.a.$.m < k %.z.rXtXtXtXtXtXtX!.3.3.4.3.5.t.",
"6.8.8.8.Z.rXtXtXtXtXtXtXtXtX4X&.O 1 $.j._.=X=X=X;X;X=X`.(.v.h.d.i.$.B x 1 , * * O ; < b *.z.[.5XrXtXtXtXtXtXtXtX&X7.3.3.4.4.4.5.",
"u.8.3.4.5.F.7XtXtXtXtXtXtXtXtXtX[.;.M l j > - ; ; > > > < k k x b N V #.=.f.K.[.5XrXtXtXtXtXtXtXtXtXtXtXtXtX0XW.u.u.6.3.9.u.4.3.",
"u.8.3.4.t.t.A.OXtXtXtXtXtXtXtXtXtXtXwX5X2X+X[.[.[.[.[.@X2X4X5X9XwXeXrXtXtXtXtXtXtXtXtXtXtXtXtXtXtXtXtXtXrX/.C.8.8.y.3.3.8.8.8.3.",
"u.6.3.4.5.t.t.t.E.0XtXtXtXtXtXtXtXtXtXtXtXtXtXtXtXtXtXtXtXtXtXtXtXtXtXtXtXtXtXtXtXtXtXtXtXtXrX0X8X%X/.E.y.4.u.u.8.3.3.3.3.3.9.u.",
"y.4.4.4.5.t.t.t.5.A./.0XtXtXtXtXtXtXtXtXtXtXtXtXtXtXtXtXtXtXtXtXtXtXtXtXtXtXtXtXtXtXrX&XQ.R.S.Z.8.4.u.u.4.4.u.u.3.3.3.6.3.3.8.u.",
"4.8.u.y.t.t.5.t.t.y.u.y.A.G.E.Q././.}.XXXXXXXXXXXXXXXX~./.!.Q.Q.Q.Q.E.E.T.T.T.x.C.7.t.t.t.t.3.3.4.4.u.u.4.6.y.u.3.3.8.u.8.3.9.u."
};
