/* XPM */
static char *result[] = {
/* columns rows colors chars-per-pixel */
"64 64 241 2 ",
"   c #040404",
".  c #0A0304",
"X  c #040A02",
"o  c #0B0A05",
"O  c #03030B",
"+  c #0A040B",
"@  c #04090A",
"#  c #0B0A0B",
"$  c #120403",
"%  c #180A07",
"&  c #120A0B",
"*  c #0A100A",
"=  c #181208",
"-  c #030411",
";  c #0C0413",
":  c #0A0814",
">  c #160A12",
",  c #131313",
"<  c #1A1513",
"1  c #131A19",
"2  c #1B1B1B",
"3  c #2C0F08",
"4  c #27160B",
"5  c #291A14",
"6  c #361D17",
"7  c #36290C",
"8  c #2C2212",
"9  c #392614",
"0  c #3E3418",
"q  c #1C1C29",
"w  c #231F20",
"e  c #242323",
"r  c #2B2329",
"t  c #2B2B2B",
"y  c #353129",
"u  c #302D30",
"i  c #373635",
"p  c #621D1B",
"a  c #482B15",
"s  c #483717",
"d  c #563914",
"f  c #473824",
"g  c #583B26",
"h  c #493532",
"j  c #6C2F2D",
"k  c #56451A",
"l  c #5E5023",
"z  c #654928",
"x  c #695626",
"c  c #73562A",
"v  c #754C33",
"b  c #665534",
"n  c #79652D",
"m  c #7A6432",
"M  c #3A444C",
"N  c #414142",
"B  c #474747",
"V  c #4D4D4D",
"C  c #534B47",
"Z  c #514D55",
"A  c #515150",
"S  c #555555",
"D  c #5E575A",
"F  c #5C5C5C",
"G  c #6E685D",
"H  c #636364",
"J  c #6A6A65",
"K  c #6B6B6B",
"L  c #727373",
"P  c #7C7C7C",
"I  c #842E35",
"U  c #876B2B",
"Y  c #89772A",
"T  c #96722F",
"R  c #876A3D",
"E  c #887734",
"W  c #AA6832",
"Q  c #C27E3C",
"!  c #8A6646",
"~  c #A56747",
"^  c #7F827D",
"/  c #998533",
"(  c #A98E34",
")  c #BA9A36",
"_  c #B6A636",
"`  c #F4B41D",
"'  c #CA973C",
"]  c #EB9E2C",
"[  c #ED9D34",
"{  c #C4A637",
"}  c #DBA733",
"|  c #C7B23C",
" . c #D6B73B",
".. c #EBA929",
"X. c #F2AC2A",
"o. c #F7BA2C",
"O. c #E9A639",
"+. c #F4A837",
"@. c #EABA37",
"#. c #F4B63B",
"$. c #F2CF0B",
"%. c #FDCD0B",
"&. c #EECB1B",
"*. c #F4CC13",
"=. c #FBCC13",
"-. c #FBC71B",
";. c #F5CC1C",
":. c #FACB1C",
">. c #EED215",
",. c #F9D016",
"<. c #F4D11D",
"1. c #DCC239",
"2. c #EBC92B",
"3. c #F3CC23",
"4. c #FACA23",
"5. c #F7C828",
"6. c #EDD225",
"7. c #F4D12B",
"8. c #ECCB33",
"9. c #E9C83C",
"0. c #F3C835",
"q. c #EED439",
"w. c #F7D33E",
"e. c #9A8544",
"r. c #8F855D",
"t. c #A78846",
"y. c #B18D4E",
"u. c #B79745",
"i. c #AE9B6C",
"p. c #CA9253",
"a. c #E79C48",
"s. c #ED9B4B",
"d. c #C6A749",
"f. c #CCAD4E",
"g. c #D6B848",
"h. c #D4B757",
"j. c #E6A249",
"k. c #EAAE4A",
"l. c #DEA761",
"z. c #AEDC6C",
"x. c #B5DD6C",
"c. c #BDDF6D",
"v. c #B5DE71",
"b. c #BADF71",
"n. c #B9DF78",
"m. c #BDE174",
"M. c #BBE17B",
"N. c #DCC549",
"B. c #D7C85D",
"V. c #E3C743",
"C. c #E8C848",
"Z. c #F3C746",
"A. c #EDD348",
"S. c #F5D249",
"D. c #E7C853",
"F. c #C0DF6F",
"G. c #C0E06F",
"H. c #C1E275",
"J. c #CAE477",
"K. c #C5E57B",
"L. c #CEE57A",
"P. c #777C81",
"I. c #857E84",
"U. c #848483",
"Y. c #898885",
"T. c #8B8B8B",
"R. c #928D8C",
"E. c #96978B",
"W. c #949394",
"Q. c #9B9B9B",
"!. c #9FA19B",
"~. c #ACAA98",
"^. c #9F9DA8",
"/. c #A3A3A3",
"(. c #A7A5AD",
"). c #ABAAAB",
"_. c #B5B1AD",
"`. c #B3B3B3",
"'. c #B8B6B4",
"]. c #BCBCBB",
"[. c #EAB489",
"{. c #C4B8A8",
"}. c #BDE286",
"|. c #F5DA95",
" X c #C4E382",
".X c #C9E583",
"XX c #C6E58C",
"oX c #CBE689",
"OX c #DEEE8C",
"+X c #CBE691",
"@X c #C9E796",
"#X c #D2E999",
"$X c #FAEC9C",
"%X c #F5F49A",
"&X c #D3C4B7",
"*X c #F0CEB2",
"=X c #CDE9A3",
"-X c #D5EBA5",
";X c #DAEEAC",
":X c #D9EEB6",
">X c #DCEEB4",
",X c #DFF0B6",
"<X c #F7F3A4",
"1X c #FFFAA2",
"2X c #FBEFB2",
"3X c #E4F2B9",
"4X c #C0BFC0",
"5X c #BCC1C2",
"6X c #C3C3C3",
"7X c #C7C5C6",
"8X c #CCCCCC",
"9X c #D7D4CB",
"0X c #D0D0CC",
"qX c #D4D4D4",
"wX c #DDDBD4",
"eX c #DBDBDA",
"rX c #E3DDDE",
"tX c #DEF0C3",
"yX c #E4F2C4",
"uX c #E6F3CB",
"iX c #E8F5CB",
"pX c #EEEFD7",
"aX c #EBF6D4",
"sX c #EDF6DA",
"dX c #DFDFE5",
"fX c #E4E4E4",
"gX c #EAE5E9",
"hX c #ECECEC",
"jX c #EFF5E5",
"kX c #F2F9E4",
"lX c #F7F7EA",
"zX c #F5FAEB",
"xX c #EDEDF3",
"cX c #F4F5F4",
"vX c #F8F6F5",
"bX c #F6F9F4",
"nX c #FAFBF5",
"mX c #F6F6F9",
"MX c #F9F5FA",
"NX c #F6FAF9",
"BX c #FDFDFC",
/* pixels */
"c.c.z.x.K.K.z.z.c.c.c.G.K.K.G.G.F.F.c.c.G.J.c.x.H.K.b.x.z.z.m.K.m.c.x.z.z.z.x.c.x.z.m.M.m.z.v.K.K.K.H.x.x.x.x.c.x.z.x.K.K.x.c.K.",
"H.F.v.x.m.m.z.x.c.c.x.c.m.m.c.G.c.F.G.F.H.G.c.x.m.H.m.c.v.m.m.m.c.G.x.z.x.v.x.c.x.m.m.m.m.v.m.H.H.H.m.x.x.x.x.c.c.z.x.m.m.x.x.m.",
"K.K.K.K.z.z.G.c.G.c.z.z.z.z.c.G.c.F.F.F.c.x.x.x.x.x.H.K.K.K.v.z.b.c.x.z.m.K.m.z.m.K.m.z.m.K.m.x.x.x.x.c.x.x.c.K.H.c.c.x.x.x.x.x.",
"H.H.H.m.m.x.c.v.b.c.v.x.z.z.c.c.F.G.c.c.c.b.x.x.x.x.m.H.m.m.m.m.c.x.x.x.m.m.b.v.m.K.m.z.z.m.m.v.c.x.c.x.c.x.x.G.m.c.c.c.b.x.x.c.",
"x.x.x.x.K.K.z.z.z.z.H.J.z.z.c.F.c.G.F.c.H.K.c.x.c.x.x.x.x.x.H.K.v.z.c.G.x.z.m.K.K.K.m.z.z.z.x.F.c.c.F.c.c.x.x.x.x.z.x.K.K.c.x.x.",
"c.m.b.v.H.H.z.z.v.v.m.G.x.z.c.c.c.c.c.c.H.H.c.x.c.b.b.c.x.c.m.H.x.v.}.oX}.m.m.K.K.K.m.x.x.x.x.F.G.c.G.c.c.c.c.x.x.z.m.K.m.x.x.c.",
"K.K.K.K.z.z.z.z.K.K.z.z.c.c.F.F.c.c.x.x.x.x.x.x.m.K.K.K.G.G.x.}.kXBXBXBXBXBXaX#XK.K.H.F.c.c.F.c.c.G.G.G.c.c.c.z.x.K.H.x.x.x.x.K.",
"K.K.m.K.x.m.x.z.K.K.x.z.c.x.c.c.c.c.c.c.x.c.x.c.H.K.K.H.G.G.x.zXBXBXBXBXBXBXBXBXiXK.J.L.L.L.L.L.L.L.J.G.c.c.x.z.m.m.m.x.c.x.c.H.",
"K.K.z.z.K.K.K.K.K.;XaXzXzXzXkXaX:X}.K.K.m.G.c.G.c.c.G.c.F.F.M.BXBXBXBXBXBXBXBXBXBXyXOX1X1X1X1X1X1X1X%XK.n.z.v.K.m.z.z.c.G.c.c.z.",
"H.H.z.z.K.K.K.+XkXBXBXBXBXBXBXBXBXBXkX;XK.c.G.H.c.c.c.x.c.b.m.BXBXBXBXBXBXBXBXBXBXBX3X1X$X$X$X$X1X2X<X-X,X@X@XoXm.z.x.c.c.c.c.x.",
"z.z.z.z.K.K.+XBXBXBXBXBXBXNXNXvXBXNXBXBXBXuXoXK.x.z.z.z.z.z.x.zXBXBXBXBXNXNXNXBXBXBXzX1X|.[.[.[.pXBXBXBXBXBXBXzX:X=Xx.c.x.z.z.K.",
"x.z.x.x.K.#XnXBXBXBXBXBXBXfX].`.'.0XvXBXBXBXvXiX}.x.x.x.z.z.c.#XBXBXBXBX7XT.6XhXBXnXBXiX|.*XlXBXBXBXNXBXMXqXQ.!.cXBXkXb.c.x.v.H.",
"c.c.G.c.x.sXBXBXBXcXhXQ.N @         e L 8XcXNXBXzX;XK.K.v.z.x.H.kXBXBXqX< # H R.Y.8XBXvX2XlXBXBXBXNXfXQ.T.U.e . Y.BXNX:Xx.K.K.z.",
"c.c.c.c.m.BXBXBXNXqXe   & e V K H i ,     L vXvXNXBXaXK.v.x.c.b.+XBXBX/.@ F vXBXcXJ /.NXMXBXBXBXvXrXV qXBXBX`.@ N vXBXnXM.m.m.z.",
"c.c.z.z.yXBXBXcX0X2 @ S 6XfXgXhXgXfXqXW.w @ r 0XNXBXBXkXK.K.H.G.H.>XBXxX0XhXNXBXBXMXW.).MXBXBXMXdXJ gXcXBXMXcX0XgXNXNXBXK.z.z.c.",
"c.c.x.x.nXBXBXMXA # K gXhXvXNXNXNXvXxXhXqXF # e 6XBXBXBXaXK.G.c.c.H.>XuXvXvXBXBXBXNXcXK hXBXBXBXU.qXNXNXBXBXBXNXNXnXBXaXm.z.x.G.",
"z.z.K. XBXBXBXcX, t cXvXNXBXBXBXBXBXBXBXhXhX(., 2 qXNXBXBX;XH.c.x.z.x.x. XzXBXBXBXBXNXeXY.NXcXeXW.NXMXBXBXBXBXBXBXBXkXz.z.c.c.G.",
"z.z.K. XBXBXNXqX@ H hXNXBXBXBXBXBXBXBXBXNXcXfX`., 2 qXvXBXBXoXc.x.z.x.x.H.oXzXBXBXBXNXcXH eXcXH eXcXvXBXBXBXBXBXBX=Xm.z.v.b.G.c.",
"z.z.z.v.BXBXBXeX# S cXBXBXBXBXBXBXBXBXBXBXBXvXhX).o i gXBXBXyXz.n.K.K.K.m.x.-XBXBXBXNXfXQ.U._.H eXcXBXNXBXBXBXBXBX}.z.c.G.K.K.F.",
"z.z.z.z.aXBXBXBXw e hXNXNXBXBXBXBXcXmXcXcXBXBXvXgXQ.# L vXNXbXx.b.K.K.K.#XyXzXzXxX`.B = . o o . o u T.wXzXlXkX;X+Xx.x.c.G.K.H.c.",
"c.c.z.z.M.bXnXBXK @ V hXvXMXBXBXvXcX`.`.NXBXBXMXcXfXS # 6XBXNXyXb.c. XaXbXnXzXE.2 = l t.h.N.N.g.' U 7 , F gXMXNXnX-X.Xc.G.F.F.K.",
"c.b.z.z.z.:XBXNXfXu # L hXNXNXBXBXNXmX8XW.fXvXNXBXxXqXe r hXvXnX>XjXNXmXnXfXA 8 ! g.6.<.:.4.5.5.3.7.C.( 9 r `.vXlXBXNXyX.XF.F.K.",
"K.K.z.x..X.XuXNXmX7X2 . V gXcXNXBXMXNXcXhXP 8XMXNXBXcXU.  Q.NXBXBXBXBXcXwXu 7 | q.3.3.<.=.-.:.7.6.;.;.5.D.b , (.vXnXBXBXkXz.z.z.",
"K.K.z.=XnXkXsXBXcXmX~.# @ 2 P W.`.eXcXBXcXhXP `.NXcXcX0X# * eXcXBXNXeX7XN = G e.u.{ V.w.7.3.<.7.w.S.g.) ( r.i , ~.qXcXBXBX3Xz.z.",
"x.z.>XBXBXBXNXvX7XB # # t F Y.Q.).).'.8XcXxXvXY.Q.NXmXcXS   L hXH r # . # Y.wX9XY._.f 0 l m n c s 8 4 ~.9XeXW.6X& # 2 h ].NX@XK.",
"z.}.BXBXBXNXvX]., # i /.gXhXxXxXxXvXBXBXMXMXvXNXY.Q.cXcXQ.. 2 (.# @   # V BXvX0X_.I.. X -   O @ # : W.vXcXQ.qXB . @ # # H NXtX X",
"K.nXBXBXNXmX'.@ # W.fXxXmXBXBXBXBXBXBXBXBXNXBXcXcXT.W.BX7X@ @ r : # @ 2 fXcXMX/.qX> ; O - f b # : A vXlXqX7XU.@     @ 2 gXvXNX@X",
"oXBXBXBXBXgXt # !.gXvXNXBXBXBXBXBXBXBXBXBXNXNXBXNXcXL U.G . . . o . # ].cXhXQ.8Xt @     $ g.A.k y dXvXgXQ.4X, @       K NXNXNXnX",
"}.BXBXBXBXW.  S gXNXBXBXBXBXBXcXqX0X)./.Q.W.W.R.r.K S = 7 r.y   . @ L NXcX7X8XK       O 5 D.8.n _.xXMX^.eX, O         T.NXBXBXBX",
"}.BXBXBXBXF   4XcXNXBXBXBXBXBXcXxXBXMXBXBXBXNXcXK : 0 u.A.A.f   O S NXhXwXQ.^.+ O O O O s 9.<./ :XmX'.8XF O O   O O   `.BXBXBXBX",
"oXBXBXBXBXF   6XxXBXBXBXBXBXBXBXBXBXNXBXBXcX'.t O k N.2.3.S.z O O V BXmX!.0X, o @ . O o E 2.4.g.{.dX~.E.@ .       O # dXBXnXBXBX",
".XBXBXBXBXY.  H fXvXBXBXBXBXBXBXBXBXBXhXcXR.O   O 9 8.;.%.7.U O   X ^ /.6XM X O O . ; 5 B.3.,.A.! W.qXq - O - + @ @ = qXnXBXBXzX",
"K.iXBXBXnXfX2 @ /.cXcXBXBXBXBXBXBXBXvXBXH @ # O . = 9.-.,.4.(   @ @ b m b .     . $ d h.2.-.;.5.9.Y 8 $   O . $ 7 ! % rXnXBXBXaX",
"K..XnXBXBXNX).# , K qXNXBXBXBXBXMXcXhXS = r.$ -   & _ ,.;.3. .o @ O x D.g.{ ) ) '  .0.3.=.%.=.=.*.2.V.{ _ ) {  .Z.i.< lXzXBXBX3X",
"v.v.yXBXBXBXvX).e @ , K `.dXcXhXgXqXA % e.B.4 .   + Y <.=.4.0.9 X @ 7 8.-.=.3.g.9.*.4.4.:.-.4.4.:.<.3.8.k.8.;.3.0.U r vXBXBXBX#X",
"z.z.K.zXBXBXBXvXhXL #       2 , @   o c Z.2.s - O @ k q.*.%.7.e.+ O &  .*.-.=.T t.q.0.;.=.=.=.-.>.>.q.| d 3.;.5.@.a Z BXnXBXBXoX",
"z.z.x.M.zXBXBXBXvXvXfX(.H r 2 * 2 # 8 C.:.4.Y +     % g.*.=.:.V.4 O O E 7.4.$._ y i.i.u.d.g.@.f.) y.i.G c &.5.o.d.% ).MXnXnXiXK.",
"z.z.z.z.H.yXBXBXBXBXvXBXBXcXfXeXeX< R 7.3.&.g.%     O / ;.-.4.6.x   X 4 | 5.&.9.a y R.7X&X{.{.&X&X).S , d.-.#.} j i zXBXBXBX#XK.",
"m.H.M.H.x.z.-XBXBXnXBXBXBXBXNXMX).  n 3.3.>.S.5 + O   g w.*.4.*.g.% @ X v 9.5.3.g.% + . h C D j 5   o E 0.o.s.Q $ _.vXBXBXnXm.m.",
"K.K.K.K.z.x.G.oX;XiXkXBXBXBXBXBXH X k 7.4.>.0.c + O . % f.*.=.;.7.n +   % U O.o.5.f.c p I p p j j a u.@...[ p.3 J vXNXBXBXkXv.x.",
"m.b.b.c.H.H.x.x.F.F.c.J.3XBXBXvXt   5 A.;.<.*.f.% O @ . g 2.=.:.$.1.9 @ ; & R a.X.@.V.O.Q W W W [ k.k.[ s.p.9 N xXcXBXBXBXyXx.x.",
"x.x.x.x.K.K.z.z.c.F.F.F..XBXNXcX1   # d.4.;.>.S.x .   . $ f.;.;.$.<.d.4 : - . g a.a.....+.#.+...] ] [ s.~ % B xXcXBXBXBXBX+Xx.x.",
"H.m.v.z.v.v.z.z.c.c.G.G.oXBXBXcXe     z 0.%.<.3.d.. @   X g 8.<.;.*.7.R $ X . $ 3 v y.s.[ O.s.a.l.p.W 6 > R.hXvXnXBXBXBXsXx.c.m.",
"K.K.z.z.z.z.v.@X#X#X#XyXlXBXBXNXN     = g.-.%.;.9.c $   @ . Y 2.*.*.*.A.x + $ . + . % 6 g c v z a 3 w K 8XMXNXBXNXBXBXBX=Xx.c.K.",
"K.H.z.z.v.c.yXBXBXBXBXBXBXBXBXBXP @ + + t.3.%.:.0.C.5 ;   + 4 h.<.;.-.;.N.k >     .   + + < h A ! '.mXBXNXcXBXBXBXBXBXzXH.c.c.x.",
"K.K.z.z.b.c.#XBXBXBXBXBXcXBXNXNX`.. @ ; 9 9.;.-.%.5.( > +   ; 9 D.3.*.=.;.9.l # O . . + , 6XmXNXBXBXBXMXBXBXBXBXBXBXBXK.c.F.c.z.",
"m.v.z.z.H.J.H.aXBXBXBXvXfXQ.S u & @   O @ E 8.;.=.4.q.x . .   $ z N.&.=.;.;.V.c > . . < '.cXlXBXBXBXBXBXBXBXBXBXBXBX-XF.F.c.c.x.",
"z.z.z.z.K.K.c.H.BXBXBXBXMXBXcX8X).Y.X   O 5 g.&.5.-.7.N.7 # :     c q.;.;.-...j.! o 1 5XcXNXBXBXBXNXBXBXBXBXBXnXzXXXz.c.F.F.F.c.",
"x.c.x.x.K.K.c.x.yXBXBXBXBXBXBXBXNXBXL . O + a C.;.=.-.5.g.4 & . ; & k D...] k.~ 5 8 7XvXvXBXBXnX+XoX+X;X3X>X-X}.v.z.x.H.H.F.F.c.",
"c.c.x.x.K.K.x.c.K.BXBXBXBXBXBXBXBXcXgXV #   . E 2.,.5.4.-.d.6 % o # ; g u.l.v 4 F dXNXBXNXBXBX#XH.K.J.G.c.c.c.z.z.z.x.K.H.G.F.G.",
"x.c.x.x.c.m.x.x.c.,XBXBXBXBXBXBXBXBXMXcXB @ - % y.X.` ` X.#.p.6 +   - # 6 5 2 Q.BXNXBXBXBXBXaXG.c.c.c.x.c.c.c.x.x.x.c.H.G.F.c.F.",
"x.x.x.x.x.x.x.x.x.c.,XBXBXBXBXBXBXBXbXMXxXE.# : 3 y.l.k.[ +.j.l.b @ @ X < U.gXbXNXNXBXBXBXkXK.c.c.x.x.x.c.c.G.c.c.G.c.c.G.G.c.F.",
"x.x.m.m.x.c.x.c.m.H.H.K.-XiXkXBXBXBXBXBXMXBXeXP.t % 6 f g h g 9 5 , N W.eXBXvXBXBXBXBXBXsX.Xm.c.c.x.c.m.m.c.c.c.G.G.G.c.c.c.F.F.",
"x.c.J.K.x.x.x.x.K.J.F.c.G.G.z.XXzXNXBXBXBXBXBXBXcX].L A N i N H ^.qXBXBXBXBXBXBXBXBXBXsXv.x.x.x.x.x.b.K.m.x.x.c.c.c.G.G.F.F.c.c.",
"c.x.c.b.x.x.b.m.H.H.F.F.F.F.x.x.c.;XBXBXBXBXBXvXNXBXNXBXMXMXBXNXNXMXmXBXBXBXBXBXBXBX#Xb.x.z.v.c.b.x.x.m.m.m.m.c.F.c.c.G.c.c.c.c.",
"c.c.z.z.z.z.K.K.F.F.c.G.c.c.F.G.G.G.#XzXBXBXBXBXBXBXBXBXBXBXBXBXBXBXBXBXBXBXBXzX3X.Xm.x.x.z.m.H.m.z.z.x.c.K.H.c.F.c.c.c.c.c.c.c.",
"x.x.m.m.z.z.K.K.x.x.x.x.c.c.G.G.x.x.x.m.aXNXBXBXBXBXBXBXBXBXBXBXBXBXBXBXBXlX,XK.H.K.H.x.c.x.x.m.m.m.v.x.x.m.m.m.c.c.x.x.x.x.c.c.",
"z.z.K.H.z.x.K.K.z.z.z.z.c.c.F.c.z.z.z.z.m.#XBXBXBXBXBXBXBXBXBXBXBXBXBXaX+XH.c.x.c.K.H.G.G.G.x.z.v.K.m.z.x.x.m.K.G.z.z.z.z.z.x.c.",
"m.v.m.m.x.x.H.K.z.z.c.m.x.x.x.x.z.z.z.z.c.G.H.K.oXXXXXXX+X@X XXX XK.H.H.H.H.c.m.m.H.c.c.c.c.c.x.v.K.H.m.v.x.x.m.c.c.x.z.z.b.v.x.",
"K.K.z.z.c.c.J.J.z.z.H.K.x.z.z.z.z.z.z.z.c.c.F.F.x.z.m.K.m.z.c.c.c.x.b.c.H.K.K.K.c.x.c.c.G.G.c.x.m.K.K.K.H.x.x.z.x.J.m.z.x.K.K.z.",
"K.K.z.z.c.F.G.G.x.v.K.K.z.z.c.c.z.z.v.m.x.x.c.c.b.v.H.K.v.z.c.H.c.x.c.F.G.m.H.K.c.x.c.c.c.G.c.c.x.H.H.K.H.x.x.m.m.m.v.z.z.m.m.m.",
"K.K.z.z.F.F.G.G.c.c.H.K.z.z.K.H.x.z.H.K.x.z.c.c.K.K.K.K.b.x.H.K.x.x.c.c.c.x.H.K.c.x.c.c.G.c.c.G.c.x.c.K.H.x.c.K.m.z.z.z.z.z.z.K.",
"m.m.v.v.F.c.G.c.G.G.K.K.m.v.K.K.v.x.m.m.m.x.x.c.H.K.K.m.c.c.c.G.c.x.c.F.x.x.b.H.c.x.c.c.G.c.c.x.x.x.m.K.H.x.m.K.m.z.z.m.v.z.z.K.",
"z.z.K.K.G.c.F.G.G.c.K.K.K.K.K.K.c.c.x.z.M.K.m.c.H.K.m.x.c.c.c.x.c.G.F.G.c.x.x.x.x.x.c.c.G.G.x.z.x.x.m.K.m.x.m.K.M.z.v.K.H.z.z.K."
};
