/* XPM */
static char *_8cdf06772b746cef1efd30607a7cc67R1sPMG9ouY6M8iQy[] = {
/* columns rows colors chars-per-pixel */
"64 64 245 2 ",
"   c #040303",
".  c #0A0303",
"X  c #040A04",
"o  c #0C0903",
"O  c #03030B",
"+  c #0A050B",
"@  c #050A0B",
"#  c #0C0B0B",
"$  c #120503",
"%  c #160907",
"&  c #1C0D0B",
"*  c #19120A",
"=  c #050312",
"-  c #070517",
";  c #150814",
":  c #09121B",
">  c #131313",
",  c #181817",
"<  c #1C1C1C",
"1  c #280D05",
"2  c #26190A",
"3  c #261A15",
"4  c #351B11",
"5  c #37260B",
"6  c #372E11",
"7  c #392916",
"8  c #0F0D23",
"9  c #3E1D23",
"0  c #242424",
"q  c #2B2326",
"w  c #2C2B2C",
"e  c #3B2C27",
"r  c #342832",
"t  c #2D3535",
"y  c #343434",
"u  c #3A3537",
"i  c #3D3D3C",
"p  c #4B2E14",
"a  c #5E2216",
"s  c #46361B",
"d  c #57391C",
"f  c #47322A",
"g  c #543A26",
"h  c #513133",
"j  c #6E2F2F",
"k  c #5C461C",
"l  c #6A491D",
"z  c #716419",
"x  c #5A4522",
"c  c #50472B",
"v  c #674829",
"b  c #675325",
"n  c #795A2A",
"m  c #694836",
"M  c #775534",
"N  c #6C6026",
"B  c #786529",
"V  c #7B6636",
"C  c #384045",
"Z  c #454445",
"A  c #474649",
"S  c #4B4C4B",
"D  c #4C4F50",
"F  c #575655",
"G  c #5B5C5C",
"H  c #605C5E",
"J  c #7F6D47",
"K  c #63655B",
"L  c #646464",
"P  c #66646B",
"I  c #6B6B6B",
"U  c #706E6C",
"Y  c #747473",
"T  c #7A7677",
"R  c #7C7C7C",
"E  c #883138",
"W  c #865A34",
"Q  c #876B37",
"!  c #8F7434",
"~  c #947836",
"^  c #A77D38",
"/  c #866E46",
"(  c #947545",
")  c #81777E",
"_  c #7F8874",
"`  c #888038",
"'  c #9A8538",
"]  c #A98736",
"[  c #AC9837",
"{  c #B6983A",
"}  c #BCA338",
"|  c #F1B21B",
" . c #C58E38",
".. c #ED9D35",
"X. c #CBB53B",
"o. c #D3B73A",
"O. c #E7A42A",
"+. c #F6B727",
"@. c #EBA737",
"#. c #F3A433",
"$. c #E7B738",
"%. c #F1B330",
"&. c #F5CB09",
"*. c #FACD0E",
"=. c #F3D00A",
"-. c #EDCB19",
";. c #F4CD14",
":. c #FBCC14",
">. c #F5C518",
",. c #F4CC1D",
"<. c #FACB1B",
"1. c #EBD211",
"2. c #F7D110",
"3. c #F4D11C",
"4. c #ECCD27",
"5. c #EECB2C",
"6. c #F4CC23",
"7. c #FACA23",
"8. c #F9C628",
"9. c #F3CC2C",
"0. c #EED027",
"q. c #F6D32B",
"w. c #E8CA37",
"e. c #F5CA35",
"r. c #ECD139",
"t. c #F6D238",
"y. c #998748",
"u. c #9F8A5B",
"i. c #A68B46",
"p. c #AE914B",
"a. c #B9A347",
"s. c #BAA556",
"d. c #A39470",
"f. c #BCB174",
"g. c #CE8E51",
"h. c #E39C49",
"j. c #F39F4C",
"k. c #E99C55",
"l. c #C9A746",
"z. c #C9B446",
"x. c #D9BA47",
"c. c #DBBA58",
"v. c #E7A644",
"b. c #E5B54B",
"n. c #DB9D66",
"m. c #CFAF67",
"M. c #AEDC6C",
"N. c #B4DD6C",
"B. c #BEDF6D",
"V. c #B5DE71",
"C. c #BADF72",
"Z. c #B6DF7A",
"A. c #BDE174",
"S. c #BEE17C",
"D. c #DDC446",
"F. c #D4C355",
"G. c #EACA46",
"H. c #F3CB48",
"J. c #F1D24B",
"K. c #E7C457",
"L. c #C0DF6F",
"P. c #F0D86A",
"I. c #C0E06F",
"U. c #C1E275",
"Y. c #C5E47A",
"T. c #777683",
"R. c #848484",
"E. c #898788",
"W. c #8D8C8D",
"Q. c #96928C",
"!. c #898795",
"~. c #949494",
"^. c #94979E",
"/. c #9C9C9C",
"(. c #A49A97",
"). c #ABA590",
"_. c #A29DA5",
"`. c #A3A2A3",
"'. c #A9A8A5",
"]. c #ABACAB",
"[. c #AFAEB5",
"{. c #B3B3B3",
"}. c #B8B9B6",
"|. c #BCBCBC",
" X c #ECBC8E",
".X c #C6BDBD",
"XX c #BCE285",
"oX c #F3D496",
"OX c #C9E682",
"+X c #C3E48B",
"@X c #CAE689",
"#X c #DEEE8B",
"$X c #CAE693",
"%X c #CAE797",
"&X c #D0E794",
"*X c #D1E995",
"=X c #D3EA9D",
"-X c #ECF394",
";X c #FBF89E",
":X c #C9C9BE",
">X c #CEEAA5",
",X c #D3EAA2",
"<X c #D4EBAB",
"1X c #DAEDAB",
"2X c #D5ECB2",
"3X c #DCEEB4",
"4X c #DEF0BA",
"5X c #FFFAA2",
"6X c #FFFAA9",
"7X c #ECE8B3",
"8X c #E2F1BB",
"9X c #B7B3C1",
"0X c #BFC0C0",
"qX c #C4C4C4",
"wX c #C7C8C3",
"eX c #CBCBCB",
"rX c #D5CFD0",
"tX c #D4D4D4",
"yX c #DAD8D5",
"uX c #DCDCDC",
"iX c #E0D1C4",
"pX c #DDE6D7",
"aX c #E2F2C4",
"sX c #E4F3CB",
"dX c #E9F4CC",
"fX c #F0EDD8",
"gX c #EBF5D3",
"hX c #EAF6D7",
"jX c #EDF6DC",
"kX c #E4E4E4",
"lX c #E7E8E6",
"zX c #ECECEC",
"xX c #F2F9E3",
"cX c #F4F4E8",
"vX c #F6FAED",
"bX c #FBFBEC",
"nX c #EEF2F0",
"mX c #F4F4F4",
"MX c #F6F6F5",
"NX c #F5FAF3",
"BX c #FAFCF5",
"VX c #F7F7F9",
"CX c #FAFAFA",
"ZX c #FDFDFC",
"AX c #FEFEFD",
/* pixels */
"B.B.M.M.Y.Y.M.M.B.B.L.B.U.Y.I.I.B.L.B.B.B.I.B.N.I.Y.B.N.M.M.A.Y.U.I.N.M.M.M.N.I.N.M.C.Y.A.M.A.Y.Y.Y.U.N.B.N.N.M.N.M.M.Y.Y.N.B.U.",
"L.B.M.N.Y.Y.M.M.B.I.B.B.U.Y.I.I.L.L.L.L.U.U.B.N.U.Y.B.N.M.M.A.Y.I.I.N.M.M.M.N.B.N.M.A.Y.A.M.V.Y.Y.Y.U.N.N.N.N.B.N.M.B.U.U.B.N.Y.",
"Y.Y.Y.Y.M.M.B.B.I.L.M.M.M.M.B.L.L.B.B.L.I.N.N.B.N.B.U.Y.Y.Y.A.M.B.I.N.M.A.Y.C.M.A.Y.A.M.V.Y.A.N.N.N.N.N.N.N.I.I.I.I.B.N.N.N.N.N.",
"Y.Y.Y.Y.M.M.B.B.I.B.M.M.M.M.B.L.B.L.L.B.B.N.N.N.N.N.U.Y.Y.Y.V.M.N.B.N.M.A.Y.C.M.V.Y.A.M.V.Y.Y.N.N.N.B.N.N.B.B.I.Y.I.B.N.N.N.N.B.",
"N.N.N.B.Y.Y.M.M.M.M.Y.Y.M.M.B.B.L.B.L.L.U.Y.B.N.N.N.N.N.B.N.A.Y.N.M.N.B.N.M.A.S.Y.Y.U.M.M.M.N.L.L.L.B.L.B.N.N.N.N.M.N.Y.Y.N.B.N.",
"N.N.N.B.Y.Y.M.M.M.M.Y.I.M.M.B.B.L.B.B.L.Y.Y.B.N.B.N.N.C.N.N.Y.Y.C.Z.Y.Y.A.A.A.Y.Y.Y.A.N.M.M.N.B.L.B.L.B.B.N.N.N.N.M.N.Y.Y.N.N.N.",
"Y.Y.Y.Y.M.M.M.M.Y.U.M.M.B.B.B.B.L.L.B.N.B.N.N.N.A.Y.Y.Y.I.B.N.+XjXCXBXAXAXvX=XY.Y.Y.L.B.B.B.B.L.B.B.L.L.B.B.B.M.N.Y.U.N.B.N.B.Y.",
"Y.Y.Y.Y.M.M.M.M.Y.Y.M.M.B.B.L.L.L.L.N.N.N.N.N.N.U.Y.Y.Y.I.I.N.bXAXAXAXAXAXAXAXjX&XY.L.L.B.B.L.B.I.L.B.I.L.B.B.M.A.Y.U.N.N.N.N.Y.",
"Y.Y.M.M.Y.Y.Y.Y.Y.*X3XgXhXhXaX>XXXV.U.Y.B.B.B.L.L.B.B.B.L.L.+XAXAXAXAXAXAXAXAXAXBX*X#X;X;X;X;X;X;X;X-XY.A.M.V.Y.A.M.N.B.B.B.B.M.",
"Y.Y.M.M.Y.Y.Y.*XbXAXAXAXAXAXAXAXAXNX4XOXI.L.B.L.B.L.B.B.B.B.+XAXAXAXAXAXAXAXAXAXAXxX#X5X5X5X5X5X5X5X-XOX$XZ.C.Y.S.M.V.B.B.B.B.M.",
"M.N.M.M.Y.Y.,XBXAXAXAXAXAXAXCXCXCXCXAXNXdX&XU.Y.N.M.M.N.N.M.C.ZXAXAXAXZXZXCXCXCXAXAXdX;XoX X XoXfXbXbXBXAXNXvX2X*XXXV.B.B.M.N.A.",
"M.M.M.N.Y.@XBXAXAXAXAXCXZXmXzXlXzXmXAXAXAXAXjX&XN.M.M.M.M.M.B.xXAXAXAXVXkXuXmXCXBXAXBX6XoX XfXCXAXBXCXAXAXzXuXzXCXCX%XB.B.M.V.Y.",
"B.B.B.B.C.NXCXCXAXmXNXeXF < > > > w I tXCXmXCXBX8XY.U.Y.V.M.N.,XAXAXCX|.# > S Y qXCXCXcX7XBXZXZXBXmXmX].R i # < yXCXAXXXN.Y.A.N.",
"B.B.B.B.,XAXAXAXCXtXG #   > w r w #   > L tXNXCXAXxX*XY.V.M.N.U.gXAXAXL   Y mXkX/.R.mXCXbXZXZXCXmXuXT {.kXlXi   ~.BXAX2XM.Y.A.M.",
"I.B.M.N.hXAXCXmXyX0 @ 0 W.eXkXnXlXeXY < # # {.CXCXAXBX$XA.Y.B.B.,XNXAX|.I kXmXmXmXeXI mXCXZXZXCXnXL kXmXCXVXtXI yXCXCXsXA.V.V.B.",
"I.N.M.M.BXAXAXzXy @ P kXzXmXmXCXmXnXlXuXR.# # R.NXCXAXCX@XY.U.B.B.&XhXmXmXmXZXAXCXCXqX`.ZXCXZXCXG tXmXBXAXAXVXNXCXCXAX8XA.M.M.B.",
"N.N.Y.+XAXAXCX{.@ y kXmXCXCXAXZXZXZXVXnXzX{.r # E.mXCXAXxXOXU.B.N.M.N.$XsXAXAXCXZXZXBXY uXCXCX|.~.VXCXCXAXAXZXZXCXAXxXXXN.B.B.B.",
"M.M.Y.*XAXAXZXR   /.nXCXZXAXAXAXAXZXZXZXmXlXtXr   ~.mXNXAXsXU.B.N.M.N.N.U.aXAXAXAXZXmXtXT.ZXNXT AXVXCXZXAXAXAXAXCXgXZ.N.M.B.B.B.",
"M.M.N.XXAXAXAXR   [.mXAXAXAXAXZXAXZXAXZXZXCXmXtX0 # }.VXCXBXS.N.C.A.A.U.A.A.gXAXCXCXCXAXE.BXqX/.CXVXVXZXAXAXAXAXjXM.M.N.B.Y.U.B.",
"M.M.M.V.BXAXCX~.  Y mXAXZXZXAXAXZXZXZXZXCXCXCXzXtX0 q lXCXAX4XM.A.Y.Y.Y.@X$XxXCXVXuX'.Y y i w A R {.kXBXBXAXxXgX3XM.N.B.B.Y.Y.L.",
"B.N.M.M.sXAXmXtX# # eXNXVXZXAXVXVXtXeXmXCXZXZXNXlX`.+ G mXCXAX@XC.C.C.,XCXBXxXpXG > o 6 b V N k 5 . : T.lXmXCXBX<XB.N.B.L.I.I.U.",
"B.B.M.M.XXAXCXCXR   A zXVXZXAXAXCXmXtX~.kXZXAXCXmXlXI X ].CXAX4XOX3XjXCXZXxXR., e ' o.r.e.q.r.8.5.o.` 5 q _.CXvXbXxXgXY.B.L.I.Y.",
"Y.A.M.M.A.=XAXCXzXi # A uXVXmXAXAXCXmXkXR.qXmXVXCXmXtX> i zXCXCXNXAXmXmXnXL * ! K.r.=.:.:.7.8.9.,.6.e.b.n * W.cXbXCXAXvX$XM.N.N.",
"Y.U.M.Z.sX@XvXBXmXmXA   # ].AXAXAXZXZXmXNXW.^.AXAXCXmXL   R AXAXCXAXAXmXi < m.J.t.t.q.<.*.&.=.;.,.q.q.t.P.d.  !.ZXAXAXBXBXS.M.N.",
"N.A.%XBXAXBXCXmXzXW.w X   , S P T./.qXzXmXmX_.T.NXNXmXtX> < zXmX|.R F i @ K ).d./ y.! [ z.b.D.l.] ! b u.d.(.S K A H R.eXBXsXV.A.",
"M.+XAXAXAXCXmXtXZ   > A ^.eXlXzXmXzXuXuXmXnXCX'.R.zXVXCXy + R.R.+     @ w zXBXlX.X'.    # 2 * $     Y CXAX9XuXG X     > {.VX$XOX",
"A.jXAXAXAXmXuX0 # u eXzXzXnXVXZXCXCXCXAXAXZXCXmX].Y CXAXF O + P       < kXmXmXT eX,   X O . O @ : C mXBXuX'.].#       , uXVXaXV.",
"@XAXAXAXBXnXy # I uXzXBXZXZXZXZXCXCXAXAXCXAXCXmXCX~.R VXL .   # +   + ~.mXCX{.kXA + O O 3 s.y.* > eXmXbX/.eX>         ~.VXCXNX>X",
"<XAXAXAXAX_.# F zXzXVXZXAXAXZXZXmXnXkXkXuXyXyXuXuXkXK S , 3   .   @ L CXmXeX].E.        x r.J.7 ).mXCX'.uXZ O         }.mXCXAXvX",
"2XAXAXZXmXi X 9XnXZXZXAXAXZXmXtX}.|.}.9XeXtXqX}._ > # s [ m.X   O > pXnXCX_.eX.     O = V w.t./ AXnXtX9XI             eXCXCXAXvX",
"2XAXAXAXzX, # tXVXZXAXAXAXZXVXVXVXZXZXZXCXmXzXE.< 6 p.G.5.c.o   + [.VXnXQ.rXr # O O     ' 4.t.i.BXzX/.qX, O   O = O > lXAXBXAXNX",
"=XAXAXAXnX0   rXmXZXZXAXAXZXZXZXAXZXZXVXVXuXA   O y.,.;.=.G.% O   F nXwX:XK   X     - 2 X.,.7.a.tX_.qX<             w mXNXAXAXxX",
"OXAXAXAXZXL   R.lXCXZXZXAXAXAXAXAXAXCXnXqX<     O n q.8.*.e.p O   X U Q.{.: - - O + ; ! G.<.<.D.n '.I 8 - - - O X < 0 zXBXAXAXsX",
"Y.gXAXZXZXyX, > ^.zXmXZXZXAXAXAXAXCXNX'.< y O O + x q.7.7.9.z O @   u.y.v 5 3 2 p k { w.<.>.<.8.4.' x 6 2 5 7 x y.u.e cXBXZXAX1X",
"C.%XAXZXZXmX`.>   A qXnXCXZXCXAXmXmX'.; x f.$ O   3 w.,.6.9.a.o X   ] t.t.r.J.J.H.t.7.:.:.*.*.:.<.4.r.r.H.H.q.J.b.n Z BXBXAXCXY.",
"M.N.gXAXZXCXmX}.q X > i W.9XuXyX|.R.> d F.F.& O   . } ,.<.<.J.* @ = B 9.<.;.+.] e.>.7.>.<.7.7.7.<.,.0.J.l.6.<.8.b.p R BXBXAXxXY.",
"M.M.S.vXAXAXCXCXlX~.i #   + # #     % l.8.J.3 O     B 4.:.*.t.b   - 5 D.*.<.6.d a.X.5.9.6.<.<.8.0.4.X.' ^ 3.7.8. .$ 9XCXBXAX8XY.",
"M.M.M.S.vXAXAXBXmXCXCXeXT i w < w   Q 5.:.q.k       7 r.:.:.,.} .     [ ,.8.1.` F ).u.u.s.l.l.p.y.d.(.r l.>.t.%.n > zXCXBXAX=XY.",
"V.A.V.V.S.aXAXAXCXCXCXCXAXmXmXlXQ.# c.3.8.-.!       ; D.<.7.<.w.f o @ s r.8.,.D.2 q ) .XtXyXyXiX{.L , 6 w.9.@. .4 ) NXAXAXAXY.A.",
"Y.Y.Y.Y.M.M.1XBXAXAXZXZXAXAXCXAXS # l.6.6.=.l.$ O O . V 4.:.,.3.[ $ o . / $.8.5.{ 4 $ 9 h f h j 4 + 6 F.8.#.k.d u vXmXAXAXjXN.N.",
"A.A.A.A.C.C.N.C.&X3XxXAXAXAXCXAX0 @ ~ 6.6.1.J.s # O + % x.*.<.,.w.d + o $ ^ @.+.e.F.l E E E E E a Q K.| ..h.W $ qXmXVXAXAX3XN.N.",
"N.N.N.N.Y.Y.M.M.L.L.L.Y.gXAXAXkX> @ g 9.<.3.q.i.. O   . ~ ;.:.<.1.F.2 + = * ! h.%.%.w.@.g.p. . .v.#.#...k.W $ _.VXVXAXAXCX+XN.N.",
"A.B.N.N.A.A.M.M.L.B.L.L.=XAXAXuXo   . x.<.<.,.G.2       7 x.<.<.=.4.~ % # = $ M g.j.O.O.#.@.#.@...O.@.g.g 3 ^.nXCXAXAXAXbXC.N.U.",
"Y.Y.M.M.M.M.M.M.L.L.L.L.3XAXAXkX>     i.7.=.6.5.( .       n ,.,.,.=.J.v . . . . 1 m g.j.@.v.j.v.n.g.j $ r eXnXmXBXAXAXAX2XN.B.Y.",
"Y.Y.M.M.N.N.$X<X1X1X3XjXAXAXAXmX0 @ + d H.*.:.<.H.p ; . + * a.5.;.;.6.D.6 # $ . . . & 4 p g a p 3 1 A '.zXVXCXAXAXAXAXbXC.B.N.C.",
"Y.U.M.M.B.U.vXAXAXAXAXCXCXAXZXAXf   + & l.:.=.<.e.a.$ O X # 6 D.<.<.<.6.D.f + X   . O O $ u H U Q.rXVXCXVXVXAXAXAXAXAX3XB.L.N.N.",
"A.A.M.M.U.U.8XAXAXAXAXCXmXAXBXVXL @   - b 5.6.:.*.r.V ; .   ; n G.6.:.:.6.x.6 # O .   = Z mXmXCXCXZXCXCXAXAXAXAXAXAXxXL.L.B.B.N.",
"M.M.M.N.Y.Y.U.xXAXAXAXmXtXR.C < @   X O % s.5.:.:.8.D.5 .     % Q r.;.;.6.6.x.p ;   . c uXmXmXAXZXZXZXZXAXAXAXAXAXvXS.L.B.L.L.L.",
"N.N.M.N.Y.Y.B.,XAXAXAXZXZXZXzXqX[.U +   O p w.6.8.>.e.z.* =   . & y.0.:.;.8.#.n.g X t kXmXBXAXAXCXBXZXCXZXAXAXCXgXV.N.A.B.U.B.B.",
"B.B.N.N.Y.Y.N.C.bXAXAXAXVXZXZXVXVXzXw + = . ! e.,.:.7.9.] & # = - % ' H.O...h./ * S nXmXAXAXAXdXOX$X=X1X8X3X&XA.M.M.N.Y.Y.B.B.L.",
"B.B.N.N.Y.U.N.N.=XAXAXAXZXAXAXZXCXmXrXw @   * a.-.:.8.<.t.^ ; $ X + ; M n.p.g & E.zXCXCXCXAXbXOXI.U.U.B.B.B.B.N.M.N.N.Y.I.L.L.B.",
"N.N.B.N.N.B.N.N.C.xXAXAXAXAXAXAXCXVXVXeX, X O 5 c.+.>.+.%.j.( ; @   - # g 1 w eXVXVXZXAXAXAX1XB.B.N.N.N.N.B.B.B.B.B.B.B.I.B.L.L.",
"N.N.B.N.N.N.B.N.N.Y.hXAXAXAXAXAXAXCXbXVXuXK - ; 4 g.h.v.@.....s.e # X o 3 _.zXVXCXCXAXAXAXdXY.B.N.B.N.C.B.B.B.B.B.B.B.B.I.L.L.B.",
"N.N.Y.Y.N.N.N.N.Y.Y.L.@X4XjXNXCXAXAXbXVXVXbX{.S 3 4 f v m m v f < > Z ~.kXZXNXAXCXAXAXAXaXN.N.N.N.N.N.Y.Y.N.B.L.B.B.B.B.L.B.B.I.",
"B.N.U.A.N.N.N.N.Y.Y.L.L.L.L.N.3XCXAXAXAXAXZXAXAXkX/.A w 0 0 y G `.uXAXAXZXAXAXAXAXAXAX4XN.N.N.B.B.N.N.Y.L.N.B.B.B.B.B.B.L.L.L.L.",
"B.B.M.M.N.N.Y.Y.L.L.B.L.B.B.L.B.OXhXAXAXZXZXCXmXAXCXCXCXmXmXCXVXCXVXVXZXAXAXAXAXAXxX$XV.N.M.V.Y.A.M.M.N.C.Y.Y.N.B.B.B.L.B.B.I.B.",
"B.B.N.M.M.N.Y.Y.B.B.B.N.B.B.L.L.B.A.8XZXZXAXAXAXAXAXAXZXAXZXAXAXAXAXAXAXAXAXAXxX3XY.Y.B.N.M.N.U.A.V.N.N.C.U.U.C.B.B.B.B.B.B.N.B.",
"M.V.Y.Y.M.N.Y.Y.M.M.M.M.B.B.L.B.M.M.M.%XAXZXAXAXAXAXAXAXAXAXAXAXAXAXAXAXAXAX1XN.A.Y.U.B.B.B.N.M.V.Y.A.M.N.N.C.Y.I.M.M.M.M.M.M.B.",
"M.V.Y.U.M.N.Y.Y.M.M.M.N.N.B.B.B.M.M.M.M.@XdXAXAXAXAXAXAXAXAXAXAXAXAXCXgX=XY.B.N.B.Y.I.B.B.I.B.M.V.Y.U.N.N.N.C.U.I.N.M.M.M.M.N.B.",
"Y.A.M.M.B.I.Y.Y.M.M.Y.Y.M.M.M.M.M.M.M.M.N.B.Y.@X$X%X=X<X%X%X$X&X+XY.A.L.Y.Y.Y.Y.B.N.B.B.I.B.B.N.A.Y.Y.Y.A.N.N.M.N.Y.U.M.N.Y.U.M.",
"Y.Y.M.M.B.L.I.U.N.N.Y.Y.M.M.M.N.M.M.M.N.B.B.B.B.N.M.S.Y.C.N.N.B.B.N.B.L.L.Y.Y.Y.I.N.B.B.I.I.B.N.A.U.Y.Y.U.N.N.N.V.Y.A.M.M.Y.U.M.",
"Y.Y.M.M.L.L.I.I.B.I.Y.Y.M.M.U.U.N.M.S.Y.M.M.B.I.Y.Y.Y.Y.N.N.U.Y.N.N.B.B.N.N.U.Y.I.N.B.B.B.B.I.B.B.N.A.Y.U.N.C.Y.A.M.M.M.M.M.N.Y.",
"Y.Y.M.M.I.B.B.I.B.B.Y.Y.N.N.Y.Y.N.M.A.Y.N.M.B.L.Y.Y.Y.Y.N.B.A.Y.B.N.B.B.B.N.L.Y.I.N.B.B.I.B.B.B.B.N.B.Y.U.N.C.Y.A.M.V.M.M.M.V.Y.",
"M.M.Y.Y.B.L.L.B.I.B.Y.Y.Y.Y.Y.Y.B.B.M.M.Y.Y.N.N.U.Y.B.N.B.B.B.N.B.B.L.B.B.N.N.N.N.N.N.B.I.I.N.M.M.N.A.Y.U.N.C.Y.Y.M.N.Y.U.M.M.Y."
};
