/* XPM */
static char *e8640e8f082f4e37a97ab479382b29fbnrMuU7RpmXvrgPmR[] = {
/* columns rows colors chars-per-pixel */
"64 64 196 2 ",
"   c #1E1B1E",
".  c #221E1F",
"X  c #25211E",
"o  c #29231F",
"O  c #2D291E",
"+  c #312C1F",
"@  c #3A361C",
"#  c #231E20",
"$  c #262122",
"%  c #2C2523",
"&  c #2D2924",
"*  c #2B2829",
"=  c #332D27",
"-  c #353221",
";  c #3A3522",
":  c #3A3629",
">  c #3B3736",
",  c #453F1F",
"<  c #402D20",
"1  c #443D23",
"2  c #553823",
"3  c #5D3D25",
"4  c #534D1E",
"5  c #665E1E",
"6  c #464121",
"7  c #4C4522",
"8  c #4F4B2D",
"9  c #514C22",
"0  c #5E4822",
"q  c #595123",
"w  c #5C5726",
"e  c #4F4A3C",
"r  c #575338",
"t  c #694627",
"y  c #754A27",
"u  c #635C22",
"i  c #695B23",
"p  c #625D37",
"a  c #795336",
"s  c #6C6423",
"d  c #6B6526",
"f  c #746D23",
"g  c #7A6F24",
"h  c #7B7424",
"j  c #7B7525",
"k  c #6E6931",
"l  c #4A4747",
"z  c #554E4A",
"x  c #555245",
"c  c #575455",
"v  c #5F5D5B",
"b  c #615D52",
"n  c #6D684A",
"m  c #726E47",
"M  c #676457",
"N  c #726A58",
"B  c #76725F",
"V  c #666362",
"C  c #706D69",
"Z  c #797568",
"A  c #757373",
"S  c #7F7D7D",
"D  c #8B562B",
"F  c #965928",
"G  c #A15F2B",
"H  c #817926",
"J  c #847C25",
"K  c #897E26",
"L  c #A7632D",
"P  c #B66B2D",
"I  c #D0782E",
"U  c #D67C31",
"Y  c #806D5F",
"T  c #807063",
"R  c #847D72",
"E  c #8C8325",
"W  c #8B832A",
"Q  c #938B26",
"!  c #958B27",
"~  c #9E9326",
"^  c #9F962B",
"/  c #A49A27",
"(  c #A59B27",
")  c #A99E26",
"_  c #A49B29",
"`  c #ABA227",
"'  c #ACA329",
"]  c #B2A728",
"[  c #B5AA29",
"{  c #B9AD29",
"}  c #BAB027",
"|  c #BEB229",
" . c #F28732",
".. c #F28932",
"X. c #C2B62A",
"o. c #C6BA2A",
"O. c #CABE2A",
"+. c #CEC127",
"@. c #CDC12A",
"#. c #D3C62A",
"$. c #D6CA2A",
"%. c #DBCD2B",
"&. c #DED22B",
"*. c #E4D52C",
"=. c #E7DA2B",
"-. c #EBDC2C",
";. c #EFE12C",
":. c #F5E52D",
">. c #F7E82D",
",. c #8A857A",
"<. c #97CE66",
"1. c #9ACF69",
"2. c #9CD067",
"3. c #9DD169",
"4. c #A4D56A",
"5. c #ACD769",
"6. c #AEDC6C",
"7. c #B5DD6C",
"8. c #BDDF6D",
"9. c #B6DF71",
"0. c #B9DF71",
"q. c #BCE173",
"w. c #B7E07D",
"e. c #BEE17B",
"r. c #C0E06F",
"t. c #C1E275",
"y. c #C5E57A",
"u. c #CEE57A",
"i. c #8B8987",
"p. c #918D86",
"a. c #93918C",
"s. c #98978D",
"d. c #999793",
"f. c #A29F9C",
"g. c #A5A29D",
"h. c #A5A5A1",
"j. c #A9A8A5",
"k. c #AEADA9",
"l. c #B1AFB0",
"z. c #B5B4B4",
"x. c #BCBBBA",
"c. c #E9B184",
"v. c #EDBE89",
"b. c #B2DB8B",
"n. c #BCE286",
"m. c #F1CC8F",
"M. c #F5D994",
"N. c #C4E383",
"B. c #C9E585",
"V. c #CAE78B",
"C. c #D5EA84",
"Z. c #DBEB85",
"A. c #CCE693",
"S. c #C8E798",
"D. c #D3EA9B",
"F. c #E1EE8D",
"G. c #F9E79A",
"H. c #EAF293",
"J. c #F3F49B",
"K. c #FCF29E",
"L. c #D5EAA2",
"P. c #D5EBAD",
"I. c #DAEDAB",
"U. c #D5EDB2",
"Y. c #DEEFB5",
"T. c #DDEFBB",
"R. c #DFF1B9",
"E. c #FFFAA2",
"W. c #F4F5AA",
"Q. c #E0EFB7",
"!. c #E3F1B9",
"~. c #C5C4C3",
"^. c #C8C7C7",
"/. c #CCCBCB",
"(. c #D5D5D4",
"). c #DBDBDB",
"_. c #E8F3C7",
"`. c #E4F2CB",
"'. c #E1E1DE",
"]. c #E4F2D3",
"[. c #EBF5D3",
"{. c #ECF6DA",
"}. c #EFF8DF",
"|. c #F9FAD4",
" X c #E5E4E3",
".X c #E7EAE2",
"XX c #ECECEB",
"oX c #F2F9E3",
"OX c #F1F0ED",
"+X c #F6FBEC",
"@X c #F4F4F3",
"#X c #F7F9F5",
"$X c #F9FBF6",
"%X c #FCFDFB",
"&X c #FDFDFB",
"*X c #FEFEFD",
/* pixels */
"8.8.6.7.y.y.6.6.8.8.8.r.y.y.r.8.8.8.8.8.u.u.7.7.y.y.8.7.6.6.t.y.r.8.6.6.6.6.8.8.7.6.q.y.9.6.q.y.y.y.q.7.7.7.7.7.7.6.9.y.t.7.8.y.",
"t.q.9.9.q.q.7.7.r.8.7.7.q.q.8.r.r.8.r.8.r.r.7.7.t.t.8.0.9.9.e.q.8.r.6.6.7.0.8.7.9.0.q.q.q.9.q.t.t.t.8.7.7.7.8.8.9.7.0.t.8.7.0.t.",
"y.y.y.t.6.7.r.8.8.8.6.6.6.7.8.8.r.8.8.8.7.7.7.7.7.7.t.y.y.y.7.6.8.8.7.6.e.y.7.6.e.y.9.6.q.y.q.7.7.7.9.7.7.7.8.u.t.8.8.7.7.7.7.7.",
"t.t.t.q.7.0.7.7.8.8.7.9.6.7.r.8.8.8.r.8.8.8.7.8.7.9.t.t.e.q.q.9.8.7.7.7.q.q.q.7.t.y.9.6.q.q.0.7.7.8.7.8.8.7.0.r.8.8.7.0.8.7.8.7.",
"7.7.7.0.y.y.6.6.6.7.y.t.6.6.8.8.r.8.r.8.y.u.7.7.8.7.9.7.8.7.t.y.6.6.8.8.6.6.q.y.y.y.q.6.6.6.7.r.r.8.8.8.8.7.7.7.6.6.q.y.q.7.7.8.",
"q.q.9.q.q.q.6.6.9.7.t.t.7.7.8.8.r.8.8.8.t.t.7.7.0.0.8.r.8.7.q.q.6.6.8.r.7.7.y.y.y.y.0.7.7.7.8.r.r.r.r.r.8.8.7.7.7.7.q.t.q.7.7.0.",
"y.y.y.t.6.6.6.7.y.y.6.6.8.8.8.8.8.r.7.7.7.7.7.7.y.y.y.y.8.r.7.6.6.6.7.8.8.r.y.y.y.y.r.8.8.8.8.8.8.r.r.r.8.8.8.6.q.y.q.7.7.7.0.y.",
"y.y.t.t.9.7.9.9.y.t.6.6.8.8.8.8.7.8.8.8.7.8.7.8.t.y.t.t.8.8.7.6.7.7.8.8.8.8.q.y.y.y.u.u.u.u.u.u.u.u.r.r.8.7.7.7.q.e.8.7.8.8.0.t.",
"y.q.6.q.y.y.y.y.y.y.r.8.6.6.6.6.6.6.y.y.8.r.r.r.8.8.8.r.8.8.6.5.y.y.9.6.8.8.8.r.t.y.H.E.E.E.E.E.E.E.F.y.q.6.0.y.q.6.7.8.r.8.8.6.",
"e.q.6.7.y.y.y.t.y.t.8.8.7.7.7.9.6.6.y.y.r.8.r.r.8.8.8.7.8.8.7.7.0.q.9.9.0.7.8.8.u.C.H.E.G.G.G.G.K.E.H.C.e.6.0.y.q.6.7.8.8.8.7.7.",
"6.6.6.7.y.y.7.7.7.7.7.7.y.y.y.y.5.6.y.u.r.8.y.y.6.6.6.6.6.6.8.8.7.6.y.y.7.6.8.r.H.E.E.E.m.c.c.c.M.E.E.E.C.6.0.y.q.6.6.8.7.6.7.y.",
"6.6.7.9.t.t.7.8.7.7.8.q.e.y.t.e.7.7.y.t.8.r.t.t.7.7.7.6.6.6.8.8.7.6.q.y.q.7.7.8.H.E.E.E.m.c.c.c.M.E.E.E.C.7.0.q.7.6.7.0.8.6.9.y.",
"8.r.8.8.8.7.7.8.y.y.y.y.6.6.6.6.8.8.8.r.8.8.6.6.y.V.D._.`.].`.[.`._.[.[._.R.A.t.H.K.E.E.m.c.c.c.G.E.E.E.F.r.8.6.6.6.6.6.q.y.q.6.",
"8.8.8.8.7.7.7.7.y.y.t.q.7.6.6.7.8.r.r.8.7.9.V.`.$X%X%X%X@X'.(.).XX$X%X$X*X*X%X$X_.J.J.E.m.m.v.v.M.E.J.H.u.r.8.6.6.6.6.7.9.q.q.7.",
"8.8.6.7.y.y.7.8.y.y.6.6.r.8.8.8.8.8.8.8.w.`.%X%X@X'.h.v : @ @ @ - > A ~.@X%X%X*X%X{.!.E.E.E.E.E.E.E.B.<.5.8.8.8.9.6.9.y.q.6.7.q.",
"8.0.6.7.y.q.7.0.y.t.6.7.8.8.8.8.8.8.8.B.{.%X$X'.f.r u / %.:.:.:.:.O.E 6 b ~.OX#X#X#X$X|.W.J.J.J.J.J.y.2.5.r.8.8.7.6.9.y.q.6.7.8.",
"6.7.y.e.6.6.8.8.6.7.y.t.6.6.6.6.6.6.w.].*X$X(.C w [ :.:.:.:.:.:.:.-.-.%.J = a.~.z.^.#X*X].b.1.<.<.<.5.8.8.8.7.6.6.6.6.6.7.8.8.8.",
"6.7.y.q.6.7.8.8.6.7.t.e.6.6.7.7.6.w.`.*X$X/.N H &.:.:.:.:.-.=.%.O.] K u 1 . .     c /.%X*X].b.1.2.3.6.7.8.8.7.7.6.6.6.7.7.8.r.r.",
"6.6.6.7.r.8.8.r.8.8.6.6.6.6.y.y.y._.*X%X).B J =.:.:.:.*.#.[ J 7 o . . . # . . . # > p. XXX%X].n.q.y.0.7.6.6.q.y.q.6.7.8.r.y.t.r.",
"6.6.6.6.8.8.8.8.8.0.7.6.6.6.y.y.I.*X%XOXa.f *.:.;.&.{ K 7 o . . . # . . . # . . # # l R f.).%XP.e.y.9.6.6.6.9.y.q.6.7.8.r.y.t.r.",
"8.8.6.6.6.6.6.6.6.6.y.t.6.6.6.w.oX*X%X/.r o.:.*.[ g ; . . . . # . . # . . . . . # < y D t a.XX{.V.y.q.6.q.y.q.6.7.r.r.r.r.r.r.y.",
"8.8.6.6.6.6.6.6.6.7.y.t.6.7.6.S.$X*X#Xa.f :.:.[ 6 * > * . . . . # # # . . o 2 3 t G U  .L T (.%XL.y.q.6.q.y.q.6.7.8.r.r.r.8.r.y.",
"y.t.6.7.y.t.6.6.8.8.6.6.8.8.r.L.%X*XXXx X.:.*.J # > A l . . . . # # . . . y U U  ... . .P T (.&XY.y.y.y.y.y.y.8.r.u.y.y.q.6.6.6.",
"y.t.6.0.y.t.6.6.8.8.6.7.r.8.8.L.$X*X(., =.-.` 6 # > d.A # . # . # # # . o P  . . . . . .F R ).&X!.y.y.u.y.y.e.8.t.y.y.y.q.6.6.6.",
"6.7.8.0.6.7.y.y.6.6.8.8.q.8.6.S.$X*Xx.4 ;.{ 7 #   $ v V * . . . . . . . o U .... .....U a f.@X&XR.r.r.u.r.r.r.8.Z.K.E.E.F.6.9.y.",
"6.7.8.8.6.7.y.t.6.6.r.8.8.8.6.n.$X*Xj.5 O.9 # O 6 - * A V * . # . # . . 2  ..... . . .D Z ).%X%XI.r.t.t.r.8.8.8.Z.K.E.E.F.6.9.y.",
"y.t.6.6.7.0.y.y.y.y.r.8.6.6.y.V.$X%Xh.7 u X - j [ f $ z l * . . . . # . G  .....U U D N x.#X%X*XS.6.8.8.r.r.r.8.Z.E.E.E.H.y.q.6.",
"y.q.6.6.7.8.y.y.y.y.8.8.6.6.y.N.$X%Xz.o o - E %.:.X.9 $ # . . . . . # - y I I I D 2 z z.@X*X%XoXN.6.7.8.r.r.r.8.Z.E.E.E.H.y.e.6.",
"7.q.y.t.8.8.7.0.y.y.7.8.t.t.6.q.+X%Xi.  ; _ =.:.:.-.X.d & . .   . + J X.g t 0 i K f V  X*X*X*XU.y.y.q.6.8.8.8.r.6.3.3.2.4.6.7.7.",
"6.6.y.y.8.8.7.8.y.y.7.7.y.y.7.w.$X%Xl % j ;.:.:.:.:.-.*.X./ J J / O.=.:.*.#.#.$.$.W S %X*X*X[.n.w.y.q.6.7.8.8.r.6.<.<.<.3.6.6.7.",
"y.q.6.6.7.6.7.7.y.t.8.8.y.y.8.r.[.%XM . f >.>.:.:.:.:.:.:.-.-.-.-.:.:.:.:.:.:.:.O.m l.%X*XoXA.9.q.y.y.y.r.r.8.6.q.e.q.6.9.y.q.6.",
"y.e.6.6.6.6.7.8.y.y.7.7.y.y.r.r.Q.%X).a.8 @.:.:.:.:.:.:.:.:.:.:.:.:.:.:.:.:.:.-.^ C  X*X%X+XA.7.q.y.y.y.t.8.7.6.9.y.q.6.0.y.q.6.",
"y.t.6.9.y.y.y.t.8.7.7.7.7.8.8.r.S.*X#XXXi.s -.:.:.:.:.:.:.:.:.:.:.:.:.:.:.:.:.O.1 * b j.XX*X{.A.0.8.0.y.t.7.8.y.0.7.6.6.6.9.9.e.",
"y.t.6.9.y.y.y.t.7.7.7.7.7.7.r.8.8.oX*X*X'.b W :.:.:.:.:.:.:.:.:.:.:.:.:.:.:.$.s J &._ 9 v /.$XI.0.8.t.y.t.7.0.y.q.6.6.6.6.6.9.y.",
"7.9.y.t.7.7.8.7.7.7.7.8.t.t.8.r.T.%X@X@X$X^.x Q -.:.:.:.:.:.:.:.:.:.:.:.;.$.s f -.:.:.-.W M /.`.b.7.0.u.0.7.0.y.q.6.9.y.q.6.9.y.",
"6.9.y.t.7.7.7.7.7.7.7.8.y.u.r.A.$XXXb h. X).s.; f O.-.:.:.:.:.:.:.:.-.=.[ 9 H -.:.:.:.:.=.j i..XD.9.0.y.t.7.t.y.q.6.9.y.q.6.9.y.",
"6.6.9.7.8.8.t.y.t.t.7.7.7.7.7.T.@Xi.9 6 e e 4 E j 9 J +.:.:.:.-.*.$.[ s 1 ) :.:.:.:.:.:.:.X.m ^.[.y.t.8.7.7.8.8.7.6.9.y.q.7.9.y.",
"6.6.6.6.8.8.u.y.y.y.7.8.7.7.8.oX).= $.-.o.+.=.>.:.O.H K %.:.:.[ s 4 q ~ -.:.:.:.:.:.>.:.:.=.d l.$Xy.r.7.7.7.7.7.7.7.9.y.q.7.q.y.",
"y.t.e.0.7.7.r.r.r.8.8.8.8.8.7.$Xd.i :.:.:.:.:.:.:.:.:.:.:.:.:.%.X.%.:.:.:.:.:.:.:.:.:.:.:.:.g g.@X8.7.7.7.7.8.t.q.7.8.7.8.7.7.8.",
"y.y.y.t.5.7.8.r.r.r.8.8.8.8.7.$Xc [ :.:.:.-.o.{ X.+.*.:.:.:.:.:.:.:.:.:.:.:.:.:.:.:.:.:.:.:.g g.@X7.7.7.8.7.0.y.t.r.8.7.7.7.7.7.",
"9.0.7.q.t.e.7.7.8.r.8.8.r.8.8.$X> %.:.:.-.{ w f f h E [ *.:.:.:.:.:.:.:.:.:.:.>.>.:.>.:.:.*.k z.$X6.7.8.8.7.7.0.7.7.7.y.q.7.7.7.",
"7.7.7.9.y.t.6.7.8.r.8.8.8.8.r.+X> &.:.:.-.! w | O.] H d ~ *.:.:.:.:.:.:.:.:.>.:.>.:.:.:.:.| m /.%X6.7.r.8.7.7.7.7.7.q.y.t.7.7.8.",
"y.q.7.7.q.7.6.6.8.r.r.r.8.8.8.$Xl @.:.:.:.` ; E o.>.;.} i / =.:.:.:.:.>.:.>.:.:.>.:.:.:.*.K p.XX%X6.7.r.8.8.7.7.7.t.q.9.7.8.7.t.",
"y.t.6.6.6.6.5.7.r.r.8.8.8.8.5.+XA W :.:.:.| 7 w ! $.:.;./ j %.:.:.:.:.:.:.:.:.:.:.:.:.-./ N ~.*X%X6.7.8.8.8.7.6.9.y.t.9.7.7.q.y.",
"y.t.6.6.7.0.q.q.8.r.r.8.7.7.q.$X~.1 $.:.:.&.j 1 f ' ;.;._ j $.:.:.:.>.:.:.:.:.:.:.:.-.) m k.OX%X+X8.8.8.7.7.9.q.q.7.8.8.8.8.8.7.",
"y.q.6.6.0.8.y.y.r.8.8.8.6.6.y.$X@XS s %.:.-.} q 6 d W j s ( -.:.:.:.:.:.:.:.:.:.:.#.W n k.XX%X$XI.8.8.8.6.6.q.y.q.5.7.8.8.8.7.6.",
"q.7.6.7.t.t.r.r.8.8.7.7.q.e.q.$X%X'.A d X.;.-.| ~ Q Q Q ` *.:.:.>.:.>.:.:.:.:.$.^ k Z x.OX%X$XT.y.r.r.t.q.6.q.y.q.6.7.8.8.8.8.8.",
"6.6.6.7.u.y.r.r.8.8.6.6.y.y.7.$X*X%X).a.p g [ *.-.=.*.=.-.:.:.:.:.>.>.-.#.) g p R k.).#X$X{.I.u.8.r.t.y.q.4.q.y.q.6.8.r.8.8.r.8.",
"7.7.7.7.y.y.8.8.8.8.6.7.9.9.8.oX%X*X%XXX~.a.n 8 i j ~ / ` ` ` / E h 5 q r B d.~.'.@X%X{.L.N.t.8.r.t.t.r.r.7.8.7.7.6.9.t.t.r.8.r.",
"8.0.7.8.y.y.7.8.8.7.6.6.6.6.8.Y.%X%X*X*X%XOX).^.k.s.,.Z Z N Z Z ,.d.k.~.). XOX*X$X}.P.e.9.7.8.r.t.y.t.r.8.8.7.7.6.6.9.y.t.r.8.r.",
"8.8.7.7.q.7.7.7.8.7.0.t.8.7.7.0.I.oX%X*X%X%X%X$X@X@XOXXXXXXXXXOX@X@X@X$X%X+X[.R.A.w.9.8.q.t.8.r.r.7.8.8.8.8.8.8.7.7.8.r.r.8.8.8.",
"7.7.7.7.7.8.7.7.7.8.y.t.r.7.6.7.u.B.n.V._.}.$X*X%X*X%X%X*X*X*X%X%X}.[.Y.V.e.e.9.8.7.7.7.t.y.t.8.7.7.8.7.8.8.8.8.8.r.r.8.r.r.8.8.",
"7.7.t.q.7.7.7.8.r.r.r.r.8.8.6.6.8.7.7.7.r.8.r.8.6.6.y.y.6.6.8.8.7.6.7.q.8.8.8.t.q.t.7.7.0.8.8.8.8.7.0.t.0.8.8.8.8.r.r.r.r.r.8.8.",
"7.8.y.t.7.7.7.7.u.u.r.8.r.8.6.6.7.5.r.8.8.8.8.r.6.6.q.y.6.6.0.8.7.6.6.6.8.8.t.y.y.y.q.7.7.7.7.7.8.7.q.y.q.7.7.8.r.r.8.8.8.r.8.8.",
"8.7.q.7.7.7.q.q.t.0.8.8.r.8.7.7.8.8.8.8.8.r.r.r.6.6.q.q.6.6.7.7.q.q.q.q.r.8.y.y.y.y.8.7.7.6.0.r.7.7.7.0.t.t.8.8.8.8.8.r.r.8.8.r.",
"r.8.6.6.6.7.y.y.r.r.r.r.8.r.8.8.8.r.8.r.8.8.r.r.6.6.6.6.6.6.6.6.e.y.y.e.r.r.t.y.y.y.t.7.7.6.q.y.9.6.7.7.q.y.q.7.8.r.8.8.8.r.8.r.",
"7.9.0.0.6.9.y.y.7.7.7.7.8.8.r.8.7.7.7.7.8.r.r.t.7.7.6.6.9.q.7.6.q.t.y.y.r.r.8.q.y.y.8.8.7.7.8.0.q.q.q.7.0.q.q.q.8.8.7.7.7.7.7.8.",
"6.9.y.t.6.7.y.t.6.7.6.7.r.r.8.8.6.6.6.6.8.r.y.y.8.8.6.6.y.y.7.6.8.8.t.y.r.r.7.8.t.y.t.r.8.r.7.6.q.y.q.6.7.7.q.y.8.5.6.6.6.6.7.8.",
"0.q.0.9.7.7.u.t.6.6.9.0.7.7.7.7.6.6.6.6.r.r.r.r.7.7.q.q.q.q.7.7.8.8.8.t.t.t.q.q.8.8.8.8.r.r.7.7.q.e.t.q.7.7.7.q.8.r.7.6.7.9.8.7.",
"y.t.6.7.8.r.y.t.6.7.y.t.6.6.6.7.6.6.6.6.8.r.r.r.6.6.y.y.6.5.8.r.7.7.8.8.y.y.y.y.8.7.8.r.r.8.7.7.q.y.y.y.8.7.7.6.8.t.t.7.9.y.q.7.",
"y.t.6.7.8.r.r.r.7.9.y.y.6.6.7.9.6.6.0.q.7.7.8.8.0.q.t.y.7.6.8.r.7.7.8.r.r.t.t.y.8.7.8.r.r.8.8.7.0.q.t.y.t.7.8.q.q.q.9.6.9.q.0.9.",
"N.t.6.7.8.r.r.r.r.r.y.y.6.6.y.y.6.6.y.y.6.6.8.8.y.y.y.y.8.7.t.u.8.7.8.8.8.7.t.y.8.7.8.8.r.r.8.8.8.7.q.y.q.7.0.y.q.6.6.6.6.6.9.y.",
"q.q.9.0.8.r.8.8.r.r.y.y.0.0.y.y.7.7.q.0.0.0.8.8.y.y.e.t.8.7.r.r.7.8.8.r.7.7.q.t.8.7.8.8.8.r.8.7.7.8.q.y.q.7.q.y.q.6.7.9.9.6.9.y.",
"6.9.y.t.r.r.8.8.8.r.y.y.y.y.y.y.8.8.6.7.y.y.7.7.y.y.8.7.8.8.7.7.8.8.r.r.7.8.7.7.7.7.7.r.8.r.7.6.7.7.t.y.q.9.q.e.q.6.9.y.e.6.9.y."
};
