/* XPM */
static char *result[] = {
/* columns rows colors chars-per-pixel */
"64 64 215 2 ",
"   c #161014",
".  c #171214",
"X  c #191415",
"o  c #15131C",
"O  c #1A161C",
"+  c #191918",
"@  c #1E1B1C",
"#  c #221B16",
"$  c #221E1E",
"%  c #1F2019",
"&  c #24211D",
"*  c #2A241C",
"=  c #2E2A1E",
"-  c #32261E",
";  c #312C1C",
":  c #38351C",
">  c #3C341C",
",  c #130C22",
"<  c #171421",
"1  c #1B1622",
"2  c #1E1B21",
"3  c #231E21",
"4  c #242122",
"5  c #2B2423",
"6  c #292727",
"7  c #2E2B2C",
"8  c #332B22",
"9  c #362C27",
"0  c #3C3522",
"q  c #333128",
"w  c #2C2D33",
"e  c #363437",
"r  c #3B3A3C",
"t  c #443D1D",
"y  c #473525",
"u  c #443C22",
"i  c #573924",
"p  c #413E3F",
"a  c #643E21",
"s  c #4B441D",
"d  c #554E1E",
"f  c #54511E",
"g  c #645C1D",
"h  c #69631D",
"j  c #494523",
"k  c #4B4523",
"l  c #544C23",
"z  c #574729",
"x  c #5B5424",
"c  c #5B5724",
"v  c #7B4E27",
"b  c #655D24",
"n  c #696223",
"m  c #6A6327",
"M  c #736B23",
"N  c #786D27",
"B  c #7B7326",
"V  c #433F44",
"C  c #454344",
"Z  c #4A4849",
"A  c #53524E",
"S  c #524F53",
"D  c #545453",
"F  c #5A5759",
"G  c #625F61",
"H  c #646464",
"J  c #686865",
"K  c #6B6B6B",
"L  c #706E6E",
"P  c #72726D",
"I  c #787775",
"U  c #7D7C7C",
"Y  c #81781F",
"T  c #865229",
"R  c #945A2A",
"E  c #847B26",
"W  c #857D29",
"Q  c #AB6833",
"!  c #B66B31",
"~  c #CC772F",
"^  c #D67C34",
"/  c #9A911F",
"(  c #8C8425",
")  c #8A822A",
"_  c #938C25",
"`  c #938928",
"'  c #9C9426",
"]  c #9C932B",
"[  c #A39B2B",
"{  c #A49A28",
"}  c #ACA526",
"|  c #ACA42B",
" . c #B3AB28",
".. c #B4AB2B",
"X. c #B9B327",
"o. c #BCB32A",
"O. c #E8862C",
"+. c #F5892E",
"@. c #EA8734",
"#. c #F38933",
"$. c #F38934",
"%. c #F98D34",
"&. c #C5BA27",
"*. c #C3BA2A",
"=. c #C8BF2A",
"-. c #CCC32B",
";. c #CCC528",
":. c #D5CD27",
">. c #D1C52C",
",. c #D5CC2C",
"<. c #D9CD2B",
"1. c #DCD127",
"2. c #DDD22C",
"3. c #D8CE30",
"4. c #DED232",
"5. c #E4D926",
"6. c #E2D62C",
"7. c #E5DB2C",
"8. c #EADC2D",
"9. c #F5DF2D",
"0. c #E8DC32",
"q. c #EDE22C",
"w. c #F3E526",
"e. c #F8EB27",
"r. c #F5E52D",
"t. c #F8E62C",
"y. c #F6E92D",
"u. c #F9EB2D",
"i. c #FCF12C",
"p. c #EEE132",
"a. c #F5E431",
"s. c #F9E431",
"d. c #F6EA31",
"f. c #FAEB32",
"g. c #FBF231",
"h. c #97CE66",
"j. c #A1D469",
"k. c #AEDC6C",
"l. c #B5DD6C",
"z. c #BDDF6D",
"x. c #B6DE71",
"c. c #B9DF72",
"v. c #B5DF79",
"b. c #BBDF78",
"n. c #BCE174",
"m. c #B7E07D",
"M. c #BCE07A",
"N. c #C0DF70",
"B. c #C0E06F",
"V. c #C1E275",
"C. c #C4E47A",
"Z. c #C9E67E",
"A. c #878685",
"S. c #8B8B8A",
"D. c #93928F",
"F. c #959693",
"G. c #9C9C9C",
"H. c #A19E9E",
"J. c #A8A7A7",
"K. c #B3B2B1",
"L. c #B9B7B8",
"P. c #BCBBBA",
"I. c #B9E181",
"U. c #BFC0BF",
"Y. c #C4E383",
"T. c #CAE685",
"R. c #C5E48C",
"E. c #CBE68C",
"W. c #D1E687",
"Q. c #CBE793",
"!. c #CBE799",
"~. c #D2E998",
"^. c #E2EF8E",
"/. c #C0C0BD",
"(. c #CDE9A4",
"). c #D4EBA3",
"_. c #D8ECA5",
"`. c #D4EBAC",
"'. c #DAEDAC",
"]. c #D7EDB7",
"[. c #DBEEB3",
"{. c #DBEEBA",
"}. c #DEF0BB",
"|. c #FFFAA2",
" X c #FFFAA8",
".X c #E1F1BC",
"XX c #BFBEC0",
"oX c #C1BEC3",
"OX c #C4C4C3",
"+X c #C9C6C7",
"@X c #CDCCCC",
"#X c #D0D0CD",
"$X c #D1D1CF",
"%X c #D4D4D4",
"&X c #D9D9D7",
"*X c #DDDCDC",
"=X c #DEF1C2",
"-X c #E4F2C9",
";X c #E9F4CD",
":X c #F0EED1",
">X c #EBF5D3",
",X c #EDF6DB",
"<X c #F4F9DD",
"1X c #E4E4E3",
"2X c #EAE8E7",
"3X c #ECECEB",
"4X c #F1EFED",
"5X c #EFF8E1",
"6X c #F2F8E3",
"7X c #F5FAEB",
"8X c #F9FBEC",
"9X c #F4F4F4",
"0X c #F7F8F5",
"qX c #FAFCF4",
"wX c #FDFDFC",
/* pixels */
"T.V.b.v.T.T.m.m.n.V.N.V.Z.T.Z.V.V.V.V.V.Z.T.C.b.Y.T.Y.b.b.v.M.T.T.V.b.v.v.v.v.V.n.v.m.T.T.v.m.T.T.T.T.n.b.b.b.c.V.v.v.Y.T.c.b.T.",
"C.z.l.k.M.C.l.k.l.B.B.z.V.Z.N.N.z.B.N.N.N.Z.V.b.Y._.[.`.].].}..X.X[.[.`.`.`.`._.Q.m.n.Z.M.k.l.C.Z.C.V.l.z.l.l.l.l.k.l.V.Z.l.l.V.",
"T.C.V.V.l.l.z.z.B.B.l.k.k.l.z.N.B.B.V.E._..X{.>X7XwXwXwXwXwXwXqXwXwXwXwXwXwXwXwXwXqX5X=X(.E.V.x.z.z.x.z.l.l.l.V.C.z.z.l.z.l.l.z.",
"T.C.Z.Z.l.k.l.z.B.B.l.k.k.l.l.z.V.'.6X8XwXwXwX0XwXwX0X1X#X/.P.P.@X1XqXwXwXwXwXwXwXwXwXwXqX7X'.l.l.l.l.l.l.l.z.C.Z.N.z.l.l.l.l.l.",
"b.c.z.z.n.C.x.k.k.l.n.n.l.k.l.E.6XwXwXwXwXwX0X3XoXI Z 6 O .     + 6 C U P.3X0XwXwXwXwXwXwXwXwX>XT.z.z.z.z.l.l.l.l.l.l.C.V.l.l.l.",
"b.l.l.l.C.C.x.k.k.k.n.Z.x.x.`.7XwXwXwXwX0X%XS.C 6 - s M ( ] ] ' ( M s ; 4 C S.%XwXwXwXwXwXwXwXwX8X[.Z.B.z.l.l.l.l.k.k.C.C.z.l.l.",
"T.V.C.C.l.k.k.k.n.C.x.l.c.;XwXwXwXwXwX9XA.w @ x { 6.q.r.r.r.r.r.s.r.q.2.| x 3 7 A.4X0XwXwXwXwXwXwXwX,XQ.B.z.z.l.l.n.V.z.z.l.z.V.",
"T.Z.C.C.l.k.k.k.M.C.x.x..XwXwXwXwX0X#XC . z o.e.e.t.9.a.r.r.r.r.r.r.r.r.f.u...z X Z @X9X9X9X4X9XwXwXwXqX_.N.z.k.k.Z.C.l.l.l.l.V.",
"T.C.l.x.V.V.V.V.C.C.z.`.qXwXwXwXwXK.p = ` 6.y.a.r.r.r.r.r.r.r.r.r.r.y.e.r.8.<.X.l @ r I K G S U 3XwXwXwXwX{.m.V.n.x.l.l.z.z.z.l.",
"T.C.x.k.V.C.C.C.C.C.'.wXwXwXqXwXH.6 u ,.a.r.r.r.r.t.r.t.r.r.r.f.u.7.o.` b u 8 5 3 $ 3 3 $ 3 4 7 P.wXwXwXwXwX}.Z.C.k.k.z.B.B.z.l.",
"M.n.k.k.C.C.V.x.n.~.wXwXwXwXwXL.@ u ;.r.a.r.r.r.r.r.r.t.r.8.,.' g ; O o + $ 4 4 $ $ $ $ 3 $ $ 3 U wXwXwXwXwXwX[.Z.k.k.z.z.l.l.n.",
"m.k.k.k.C.C.x.l.Y.,XwXwXwXwX$XV > =.r.a.r.r.r.r.t.r.6.X.W l ; 1 2 2 $ 3 $ $ 3 $ $ $ $ $ $ $ 3 $ Z 9X0XwXwXwXwXwX_.k.k.z.z.k.k.V.",
"n.z.l.z.x.x.l.z.>XwXwXwXwXwXH * &.u.r.r.r.r.r.d.>.Y t 3 $ 3 $ 3 & @ 3 3 2 3 $ $ $ $ 3 3 3 @ $ 3 6 U H L P.wXwXwX5XI.k.l.l.n.n.n.",
"M.z.z.z.z.l.l._.wXwXwXwXwXJ.# E e.r.a.a.r.w.;.M * + 3 $ & 3 $ $ 3 & $ $ 3 $ $ $ $ $ 3 3 2 4 $ $ 3 X # # + G.0XwXqX(.k.k.k.V.C.l.",
"V.z.l.l.n.V.Y.8XwXwXwXwX1Xe u ,.r.r.r.r.*.M 5 @ $ 3 3 $ $ $ $ $ % 4 3 $ $ $ $ 4 $ $ $ % 4 2 4 $ i ! ^ ~ y e #XwXwX=Xl.n.n.l.n.l.",
"C.z.l.k.V.C.`.wXwXwXwXwXJ.o ` r.r.r.q.B 4 @ $ O 3 $ 3 $ 3 $ 3 3 3 3 3 3 $ 3 3 @ 3 $ O < + @ * R @.@.@.$.Q 4 H.wXwXqXm.C.Z.k.k.l.",
"m.l.n.n.n.n.`.wXwXwXwX3XH 8 1.r.r.w.6.; & $ $ A 7 $ $ 3 $ $ $ 3 $ 4 4 $ 3 $ 3 $ 4 y T R R ! ^ %.@.+.+.$.^ 6 S.wXwXwX(.l.x.l.l.B.",
"m.l.n.C.k.k.[.wXwXwXwX&Xe M f.r.a.r.<.0 $ $ r 3XA.$ 4 $ $ 3 3 & $ 3 $ 3 3 $ 3 3 $ ! %.%.%.%.%.$.$.$.$.$.~ 3 D.wXwXwX=Xk.k.z.B.B.",
"n.k.k.n.l.z.[.wXwXwXwXK.6 X.f.r.a.5.n $ 3 3 $ #XL.X 4 $ $ $ $ 3 4 $ 4 $ $ $ 3 $ y O.#.#.%.#.+.$.#.#.#.%.Q 3 J.wXwXwX5Xl.z.V.N.N.",
"v.k.k.k.l.n.'.wXwXwXwXS.8 6.s.r.y.E 3 $ 3 3 X S.2XV $ 3 3 $ 3 3 4 3 3 3 $ 3 3 @ v %.#.$.$.$.#.#.#.#.#.$.a w @XwXwXwX4Xz.B.V.Z.N.",
"n.l.k.k.l.l.).wXwXwXwXK s q.r.p.( $ 3 $ 3 $ $ Z +XD X 3 2 $ $ 4 $ 3 3 4 $ 3 $ 3 Q %.$.#.#.#.+.#.#.#.$.~ # G 4XwXwXwX<XB.B.N.N.V.",
"C.z.k.k.l.k.Q.wXwXwXwXD d y.r.' & 3 2 3 # 2 @ 3 7 F Z $ & $ $ 3 $ & $ $ $ $ & 5 ^ +.$.#.#.#.#.#.%.O.O.z 3 +XwXwXwXwX,XB.z.B.B.C.",
"T.V.k.k.n.n.R.wXwXwX0XZ c e...= 4 $ @ # l u 4 2 7 *X*Xr 4 $ $ $ $ 3 $ $ $ $ $ i +.$.$.$.#.#.$.+.$.$.T $ S.wXwXwXwXwX[.V.V.l.l.z.",
"T.C.x.k.M.T.I.wXwXwX0XZ c ;.0 @ & $ 5 E 6.' @ 4 $ H J.V 3 $ $ 4 & $ $ $ $ $ 5 R +.@.$.+.#.#.@.#.^ v 3 K 9XwXwXwXwXwX~.C.V.k.k.k.",
"C.n.l.l.c.n.Y.qXwXwXwXA : : 1 $ & 5 [ w.r.0.d @ & $ 3 3 3 2 4 3 2 & $ 3 3 * 9 ^ +.$.+.@.+.%.%.! y O I 2XwXwXwXwXwX8X^.^.^.l.k.l.",
"m.k.l.z.k.k.R.qXwXwXwXJ O 4 $ $ 8 o.y.r.a.r.5.0 2 4 4 3 3 % $ $ $ 3 $ $ $ 3 * T ^ $.@.+.^ Q i + O F wXwXwXwXwXwXqX<X|.|.|.x.k.C.",
"M.n.z.l.k.l.C.7XwXwX0XF @ $ 3 l -.u.r.a.r.r.t.-.x $ 3 3 & 3 & & 3 3 2 3 u  .n * 9 i i y - $ y b * A.wXwXwXwXwXwXqX;X|.|.|.n.n.n.",
"T.C.l.k.l.l.C.<XwXwXXX3 $ 2 x 3.w.r.r.r.r.r.r.r.7./ u 1 O 2 1 @ + < = B 1.a.8.X.B b d n W *.6. .5 P.wXwXwXwXwXwX>X X|.|.|.C.C.k.",
"Y.n.n.n.l.l.R.qXwXwXS.+ 3 3 &.e.t.r.r.r.r.r.r.r.r.f.r.o.W g d l n ' 6.e.a.t.w.t.u.i.f.u.i.u.u.N e 1XwXwXwXwXwXwXT.W.W.W.W.n.n.x.",
"m.k.V.C.B.z.Y.5XwXwXS.X 3 $ ;.s.r.r.r.t.t.r.a.r.r.r.r.t.u.t.r.r.t.f.r.r.r.r.r.r.r.r.t.w.r.r.0.0 G 0XwXwXwXwXqX~.z.h.h.h.h.k.k.l.",
"M.n.n.n.x.l.l.!.wXwX@X@ + < ` w.r.r.r.r.r.r.r.r.r.r.r.r.r.r.r.r.r.r.r.r.a.r.w.r.r.r.r.r.a.y.] 1 J.wXwXwXwXwX[.l.x.k.k.j.j.l.n.k.",
"T.C.k.k.l.k.l.T.wXwXwXK.I e t <.9.r.r.r.y.r.r.r.r.r.r.r.r.r.r.r.r.r.r.r.r.r.r.r.r.r.r.r.r.2.; V *XwXwXwXwXwX;Xk.k.Z.C.k.k.C.C.k.",
"T.C.k.k.l.n.c.n.4XwXwXwXwXH.$ W y.r.r.r.r.r.r.r.r.r.r.r.r.r.r.r.r.r.r.r.r.r.r.r.r.r.r.r.r.W o D K.*X9XwXwXwXqX!.m.n.n.k.k.n.n.x.",
"T.C.k.k.V.C.C.C..XwXwX0XwX0XH 6 *.u.r.r.r.r.r.r.r.r.t.d.r.t.r.r.r.u.f.r.r.r.r.r.r.r.r.s.o.; 8 $ 3 7 K +XwX0XwX8X>XI.k.k.k.k.k.C.",
"Y.n.n.n.n.V.V.V.R.7XwXwXwXwX%Xr > 3.d.r.y.r.r.r.r.r.r.r.a.u.r.r.r.r.s.r.r.r.r.r.r.r.s.1.> 0 ,.:.[ l @ 3 D.4XwXwX6XI.k.v.x.k.k.C.",
"m.k.V.Z.l.z.l.l.!.7XwXwXwX0XwXJ.% z -.w.r.a.r.r.r.r.r.t.a.r.r.r.t.r.y.r.r.r.r.r.r.r.;.j = } y.t.u.q.o.x @ K 1XwX8XR.k.C.C.k.k.C.",
"m.k.l.n.z.l.c.{.0XwXwXwXwXwXwX0XJ.2 u >.u.r.r.r.a.r.r.r.r.r.r.r.r.r.t.r.r.r.r.r.t.&.j $ | r.a.e.r.a.r.8.B $ P wX0X].l.C.C.k.l.C.",
"m.k.k.k.z.z.~.wXwXwXOXK %X0X0X0XwXJ.6 6 [ q.r.r.r.r.r.r.r.r.r.r.r.r.r.r.r.r.r.p.} 5 = ..e.r.r.a.a.w.r.a.g.M & L.wX7Xv.V.C.z.l.C.",
"m.n.l.n.l.z.[.wXwX%Xe + D L.@XOXF.D 6 > * b o.q.r.t.r.r.r.r.r.r.r.r.r.r.y.p.o.b $ l o.r.r.r.r.r.r.r.r.r.y.<.j C 3XwX-Xn.V.l.l.n.",
"T.C.C.C.k.v.:X0X9XI 3 N 0 1 3 2 2 j [ 2._ ; $ l ' 6.u.r.r.r.r.r.f.i.d.2.[ l 1 ; ` 5.r.r.r.r.a.r.r.r.r.r.r.r.` . J.wXqXE.l.l.l.l.",
"T.n.V.V.n.Q.qXqX@Xw M u.6.] W ( X.q.i.r.y.,.B ; , t 8.r.r.r.t.p.{ E f * o ; B :.f.r.r.r.r.u.a.t.r.r.r.r.r.t.>.@ P qXwX-Xb.l.l.l.",
"n.l.l.l.n.;XwXwXI ; ,.r.s.e.u.u.d.r.r.w.r.r.t.,.{ { r.r.r.r.r.=.; 9 s M [ ,.r.r.r.r.r.r.r.a.r.r.y.a.y.r.r.r.7.> Z 3XwX8X_.l.l.l.",
"C.l.l.l.R.wXwX2Xq m f.r.r.r.r.r.r.r.r.y.r.r.a.r.r.r.r.r.r.r.r.r.,.1.q.r.r.e.r.r.r.r.r.r.r.t.u.a.a.t.r.r.r.r.r.l r *XwXqX_.l.l.z.",
"T.Z.x.k.(.wXwXK.# { r.r.r.r.r.r.w.r.q.r.r.w.r.r.r.r.r.r.r.r.r.9.r.9.w.r.r.r.r.r.r.r.r.r.r.a.r.r.u.a.a.r.r.r.r.c r *XwXwX.Xl.l.V.",
"T.C.l.k.-XwXwXI # =.r.r.r.r.t.r.8.=.....*.<.q.r.d.r.r.r.r.r.r.r.r.a.r.r.r.r.r.r.r.r.a.u.r.a.y.r.r.t.a.y.r.r.8.s p 1XwXwX-Xz.l.V.",
"T.C.k.k.>XwX0XD > 6.t.r.r.r.r.8.b $ O @ O * s ( >.y.s.r.r.r.r.r.r.r.r.r.r.r.r.r.r.r.t.r.t.r.s.r.a.r.r.r.r.r.6.* F 4XwXwX-XB.z.l.",
"T.C.x.k.>XwX9XC s 7.r.r.r.r.r.| , n } | ` n 8 @ * ) 6.r.r.r.r.r.r.r.r.r.r.r.r.r.r.r.a.a.a.s.y.r.r.r.r.r.r.r.*.o A.wXwXwX-XB.B.l.",
"m.k.k.k.>XwX9XC u 7.r.r.r.a.r.' o ' q.i.u.r.6.| b # l &.r.r.r.r.r.r.r.r.r.y.r.s.r.y.u.r.y.r.r.r.r.r.r.r.r.r.E O P.wXwXwX;XB.z.z.",
"m.k.k.l.>XwXwXA t <.r.r.r.r.r.>.5 * l ( 2.r.r.r.r. .8 0 2.t.r.r.r.r.r.t.r.a.a.r.u.a.a.r.t.a.r.r.r.r.r.r.r.,.> F 9XwXwXwX>XB.B.z.",
"V.z.l.l.>XwXwXI * =.r.r.r.r.r.1.6 ; = o ] y.r.r.r.y.o.8 h r.r.t.r.r.d.a.t.r.u.y.r.r.t.u.a.t.r.r.r.r.r.r.y.B 6 U.wXwXwXwX;Xz.B.B.",
"V.B.l.l.}.wXwXK.$ { r.r.r.r.t.7.u 8 `  .6.a.y.a.w.r.q.M 6 ,.t.r.r.r.a.y.a.u.s.r.a.r.r.a.r.r.r.r.r.r.r.r.[ 5 L 0XwXwXwXqX_.B.z.B.",
"n.l.l.l.).wXwX3Xp d a.r.r.9.r.t.-.8 2 = l b =.s.r.p.p._ o &.y.r.r.r.t.r.r.a.r.y.r.r.r.r.r.r.r.r.r.r.r. .3 Z &XwXwXwXwX7XZ.B.z.B.",
"M.l.l.z.!.wXwXwXF.$ { i.r.r.r.a.g.b * j 0 = [ u.q.r.q.n 4 ,.r.t.r.r.r.t.r.d.r.a.r.r.t.a.r.r.r.r.a.r.} ; q $XwXwXwXwXwX'.B.z.B.z.",
"V.l.V.C.Q.wXwXwX1XD 8 o.r.r.r.r.u.[ ; j E ] -.;.-. .m & ) y.r.r.r.r.t.a.r.a.r.t.r.r.y.r.t.r.r.r.2.W 8 Z @XwXwXwXwXwX;XN.B.B.B.B.",
"b.l.V.C.Y.wXwX0X0X+X6 8  .u.r.r.q.r...j @ O 1 & 1 O 8 _ p.w.r.u.r.r.r.r.r.r.r.r.r.r.r.r.a.u.y. .k X J *X0XwXwXwXwX>XN.B.z.B.z.B.",
"C.N.l.k.x.7XwXwXwXwXOX7 5 ' 8.r.r.r.y.y.-.[ ( E ( | 2.y.w.r.q.r.a.r.r.a.r.r.r.r.r.r.r.a.q.o.x 1 7 G.wXqXwXwXwXwX6XT.B.z.z.B.z.B.",
"C.B.l.k.k.,XwXwXwXwX0X+XF 1 l [ 2.r.t.t.u.u.u.u.u.d.y.r.r.r.r.r.r.r.t.t.r.r.u.s.r.4.&._ d & e U #XwXwXwXwXwX8X-XY.N.z.z.z.z.B.B.",
"m.k.n.C.l.{.wXwXwXwXwXwX3XG.e + : N  .1.u.u.u.f.f.a.r.y.r.r.r.f.u.u.u.u.f.0.-.[ M 0 + @ Z G.*X0XwXwXwXwXqX{.T.Z.C.k.k.k.k.k.k.z.",
"m.k.V.C.k.(.wXwXwXwXwXwXwXwX3XD.V 1 < 5 l N ] ..&.>.,.,.<.,.;.=.o.[ ` M l ; 1 o @ p U @X0XwXwX0XwXwXqX=Xv.l.l.C.Z.k.k.k.k.k.k.z.",
"T.V.x.l.l.Y.8XwXwXwXwXwXwXwXwXwX3XoXF.J Z e 6 3 & * = = = 5 5 5 6 3 w r Z H A.J.@X3XwXwXwXwXwXwXqX>X~.Z.C.l.l.k.l.C.C.k.k.V.V.l.",
"T.C.x.k.z.B._.qXwXwXwXwXwXwXwXwXwXwXwX9X3X1X%X+XL.K.H.H.H.J.J.P.oX#X*X1X3X9X0XwXwXwXwXwXwXwX8X-XE.Z.Z.C.C.l.l.k.k.C.C.k.k.C.C.l.",
"T.C.x.k.z.B.B.E.<XqXwXwXwXwXwXwXwXwXwXwXwXwXwXwXwXwXwXwXwXwXwXwXwXwXwXwX0XwXwXwXwXwXqX6X>X_.C.z.z.l.l.C.V.z.z.C.C.k.l.k.k.k.l.n.",
"T.C.k.k.l.B.z.N.V.~..X;X,X8XwXwXwXwXwXwXwXwXwXwXwXwXwXwXwXwXwXwXwXwXwXwXwX8X7X>X{.~.E.V.B.B.z.z.z.l.x.Z.C.x.x.C.C.k.k.k.k.k.k.C.",
"m.k.V.V.B.B.B.N.z.z.V.Z.T.E.'.-X6XwXwXwXwXwXwXwXwXwXwXwXwXwXwXwXwXwX>X[.).Y.I.b.l.l.z.B.z.B.z.l.k.l.z.C.V.l.z.C.C.k.k.M.C.k.k.C."
};
